{
  "accessors": [
    {
      "bufferView": 2,
      "componentType": 5126,
      "count": 4389,
      "max": [
        77.70843505859375,
        71.91480255126953,
        45.03966522216797
      ],
      "min": [
        -77.70843505859375,
        -0.05133432149887085,
        -45.0396614074707
      ],
      "type": "VEC3"
    },
    {
      "bufferView": 2,
      "byteOffset": 52668,
      "componentType": 5126,
      "count": 4389,
      "max": [
        0.9979022145271301,
        1.0,
        0.9979018568992615
      ],
      "min": [
        -0.9979022145271301,
        -1.0,
        -0.9979017972946167
      ],
      "type": "VEC3"
    },
    {
      "bufferView": 3,
      "componentType": 5126,
      "count": 4389,
      "max": [
        1.0,
        0.543820321559906,
        1.0,
        1.0
      ],
      "min": [
        -1.0,
        -1.0,
        -1.0,
        -1.0
      ],
      "type": "VEC4"
    },
    {
      "bufferView": 1,
      "componentType": 5126,
      "count": 4389,
      "max": [
        1.9729560613632202,
        0.9999999403953552
      ],
      "min": [
        -0.9315077066421509,
        -0.002000190317630768
      ],
      "type": "VEC2"
    },
    {
      "bufferView": 1,
      "byteOffset": 35112,
      "componentType": 5126,
      "count": 4389,
      "max": [
        1.9729560613632202,
        0.9999999403953552
      ],
      "min": [
        -0.9315077066421509,
        -0.002000190317630768
      ],
      "type": "VEC2"
    },
    {
      "bufferView": 0,
      "componentType": 5125,
      "count": 15786,
      "type": "SCALAR"
    },
    {
      "bufferView": 2,
      "byteOffset": 105336,
      "componentType": 5126,
      "count": 323,
      "max": [
        -35.6392936706543,
        54.691619873046875,
        44.347503662109375
      ],
      "min": [
        -67.55949401855469,
        43.618385314941406,
        -3.6039791107177734
      ],
      "type": "VEC3"
    },
    {
      "bufferView": 2,
      "byteOffset": 109212,
      "componentType": 5126,
      "count": 323,
      "max": [
        0.9957444667816162,
        1.0,
        0.9969853162765503
      ],
      "min": [
        -0.9957444667816162,
        -1.0,
        -0.9957444667816162
      ],
      "type": "VEC3"
    },
    {
      "bufferView": 3,
      "byteOffset": 70224,
      "componentType": 5126,
      "count": 323,
      "max": [
        0.9977077841758728,
        1.0,
        1.0,
        1.0
      ],
      "min": [
        -0.9999330639839172,
        -1.0,
        -1.0,
        -1.0
      ],
      "type": "VEC4"
    },
    {
      "bufferView": 1,
      "byteOffset": 70224,
      "componentType": 5126,
      "count": 323,
      "max": [
        0.9156589508056641,
        0.6647781133651733
      ],
      "min": [
        0.0014530420303344727,
        0.04572411626577377
      ],
      "type": "VEC2"
    },
    {
      "bufferView": 1,
      "byteOffset": 72808,
      "componentType": 5126,
      "count": 323,
      "max": [
        0.9156589508056641,
        0.6647781133651733
      ],
      "min": [
        0.0014530420303344727,
        0.04572411626577377
      ],
      "type": "VEC2"
    },
    {
      "bufferView": 0,
      "byteOffset": 63144,
      "componentType": 5125,
      "count": 1080,
      "type": "SCALAR"
    },
    {
      "bufferView": 2,
      "byteOffset": 113088,
      "componentType": 5126,
      "count": 384,
      "max": [
        71.76539611816406,
        63.36655807495117,
        40.220218658447266
      ],
      "min": [
        39.85042190551758,
        56.11429214477539,
        -7.519470691680908
      ],
      "type": "VEC3"
    },
    {
      "bufferView": 2,
      "byteOffset": 117696,
      "componentType": 5126,
      "count": 384,
      "max": [
        0.9957444667816162,
        1.0,
        0.9971067905426025
      ],
      "min": [
        -0.9957444667816162,
        -1.0,
        -0.9957444667816162
      ],
      "type": "VEC3"
    },
    {
      "bufferView": 3,
      "byteOffset": 75392,
      "componentType": 5126,
      "count": 384,
      "max": [
        0.9999331831932068,
        1.0,
        1.0,
        1.0
      ],
      "min": [
        -0.9980854392051697,
        -1.0,
        -1.0,
        -1.0
      ],
      "type": "VEC4"
    },
    {
      "bufferView": 1,
      "byteOffset": 75392,
      "componentType": 5126,
      "count": 384,
      "max": [
        0.9993085265159607,
        0.6647781133651733
      ],
      "min": [
        0.0014530420303344727,
        0.04572411626577377
      ],
      "type": "VEC2"
    },
    {
      "bufferView": 1,
      "byteOffset": 78464,
      "componentType": 5126,
      "count": 384,
      "max": [
        0.9993085265159607,
        0.6647781133651733
      ],
      "min": [
        0.0014530420303344727,
        0.04572411626577377
      ],
      "type": "VEC2"
    },
    {
      "bufferView": 0,
      "byteOffset": 67464,
      "componentType": 5125,
      "count": 1260,
      "type": "SCALAR"
    },
    {
      "bufferView": 2,
      "byteOffset": 122304,
      "componentType": 5126,
      "count": 384,
      "max": [
        -35.55598449707031,
        63.36655807495117,
        45.11176681518555
      ],
      "min": [
        -67.47618103027344,
        56.11429214477539,
        -2.7038207054138184
      ],
      "type": "VEC3"
    },
    {
      "bufferView": 2,
      "byteOffset": 126912,
      "componentType": 5126,
      "count": 384,
      "max": [
        0.9957444667816162,
        1.0,
        0.9971069693565369
      ],
      "min": [
        -0.9957444667816162,
        -1.0,
        -0.9957444667816162
      ],
      "type": "VEC3"
    },
    {
      "bufferView": 3,
      "byteOffset": 81536,
      "componentType": 5126,
      "count": 384,
      "max": [
        0.9980850219726563,
        1.0,
        1.0,
        1.0
      ],
      "min": [
        -0.9999331831932068,
        -1.0,
        -1.0,
        -1.0
      ],
      "type": "VEC4"
    },
    {
      "bufferView": 1,
      "byteOffset": 81536,
      "componentType": 5126,
      "count": 384,
      "max": [
        0.9993085265159607,
        0.6647781133651733
      ],
      "min": [
        0.0014530420303344727,
        0.04572411626577377
      ],
      "type": "VEC2"
    },
    {
      "bufferView": 1,
      "byteOffset": 84608,
      "componentType": 5126,
      "count": 384,
      "max": [
        0.9993085265159607,
        0.6647781133651733
      ],
      "min": [
        0.0014530420303344727,
        0.04572411626577377
      ],
      "type": "VEC2"
    },
    {
      "bufferView": 0,
      "byteOffset": 72504,
      "componentType": 5125,
      "count": 1260,
      "type": "SCALAR"
    },
    {
      "bufferView": 2,
      "byteOffset": 131520,
      "componentType": 5126,
      "count": 573,
      "max": [
        35.89706039428711,
        65.45464324951172,
        35.32872009277344
      ],
      "min": [
        -33.50445556640625,
        55.97917938232422,
        -16.907419204711914
      ],
      "type": "VEC3"
    },
    {
      "bufferView": 2,
      "byteOffset": 138396,
      "componentType": 5126,
      "count": 573,
      "max": [
        0.9957444667816162,
        1.0,
        0.9971866607666016
      ],
      "min": [
        -0.9957444667816162,
        -1.0,
        -0.9957444667816162
      ],
      "type": "VEC3"
    },
    {
      "bufferView": 3,
      "byteOffset": 87680,
      "componentType": 5126,
      "count": 573,
      "max": [
        1.0,
        1.0,
        1.0,
        1.0
      ],
      "min": [
        -1.0,
        -1.0,
        -1.0,
        -1.0
      ],
      "type": "VEC4"
    },
    {
      "bufferView": 1,
      "byteOffset": 87680,
      "componentType": 5126,
      "count": 573,
      "max": [
        0.9993085265159607,
        0.6647781133651733
      ],
      "min": [
        0.2478540688753128,
        0.04572411626577377
      ],
      "type": "VEC2"
    },
    {
      "bufferView": 1,
      "byteOffset": 92264,
      "componentType": 5126,
      "count": 573,
      "max": [
        0.9993085265159607,
        0.6647781133651733
      ],
      "min": [
        0.2478540688753128,
        0.04572411626577377
      ],
      "type": "VEC2"
    },
    {
      "bufferView": 0,
      "byteOffset": 77544,
      "componentType": 5125,
      "count": 2076,
      "type": "SCALAR"
    },
    {
      "bufferView": 2,
      "byteOffset": 145272,
      "componentType": 5126,
      "count": 323,
      "max": [
        -35.29633712768555,
        40.228614807128906,
        48.05305862426758
      ],
      "min": [
        -67.21653747558594,
        29.1553897857666,
        0.10157585144042969
      ],
      "type": "VEC3"
    },
    {
      "bufferView": 2,
      "byteOffset": 149148,
      "componentType": 5126,
      "count": 323,
      "max": [
        0.9957444667816162,
        1.0,
        0.9969853162765503
      ],
      "min": [
        -0.9957444667816162,
        -1.0,
        -0.9957444667816162
      ],
      "type": "VEC3"
    },
    {
      "bufferView": 3,
      "byteOffset": 96848,
      "componentType": 5126,
      "count": 323,
      "max": [
        0.9977079033851624,
        1.0,
        1.0,
        1.0
      ],
      "min": [
        -0.999933123588562,
        -1.0,
        -1.0,
        -1.0
      ],
      "type": "VEC4"
    },
    {
      "bufferView": 1,
      "byteOffset": 96848,
      "componentType": 5126,
      "count": 323,
      "max": [
        0.9156589508056641,
        0.6647781133651733
      ],
      "min": [
        0.0014530420303344727,
        0.04572411626577377
      ],
      "type": "VEC2"
    },
    {
      "bufferView": 1,
      "byteOffset": 99432,
      "componentType": 5126,
      "count": 323,
      "max": [
        0.9156589508056641,
        0.6647781133651733
      ],
      "min": [
        0.0014530420303344727,
        0.04572411626577377
      ],
      "type": "VEC2"
    },
    {
      "bufferView": 0,
      "byteOffset": 85848,
      "componentType": 5125,
      "count": 1080,
      "type": "SCALAR"
    },
    {
      "bufferView": 2,
      "byteOffset": 153024,
      "componentType": 5126,
      "count": 323,
      "max": [
        -35.103939056396484,
        25.7656192779541,
        50.131874084472656
      ],
      "min": [
        -67.02413940429688,
        14.692388534545898,
        2.180391311645508
      ],
      "type": "VEC3"
    },
    {
      "bufferView": 2,
      "byteOffset": 156900,
      "componentType": 5126,
      "count": 323,
      "max": [
        0.9957444667816162,
        1.0,
        0.9969853162765503
      ],
      "min": [
        -0.9957444667816162,
        -1.0,
        -0.9957444667816162
      ],
      "type": "VEC3"
    },
    {
      "bufferView": 3,
      "byteOffset": 102016,
      "componentType": 5126,
      "count": 323,
      "max": [
        0.9977079033851624,
        1.0,
        1.0,
        1.0
      ],
      "min": [
        -0.999933123588562,
        -1.0,
        -1.0,
        -1.0
      ],
      "type": "VEC4"
    },
    {
      "bufferView": 1,
      "byteOffset": 102016,
      "componentType": 5126,
      "count": 323,
      "max": [
        0.9156589508056641,
        0.6647781133651733
      ],
      "min": [
        0.0014530420303344727,
        0.04572411626577377
      ],
      "type": "VEC2"
    },
    {
      "bufferView": 1,
      "byteOffset": 104600,
      "componentType": 5126,
      "count": 323,
      "max": [
        0.9156589508056641,
        0.6647781133651733
      ],
      "min": [
        0.0014530420303344727,
        0.04572411626577377
      ],
      "type": "VEC2"
    },
    {
      "bufferView": 0,
      "byteOffset": 90168,
      "componentType": 5125,
      "count": 1080,
      "type": "SCALAR"
    },
    {
      "bufferView": 2,
      "byteOffset": 160776,
      "componentType": 5126,
      "count": 323,
      "max": [
        71.42911529541016,
        54.691619873046875,
        34.4381217956543
      ],
      "min": [
        39.5089111328125,
        43.618385314941406,
        -13.513362884521484
      ],
      "type": "VEC3"
    },
    {
      "bufferView": 2,
      "byteOffset": 164652,
      "componentType": 5126,
      "count": 323,
      "max": [
        0.9957444667816162,
        1.0,
        0.9969853162765503
      ],
      "min": [
        -0.9957444667816162,
        -1.0,
        -0.9957444667816162
      ],
      "type": "VEC3"
    },
    {
      "bufferView": 3,
      "byteOffset": 107184,
      "componentType": 5126,
      "count": 323,
      "max": [
        0.997707724571228,
        1.0,
        1.0,
        1.0
      ],
      "min": [
        -0.9999330639839172,
        -1.0,
        -1.0,
        -1.0
      ],
      "type": "VEC4"
    },
    {
      "bufferView": 1,
      "byteOffset": 107184,
      "componentType": 5126,
      "count": 323,
      "max": [
        0.9156589508056641,
        0.6647781133651733
      ],
      "min": [
        0.0014530420303344727,
        0.04572411626577377
      ],
      "type": "VEC2"
    },
    {
      "bufferView": 1,
      "byteOffset": 109768,
      "componentType": 5126,
      "count": 323,
      "max": [
        0.9156589508056641,
        0.6647781133651733
      ],
      "min": [
        0.0014530420303344727,
        0.04572411626577377
      ],
      "type": "VEC2"
    },
    {
      "bufferView": 0,
      "byteOffset": 94488,
      "componentType": 5125,
      "count": 1080,
      "type": "SCALAR"
    },
    {
      "bufferView": 2,
      "byteOffset": 168528,
      "componentType": 5126,
      "count": 323,
      "max": [
        71.58717346191406,
        40.460289001464844,
        36.14591979980469
      ],
      "min": [
        39.666969299316406,
        29.38705825805664,
        -11.80556583404541
      ],
      "type": "VEC3"
    },
    {
      "bufferView": 2,
      "byteOffset": 172404,
      "componentType": 5126,
      "count": 323,
      "max": [
        0.9957444667816162,
        1.0,
        0.9969853162765503
      ],
      "min": [
        -0.9957444667816162,
        -1.0,
        -0.9957444667816162
      ],
      "type": "VEC3"
    },
    {
      "bufferView": 3,
      "byteOffset": 112352,
      "componentType": 5126,
      "count": 323,
      "max": [
        0.9977078437805176,
        1.0,
        1.0,
        1.0
      ],
      "min": [
        -0.9999331831932068,
        -1.0,
        -1.0,
        -1.0
      ],
      "type": "VEC4"
    },
    {
      "bufferView": 1,
      "byteOffset": 112352,
      "componentType": 5126,
      "count": 323,
      "max": [
        0.9156589508056641,
        0.6647781133651733
      ],
      "min": [
        0.0014530420303344727,
        0.04572411626577377
      ],
      "type": "VEC2"
    },
    {
      "bufferView": 1,
      "byteOffset": 114936,
      "componentType": 5126,
      "count": 323,
      "max": [
        0.9156589508056641,
        0.6647781133651733
      ],
      "min": [
        0.0014530420303344727,
        0.04572411626577377
      ],
      "type": "VEC2"
    },
    {
      "bufferView": 0,
      "byteOffset": 98808,
      "componentType": 5125,
      "count": 1080,
      "type": "SCALAR"
    },
    {
      "bufferView": 2,
      "byteOffset": 176280,
      "componentType": 5126,
      "count": 323,
      "max": [
        71.42911529541016,
        25.911306381225586,
        34.4381217956543
      ],
      "min": [
        39.5089111328125,
        14.838075637817383,
        -13.513362884521484
      ],
      "type": "VEC3"
    },
    {
      "bufferView": 2,
      "byteOffset": 180156,
      "componentType": 5126,
      "count": 323,
      "max": [
        0.9957444667816162,
        1.0,
        0.9969853162765503
      ],
      "min": [
        -0.9957444667816162,
        -1.0,
        -0.9957444667816162
      ],
      "type": "VEC3"
    },
    {
      "bufferView": 3,
      "byteOffset": 117520,
      "componentType": 5126,
      "count": 323,
      "max": [
        0.9977079033851624,
        1.0,
        1.0,
        1.0
      ],
      "min": [
        -0.9999331831932068,
        -1.0,
        -1.0,
        -1.0
      ],
      "type": "VEC4"
    },
    {
      "bufferView": 1,
      "byteOffset": 117520,
      "componentType": 5126,
      "count": 323,
      "max": [
        0.9156589508056641,
        0.6647781133651733
      ],
      "min": [
        0.0014530420303344727,
        0.04572411626577377
      ],
      "type": "VEC2"
    },
    {
      "bufferView": 1,
      "byteOffset": 120104,
      "componentType": 5126,
      "count": 323,
      "max": [
        0.9156589508056641,
        0.6647781133651733
      ],
      "min": [
        0.0014530420303344727,
        0.04572411626577377
      ],
      "type": "VEC2"
    },
    {
      "bufferView": 0,
      "byteOffset": 103128,
      "componentType": 5125,
      "count": 1080,
      "type": "SCALAR"
    },
    {
      "bufferView": 2,
      "byteOffset": 184032,
      "componentType": 5126,
      "count": 388,
      "max": [
        41.03114700317383,
        77.7491683959961,
        31.794849395751953
      ],
      "min": [
        11.32590103149414,
        72.27140808105469,
        4.844933986663818
      ],
      "type": "VEC3"
    },
    {
      "bufferView": 2,
      "byteOffset": 188688,
      "componentType": 5126,
      "count": 388,
      "max": [
        0.879920482635498,
        1.0,
        0.888845682144165
      ],
      "min": [
        -0.8888415694236755,
        -1.0,
        -0.8888437747955322
      ],
      "type": "VEC3"
    },
    {
      "bufferView": 3,
      "byteOffset": 122688,
      "componentType": 5126,
      "count": 388,
      "max": [
        0.8953951001167297,
        1.0,
        0.6008365154266357,
        1.0
      ],
      "min": [
        -0.8915902376174927,
        -1.0,
        -0.6008554697036743,
        -1.0
      ],
      "type": "VEC4"
    },
    {
      "bufferView": 1,
      "byteOffset": 122688,
      "componentType": 5126,
      "count": 388,
      "max": [
        0.825901985168457,
        0.999215304851532
      ],
      "min": [
        0.0005950778722763062,
        0.032656822353601456
      ],
      "type": "VEC2"
    },
    {
      "bufferView": 0,
      "byteOffset": 107448,
      "componentType": 5125,
      "count": 918,
      "type": "SCALAR"
    },
    {
      "bufferView": 2,
      "byteOffset": 193344,
      "componentType": 5126,
      "count": 96,
      "max": [
        68.79078674316406,
        78.3650131225586,
        -4.289711952209473
      ],
      "min": [
        46.075469970703125,
        75.21702575683594,
        -25.231792449951172
      ],
      "type": "VEC3"
    },
    {
      "bufferView": 2,
      "byteOffset": 194496,
      "componentType": 5126,
      "count": 96,
      "max": [
        0.8693124651908875,
        1.0,
        0.8693119287490845
      ],
      "min": [
        -0.8693121671676636,
        -1.0,
        -0.8693118095397949
      ],
      "type": "VEC3"
    },
    {
      "bufferView": 3,
      "byteOffset": 128896,
      "componentType": 5126,
      "count": 96,
      "max": [
        0.5069993138313293,
        1.0,
        0.8725490570068359,
        1.0
      ],
      "min": [
        -0.49981528520584106,
        -1.0,
        -0.8764881491661072,
        -1.0
      ],
      "type": "VEC4"
    },
    {
      "bufferView": 1,
      "byteOffset": 125792,
      "componentType": 5126,
      "count": 96,
      "max": [
        0.6679360866546631,
        0.41479215025901794
      ],
      "min": [
        0.33196213841438293,
        0.03290605545043945
      ],
      "type": "VEC2"
    },
    {
      "bufferView": 0,
      "byteOffset": 111120,
      "componentType": 5125,
      "count": 198,
      "type": "SCALAR"
    },
    {
      "bufferView": 2,
      "byteOffset": 195648,
      "componentType": 5126,
      "count": 768,
      "max": [
        20.28997802734375,
        88.466796875,
        7.70425271987915
      ],
      "min": [
        -3.563028335571289,
        72.28042602539063,
        -15.861858367919922
      ],
      "type": "VEC3"
    },
    {
      "bufferView": 2,
      "byteOffset": 204864,
      "componentType": 5126,
      "count": 768,
      "max": [
        0.9997806549072266,
        1.0,
        0.9957444667816162
      ],
      "min": [
        -0.9957444667816162,
        -1.0,
        -0.9997823238372803
      ],
      "type": "VEC3"
    },
    {
      "bufferView": 3,
      "byteOffset": 130432,
      "componentType": 5126,
      "count": 768,
      "max": [
        0.9997814297676086,
        1.0,
        0.9997807145118713,
        1.0
      ],
      "min": [
        -0.999276340007782,
        -1.0,
        -0.9992942214012146,
        -1.0
      ],
      "type": "VEC4"
    },
    {
      "bufferView": 1,
      "byteOffset": 126560,
      "componentType": 5126,
      "count": 768,
      "max": [
        0.999801516532898,
        1.000427007675171
      ],
      "min": [
        0.0015812532510608435,
        0.03290605545043945
      ],
      "type": "VEC2"
    },
    {
      "bufferView": 0,
      "byteOffset": 111912,
      "componentType": 5125,
      "count": 1932,
      "type": "SCALAR"
    },
    {
      "bufferView": 2,
      "byteOffset": 214080,
      "componentType": 5126,
      "count": 448,
      "max": [
        65.93568420410156,
        83.14839172363281,
        28.296302795410156
      ],
      "min": [
        41.50313186645508,
        71.93756866455078,
        2.7462778091430664
      ],
      "type": "VEC3"
    },
    {
      "bufferView": 2,
      "byteOffset": 219456,
      "componentType": 5126,
      "count": 448,
      "max": [
        0.9648370146751404,
        1.0,
        0.9648371934890747
      ],
      "min": [
        -0.9648373126983643,
        -1.0,
        -0.9648375511169434
      ],
      "type": "VEC3"
    },
    {
      "bufferView": 3,
      "byteOffset": 142720,
      "componentType": 5126,
      "count": 448,
      "max": [
        0.9663408398628235,
        1.0,
        0.8171325922012329,
        1.0
      ],
      "min": [
        -0.9684902429580688,
        -1.0,
        -0.8172646760940552,
        -1.0
      ],
      "type": "VEC4"
    },
    {
      "bufferView": 1,
      "byteOffset": 132704,
      "componentType": 5126,
      "count": 448,
      "max": [
        0.999801516532898,
        1.000427007675171
      ],
      "min": [
        0.33101147413253784,
        0.03290605545043945
      ],
      "type": "VEC2"
    },
    {
      "bufferView": 0,
      "byteOffset": 119640,
      "componentType": 5125,
      "count": 1032,
      "type": "SCALAR"
    },
    {
      "bufferView": 2,
      "byteOffset": 224832,
      "componentType": 5126,
      "count": 396,
      "max": [
        46.49053192138672,
        78.87069702148438,
        6.678642272949219
      ],
      "min": [
        23.734325408935547,
        72.28042602539063,
        -14.40585708618164
      ],
      "type": "VEC3"
    },
    {
      "bufferView": 2,
      "byteOffset": 229584,
      "componentType": 5126,
      "count": 396,
      "max": [
        0.9957444667816162,
        1.0,
        0.9957444667816162
      ],
      "min": [
        -0.9957444667816162,
        -1.0,
        -0.9957444071769714
      ],
      "type": "VEC3"
    },
    {
      "bufferView": 3,
      "byteOffset": 149888,
      "componentType": 5126,
      "count": 396,
      "max": [
        0.8440037369728088,
        1.0,
        0.9999498724937439,
        1.0
      ],
      "min": [
        -0.8444154262542725,
        -1.0,
        -0.9998748898506165,
        -1.0
      ],
      "type": "VEC4"
    },
    {
      "bufferView": 1,
      "byteOffset": 136288,
      "componentType": 5126,
      "count": 396,
      "max": [
        0.9965162873268127,
        0.7098206877708435
      ],
      "min": [
        0.0015812532510608435,
        0.03290605545043945
      ],
      "type": "VEC2"
    },
    {
      "bufferView": 0,
      "byteOffset": 123768,
      "componentType": 5125,
      "count": 1026,
      "type": "SCALAR"
    },
    {
      "bufferView": 2,
      "byteOffset": 234336,
      "componentType": 5126,
      "count": 148,
      "max": [
        68.21954345703125,
        75.22959899902344,
        -2.0402679443359375
      ],
      "min": [
        45.499324798583984,
        72.08161163330078,
        -25.038087844848633
      ],
      "type": "VEC3"
    },
    {
      "bufferView": 2,
      "byteOffset": 236112,
      "componentType": 5126,
      "count": 148,
      "max": [
        0.7380512952804565,
        1.0,
        0.7380594611167908
      ],
      "min": [
        -0.7306438684463501,
        -1.0,
        -0.7380529046058655
      ],
      "type": "VEC3"
    },
    {
      "bufferView": 3,
      "byteOffset": 156224,
      "componentType": 5126,
      "count": 148,
      "max": [
        0.7477629780769348,
        1.0,
        0.6791936755180359,
        1.0
      ],
      "min": [
        -0.7419663071632385,
        -1.0,
        -0.6853804588317871,
        -1.0
      ],
      "type": "VEC4"
    },
    {
      "bufferView": 1,
      "byteOffset": 139456,
      "componentType": 5126,
      "count": 148,
      "max": [
        0.5331934094429016,
        0.41691944003105164
      ],
      "min": [
        0.0033727597910910845,
        0.03290605545043945
      ],
      "type": "VEC2"
    },
    {
      "bufferView": 0,
      "byteOffset": 127872,
      "componentType": 5125,
      "count": 390,
      "type": "SCALAR"
    },
    {
      "bufferView": 2,
      "byteOffset": 237888,
      "componentType": 5126,
      "count": 301,
      "max": [
        -29.970396041870117,
        75.97177124023438,
        17.556461334228516
      ],
      "min": [
        -59.67198181152344,
        71.6458740234375,
        -11.613971710205078
      ],
      "type": "VEC3"
    },
    {
      "bufferView": 2,
      "byteOffset": 241500,
      "componentType": 5126,
      "count": 301,
      "max": [
        0.7438095211982727,
        1.0,
        0.7455524802207947
      ],
      "min": [
        -0.7438094615936279,
        -1.0,
        -0.7455524206161499
      ],
      "type": "VEC3"
    },
    {
      "bufferView": 3,
      "byteOffset": 158592,
      "componentType": 5126,
      "count": 301,
      "max": [
        0.7438101768493652,
        1.0,
        0.6685922741889954,
        1.0
      ],
      "min": [
        -0.7602304220199585,
        -1.0,
        -0.668392539024353,
        -1.0
      ],
      "type": "VEC4"
    },
    {
      "bufferView": 1,
      "byteOffset": 140640,
      "componentType": 5126,
      "count": 301,
      "max": [
        0.825901985168457,
        0.9977012872695923
      ],
      "min": [
        0.0005950778722763062,
        0.032656822353601456
      ],
      "type": "VEC2"
    },
    {
      "bufferView": 0,
      "byteOffset": 129432,
      "componentType": 5125,
      "count": 768,
      "type": "SCALAR"
    },
    {
      "bufferView": 2,
      "byteOffset": 245112,
      "componentType": 5126,
      "count": 396,
      "max": [
        -44.21685028076172,
        78.87069702148438,
        34.612674713134766
      ],
      "min": [
        -67.07415771484375,
        72.28042602539063,
        12.406567573547363
      ],
      "type": "VEC3"
    },
    {
      "bufferView": 2,
      "byteOffset": 249864,
      "componentType": 5126,
      "count": 396,
      "max": [
        0.9860371351242065,
        1.0,
        0.9634001851081848
      ],
      "min": [
        -0.9695441722869873,
        -1.0,
        -0.9860208034515381
      ],
      "type": "VEC3"
    },
    {
      "bufferView": 3,
      "byteOffset": 163408,
      "componentType": 5126,
      "count": 396,
      "max": [
        0.9747294783592224,
        1.0,
        0.9899330139160156,
        1.0
      ],
      "min": [
        -0.9742367267608643,
        -1.0,
        -0.9899234771728516,
        -1.0
      ],
      "type": "VEC4"
    },
    {
      "bufferView": 1,
      "byteOffset": 143048,
      "componentType": 5126,
      "count": 396,
      "max": [
        0.9965162873268127,
        0.7098206877708435
      ],
      "min": [
        0.0015812532510608435,
        0.03290605545043945
      ],
      "type": "VEC2"
    },
    {
      "bufferView": 0,
      "byteOffset": 132504,
      "componentType": 5125,
      "count": 1026,
      "type": "SCALAR"
    },
    {
      "bufferView": 2,
      "byteOffset": 254616,
      "componentType": 5126,
      "count": 828,
      "max": [
        23.730422973632813,
        98.3977279663086,
        26.4686336517334
      ],
      "min": [
        -23.730419158935547,
        0.0028937051538378,
        -27.451324462890625
      ],
      "type": "VEC3"
    },
    {
      "bufferView": 2,
      "byteOffset": 264552,
      "componentType": 5126,
      "count": 828,
      "max": [
        1.0,
        1.0,
        1.0
      ],
      "min": [
        -1.0,
        -1.0,
        -1.0
      ],
      "type": "VEC3"
    },
    {
      "bufferView": 1,
      "byteOffset": 146216,
      "componentType": 5126,
      "count": 828,
      "max": [
        1.0,
        1.0
      ],
      "min": [
        0.0,
        -0.0025260248221457005
      ],
      "type": "VEC2"
    },
    {
      "bufferView": 0,
      "byteOffset": 136608,
      "componentType": 5125,
      "count": 1662,
      "type": "SCALAR"
    },
    {
      "bufferView": 2,
      "byteOffset": 274488,
      "componentType": 5126,
      "count": 841,
      "max": [
        16.24615478515625,
        29.186561584472656,
        29.168527603149414
      ],
      "min": [
        -16.246156692504883,
        10.296565055847168,
        -26.73692512512207
      ],
      "type": "VEC3"
    },
    {
      "bufferView": 2,
      "byteOffset": 284580,
      "componentType": 5126,
      "count": 841,
      "max": [
        1.0,
        1.0,
        1.0
      ],
      "min": [
        -1.0,
        -1.0,
        -1.0
      ],
      "type": "VEC3"
    },
    {
      "bufferView": 1,
      "byteOffset": 152840,
      "componentType": 5126,
      "count": 841,
      "max": [
        1.0,
        0.9975088834762573
      ],
      "min": [
        0.0021434128284454346,
        -0.0025260248221457005
      ],
      "type": "VEC2"
    },
    {
      "bufferView": 0,
      "byteOffset": 143256,
      "componentType": 5125,
      "count": 2664,
      "type": "SCALAR"
    },
    {
      "bufferView": 2,
      "byteOffset": 294672,
      "componentType": 5126,
      "count": 821,
      "max": [
        16.24615478515625,
        48.24177169799805,
        29.168527603149414
      ],
      "min": [
        -16.246156692504883,
        29.351776123046875,
        -26.73692512512207
      ],
      "type": "VEC3"
    },
    {
      "bufferView": 2,
      "byteOffset": 304524,
      "componentType": 5126,
      "count": 821,
      "max": [
        1.0,
        1.0,
        1.0
      ],
      "min": [
        -1.0,
        -1.0,
        -1.0
      ],
      "type": "VEC3"
    },
    {
      "bufferView": 1,
      "byteOffset": 159568,
      "componentType": 5126,
      "count": 821,
      "max": [
        1.0,
        0.9975088834762573
      ],
      "min": [
        0.0021434128284454346,
        -0.0025260248221457005
      ],
      "type": "VEC2"
    },
    {
      "bufferView": 0,
      "byteOffset": 153912,
      "componentType": 5125,
      "count": 2634,
      "type": "SCALAR"
    },
    {
      "bufferView": 2,
      "byteOffset": 314376,
      "componentType": 5126,
      "count": 841,
      "max": [
        16.24615478515625,
        67.41270446777344,
        29.168527603149414
      ],
      "min": [
        -16.246156692504883,
        48.52271270751953,
        -26.73692512512207
      ],
      "type": "VEC3"
    },
    {
      "bufferView": 2,
      "byteOffset": 324468,
      "componentType": 5126,
      "count": 841,
      "max": [
        1.0,
        1.0,
        1.0
      ],
      "min": [
        -1.0,
        -1.0,
        -1.0
      ],
      "type": "VEC3"
    },
    {
      "bufferView": 1,
      "byteOffset": 166136,
      "componentType": 5126,
      "count": 841,
      "max": [
        1.0,
        0.9975088834762573
      ],
      "min": [
        0.0021434128284454346,
        -0.0025260248221457005
      ],
      "type": "VEC2"
    },
    {
      "bufferView": 0,
      "byteOffset": 164448,
      "componentType": 5125,
      "count": 2664,
      "type": "SCALAR"
    },
    {
      "bufferView": 2,
      "byteOffset": 334560,
      "componentType": 5126,
      "count": 841,
      "max": [
        16.24615478515625,
        86.89605712890625,
        29.168527603149414
      ],
      "min": [
        -16.246156692504883,
        68.00605773925781,
        -26.73692512512207
      ],
      "type": "VEC3"
    },
    {
      "bufferView": 2,
      "byteOffset": 344652,
      "componentType": 5126,
      "count": 841,
      "max": [
        1.0,
        1.0,
        1.0
      ],
      "min": [
        -1.0,
        -1.0,
        -1.0
      ],
      "type": "VEC3"
    },
    {
      "bufferView": 1,
      "byteOffset": 172864,
      "componentType": 5126,
      "count": 841,
      "max": [
        1.0,
        0.9975088834762573
      ],
      "min": [
        0.0021434128284454346,
        -0.0025260248221457005
      ],
      "type": "VEC2"
    },
    {
      "bufferView": 0,
      "byteOffset": 175104,
      "componentType": 5125,
      "count": 2664,
      "type": "SCALAR"
    },
    {
      "bufferView": 2,
      "byteOffset": 354744,
      "componentType": 5126,
      "count": 4685,
      "max": [
        9.730411529541016,
        38.66047286987305,
        9.530508041381836
      ],
      "min": [
        -10.1174955368042,
        2.4437904357910156e-06,
        -9.53050422668457
      ],
      "type": "VEC3"
    },
    {
      "bufferView": 2,
      "byteOffset": 410964,
      "componentType": 5126,
      "count": 4685,
      "max": [
        1.0,
        1.0,
        1.0
      ],
      "min": [
        -1.0,
        -1.0,
        -1.0
      ],
      "type": "VEC3"
    },
    {
      "bufferView": 3,
      "byteOffset": 169744,
      "componentType": 5126,
      "count": 4685,
      "max": [
        1.0,
        0.9997873306274414,
        1.0,
        1.0
      ],
      "min": [
        -1.0,
        -0.9999090433120728,
        -1.0,
        -1.0
      ],
      "type": "VEC4"
    },
    {
      "bufferView": 1,
      "byteOffset": 179592,
      "componentType": 5126,
      "count": 4685,
      "max": [
        1.7428019046783447,
        1.3394601345062256
      ],
      "min": [
        0.0063661932945251465,
        -0.03971204161643982
      ],
      "type": "VEC2"
    },
    {
      "bufferView": 0,
      "byteOffset": 185760,
      "componentType": 5125,
      "count": 21576,
      "type": "SCALAR"
    },
    {
      "bufferView": 2,
      "byteOffset": 467184,
      "componentType": 5126,
      "count": 202,
      "max": [
        5.457287788391113,
        24.608448028564453,
        5.457289218902588
      ],
      "min": [
        -5.457287788391113,
        10.585624694824219,
        -5.457289218902588
      ],
      "type": "VEC3"
    },
    {
      "bufferView": 2,
      "byteOffset": 469608,
      "componentType": 5126,
      "count": 202,
      "max": [
        0.9997189044952393,
        0.9537736773490906,
        0.999718964099884
      ],
      "min": [
        -0.9997189044952393,
        -0.9603158235549927,
        -0.999718964099884
      ],
      "type": "VEC3"
    },
    {
      "bufferView": 3,
      "byteOffset": 244704,
      "componentType": 5126,
      "count": 202,
      "max": [
        0.9997079968452454,
        0.2251252830028534,
        0.9999998807907104,
        1.0
      ],
      "min": [
        -0.9999979138374329,
        -0.20613357424736023,
        -0.9999910593032837,
        1.0
      ],
      "type": "VEC4"
    },
    {
      "bufferView": 1,
      "byteOffset": 217072,
      "componentType": 5126,
      "count": 202,
      "max": [
        0.9921875,
        0.9952566027641296
      ],
      "min": [
        0.0078125,
        0.003004401922225952
      ],
      "type": "VEC2"
    },
    {
      "bufferView": 1,
      "byteOffset": 218688,
      "componentType": 5126,
      "count": 202,
      "max": [
        0.9921875,
        0.9952566027641296
      ],
      "min": [
        0.0078125,
        0.003004401922225952
      ],
      "type": "VEC2"
    },
    {
      "bufferView": 0,
      "byteOffset": 272064,
      "componentType": 5125,
      "count": 1080,
      "type": "SCALAR"
    },
    {
      "bufferView": 2,
      "byteOffset": 472032,
      "componentType": 5126,
      "count": 16,
      "max": [
        1.6776087284088135,
        17.582162857055664,
        1.6767654418945313
      ],
      "min": [
        -1.6897529363632202,
        11.427895545959473,
        -1.6814696788787842
      ],
      "type": "VEC3"
    },
    {
      "bufferView": 2,
      "byteOffset": 472224,
      "componentType": 5126,
      "count": 16,
      "max": [
        0.9997637271881104,
        0.0,
        0.9976805448532104
      ],
      "min": [
        -0.9997637271881104,
        0.0,
        -0.9976804852485657
      ],
      "type": "VEC3"
    },
    {
      "bufferView": 1,
      "byteOffset": 220304,
      "componentType": 5126,
      "count": 16,
      "max": [
        1.0,
        1.0
      ],
      "min": [
        0.0,
        0.0
      ],
      "type": "VEC2"
    },
    {
      "bufferView": 1,
      "byteOffset": 220432,
      "componentType": 5126,
      "count": 16,
      "max": [
        1.0,
        1.0
      ],
      "min": [
        0.0,
        0.0
      ],
      "type": "VEC2"
    },
    {
      "bufferView": 0,
      "byteOffset": 276384,
      "componentType": 5125,
      "count": 24,
      "type": "SCALAR"
    }
  ],
  "asset": {
    "extras": {
      "author": "aruspice (https://sketchfab.com/vtomioka)",
      "license": "CC-BY-4.0 (http://creativecommons.org/licenses/by/4.0/)",
      "source": "https://sketchfab.com/3d-models/office-furniture-f9c0edf8861f4051b40d23f9a9c48754",
      "title": "Office Furniture"
    },
    "generator": "Sketchfab-16.82.0",
    "version": "2.0"
  },
  "bufferViews": [
    {
      "buffer": 0,
      "byteLength": 276480,
      "name": "floatBufferViews",
      "target": 34963
    },
    {
      "buffer": 0,
      "byteLength": 220560,
      "byteOffset": 276480,
      "byteStride": 8,
      "name": "floatBufferViews",
      "target": 34962
    },
    {
      "buffer": 0,
      "byteLength": 472416,
      "byteOffset": 497040,
      "byteStride": 12,
      "name": "floatBufferViews",
      "target": 34962
    },
    {
      "buffer": 0,
      "byteLength": 247936,
      "byteOffset": 969456,
      "byteStride": 16,
      "name": "floatBufferViews",
      "target": 34962
    }
  ],
  "buffers": [
    {
      "byteLength": 1217392,
      "uri": "scene.bin"
    }
  ],
  "extensionsUsed": [
    "KHR_materials_clearcoat",
    "KHR_materials_transmission",
    "KHR_materials_emissive_strength"
  ],
  "images": [
    {
      "uri": "mat_desk_wood_baseColor.png"
    },
    {
      "uri": "mat_desk_wood_metallicRoughness.png"
    },
    {
      "uri": "mat_desk_wood_normal.png"
    },
    {
      "uri": "mat_books_baseColor.png"
    },
    {
      "uri": "mat_books_metallicRoughness.png"
    },
    {
      "uri": "mat_books_normal.png"
    },
    {
      "uri": "mat_cabinets_baseColor.png"
    },
    {
      "uri": "mat_cabinets_metallicRoughness.png"
    },
    {
      "uri": "mat_oillamp_opaque_baseColor.png"
    },
    {
      "uri": "mat_oillamp_opaque_metallicRoughness.png"
    },
    {
      "uri": "mat_oillamp_opaque_normal.png"
    },
    {
      "uri": "mat_oillamp_transp_baseColor.png"
    },
    {
      "uri": "mat_oillamp_transp_metallicRoughness.png"
    },
    {
      "uri": "mat_oillamp_transp_normal.png"
    },
    {
      "uri": "mat_oillamp_transp_transmission.png"
    },
    {
      "uri": "mat_lantern_flame_baseColor.png"
    },
    {
      "uri": "mat_lantern_flame_emissive.png"
    }
  ],
  "materials": [
    {
      "doubleSided": true,
      "name": "mat_desk_wood",
      "normalTexture": {
        "index": 2
      },
      "pbrMetallicRoughness": {
        "baseColorTexture": {
          "index": 0
        },
        "metallicRoughnessTexture": {
          "index": 1
        }
      }
    },
    {
      "doubleSided": true,
      "name": "mat_books",
      "normalTexture": {
        "index": 5
      },
      "pbrMetallicRoughness": {
        "baseColorTexture": {
          "index": 3
        },
        "metallicRoughnessTexture": {
          "index": 4
        }
      }
    },
    {
      "doubleSided": true,
      "name": "mat_cabinets",
      "pbrMetallicRoughness": {
        "baseColorTexture": {
          "index": 6
        },
        "metallicRoughnessTexture": {
          "index": 7
        }
      }
    },
    {
      "doubleSided": true,
      "name": "mat_oillamp_opaque",
      "normalTexture": {
        "index": 10
      },
      "pbrMetallicRoughness": {
        "baseColorTexture": {
          "index": 8
        },
        "metallicRoughnessTexture": {
          "index": 9
        }
      }
    },
    {
      "alphaMode": "BLEND",
      "doubleSided": true,
      "extensions": {
        "KHR_materials_clearcoat": {
          "clearcoatFactor": 1.0,
          "clearcoatRoughnessFactor": 0.19352439931245502
        },
        "KHR_materials_transmission": {
          "transmissionFactor": 1.0,
          "transmissionTexture": {
            "index": 14
          }
        }
      },
      "name": "mat_oillamp_transp",
      "normalTexture": {
        "index": 13
      },
      "pbrMetallicRoughness": {
        "baseColorFactor": [
          0.6501962246873774,
          0.7446838383064761,
          0.8193024440314856,
          1.0
        ],
        "baseColorTexture": {
          "index": 11
        },
        "metallicFactor": 0.0,
        "metallicRoughnessTexture": {
          "index": 12
        }
      }
    },
    {
      "alphaMode": "BLEND",
      "doubleSided": true,
      "emissiveFactor": [
        1.0,
        1.0,
        1.0
      ],
      "emissiveTexture": {
        "index": 16
      },
      "extensions": {
        "KHR_materials_emissive_strength": {
          "emissiveStrength": 2.2400068266874715
        }
      },
      "name": "mat_lantern_flame",
      "pbrMetallicRoughness": {
        "baseColorTexture": {
          "index": 15
        },
        "metallicFactor": 0.0,
        "roughnessFactor": 0.7919104274856091
      }
    }
  ],
  "meshes": [
    {
      "name": "desk_wooden1_mat_desk_wood_0",
      "primitives": [
        {
          "attributes": {
            "NORMAL": 1,
            "POSITION": 0,
            "TANGENT": 2,
            "TEXCOORD_0": 3,
            "TEXCOORD_1": 4
          },
          "indices": 5,
          "material": 0,
          "mode": 4
        }
      ]
    },
    {
      "name": "desk_wooden1_drawer4_mat_desk_wood_0",
      "primitives": [
        {
          "attributes": {
            "NORMAL": 7,
            "POSITION": 6,
            "TANGENT": 8,
            "TEXCOORD_0": 9,
            "TEXCOORD_1": 10
          },
          "indices": 11,
          "material": 0,
          "mode": 4
        }
      ]
    },
    {
      "name": "desk_wooden1_drawer2_mat_desk_wood_0",
      "primitives": [
        {
          "attributes": {
            "NORMAL": 13,
            "POSITION": 12,
            "TANGENT": 14,
            "TEXCOORD_0": 15,
            "TEXCOORD_1": 16
          },
          "indices": 17,
          "material": 0,
          "mode": 4
        }
      ]
    },
    {
      "name": "desk_wooden1_drawer1_mat_desk_wood_0",
      "primitives": [
        {
          "attributes": {
            "NORMAL": 19,
            "POSITION": 18,
            "TANGENT": 20,
            "TEXCOORD_0": 21,
            "TEXCOORD_1": 22
          },
          "indices": 23,
          "material": 0,
          "mode": 4
        }
      ]
    },
    {
      "name": "desk_wooden1_drawer3_mat_desk_wood_0",
      "primitives": [
        {
          "attributes": {
            "NORMAL": 25,
            "POSITION": 24,
            "TANGENT": 26,
            "TEXCOORD_0": 27,
            "TEXCOORD_1": 28
          },
          "indices": 29,
          "material": 0,
          "mode": 4
        }
      ]
    },
    {
      "name": "desk_wooden1_drawer5_mat_desk_wood_0",
      "primitives": [
        {
          "attributes": {
            "NORMAL": 31,
            "POSITION": 30,
            "TANGENT": 32,
            "TEXCOORD_0": 33,
            "TEXCOORD_1": 34
          },
          "indices": 35,
          "material": 0,
          "mode": 4
        }
      ]
    },
    {
      "name": "desk_wooden1_drawer6_mat_desk_wood_0",
      "primitives": [
        {
          "attributes": {
            "NORMAL": 37,
            "POSITION": 36,
            "TANGENT": 38,
            "TEXCOORD_0": 39,
            "TEXCOORD_1": 40
          },
          "indices": 41,
          "material": 0,
          "mode": 4
        }
      ]
    },
    {
      "name": "desk_wooden1_drawer7_mat_desk_wood_0",
      "primitives": [
        {
          "attributes": {
            "NORMAL": 43,
            "POSITION": 42,
            "TANGENT": 44,
            "TEXCOORD_0": 45,
            "TEXCOORD_1": 46
          },
          "indices": 47,
          "material": 0,
          "mode": 4
        }
      ]
    },
    {
      "name": "desk_wooden1_drawer8_mat_desk_wood_0",
      "primitives": [
        {
          "attributes": {
            "NORMAL": 49,
            "POSITION": 48,
            "TANGENT": 50,
            "TEXCOORD_0": 51,
            "TEXCOORD_1": 52
          },
          "indices": 53,
          "material": 0,
          "mode": 4
        }
      ]
    },
    {
      "name": "desk_wooden1_drawer9_mat_desk_wood_0",
      "primitives": [
        {
          "attributes": {
            "NORMAL": 55,
            "POSITION": 54,
            "TANGENT": 56,
            "TEXCOORD_0": 57,
            "TEXCOORD_1": 58
          },
          "indices": 59,
          "material": 0,
          "mode": 4
        }
      ]
    },
    {
      "name": "bookstack3_mat_books_0",
      "primitives": [
        {
          "attributes": {
            "NORMAL": 61,
            "POSITION": 60,
            "TANGENT": 62,
            "TEXCOORD_0": 63
          },
          "indices": 64,
          "material": 1,
          "mode": 4
        }
      ]
    },
    {
      "name": "book2_mat_books_0",
      "primitives": [
        {
          "attributes": {
            "NORMAL": 66,
            "POSITION": 65,
            "TANGENT": 67,
            "TEXCOORD_0": 68
          },
          "indices": 69,
          "material": 1,
          "mode": 4
        }
      ]
    },
    {
      "name": "bookstack4_mat_books_0",
      "primitives": [
        {
          "attributes": {
            "NORMAL": 71,
            "POSITION": 70,
            "TANGENT": 72,
            "TEXCOORD_0": 73
          },
          "indices": 74,
          "material": 1,
          "mode": 4
        }
      ]
    },
    {
      "name": "bookstack2_mat_books_0",
      "primitives": [
        {
          "attributes": {
            "NORMAL": 76,
            "POSITION": 75,
            "TANGENT": 77,
            "TEXCOORD_0": 78
          },
          "indices": 79,
          "material": 1,
          "mode": 4
        }
      ]
    },
    {
      "name": "bookstack1_mat_books_0",
      "primitives": [
        {
          "attributes": {
            "NORMAL": 81,
            "POSITION": 80,
            "TANGENT": 82,
            "TEXCOORD_0": 83
          },
          "indices": 84,
          "material": 1,
          "mode": 4
        }
      ]
    },
    {
      "name": "book1_mat_books_0",
      "primitives": [
        {
          "attributes": {
            "NORMAL": 86,
            "POSITION": 85,
            "TANGENT": 87,
            "TEXCOORD_0": 88
          },
          "indices": 89,
          "material": 1,
          "mode": 4
        }
      ]
    },
    {
      "name": "book_destroyed_mat_books_0",
      "primitives": [
        {
          "attributes": {
            "NORMAL": 91,
            "POSITION": 90,
            "TANGENT": 92,
            "TEXCOORD_0": 93
          },
          "indices": 94,
          "material": 1,
          "mode": 4
        }
      ]
    },
    {
      "name": "bookstack5_mat_books_0",
      "primitives": [
        {
          "attributes": {
            "NORMAL": 96,
            "POSITION": 95,
            "TANGENT": 97,
            "TEXCOORD_0": 98
          },
          "indices": 99,
          "material": 1,
          "mode": 4
        }
      ]
    },
    {
      "name": "cabinet_medium_mat_cabinets_0",
      "primitives": [
        {
          "attributes": {
            "NORMAL": 101,
            "POSITION": 100,
            "TEXCOORD_0": 102
          },
          "indices": 103,
          "material": 2,
          "mode": 4
        }
      ]
    },
    {
      "name": "cabinet_medium_drawer_4_mat_cabinets_0",
      "primitives": [
        {
          "attributes": {
            "NORMAL": 105,
            "POSITION": 104,
            "TEXCOORD_0": 106
          },
          "indices": 107,
          "material": 2,
          "mode": 4
        }
      ]
    },
    {
      "name": "cabinet_medium_drawer_3_mat_cabinets_0",
      "primitives": [
        {
          "attributes": {
            "NORMAL": 109,
            "POSITION": 108,
            "TEXCOORD_0": 110
          },
          "indices": 111,
          "material": 2,
          "mode": 4
        }
      ]
    },
    {
      "name": "cabinet_medium_drawer_2_mat_cabinets_0",
      "primitives": [
        {
          "attributes": {
            "NORMAL": 113,
            "POSITION": 112,
            "TEXCOORD_0": 114
          },
          "indices": 115,
          "material": 2,
          "mode": 4
        }
      ]
    },
    {
      "name": "cabinet_medium_drawer_1_mat_cabinets_0",
      "primitives": [
        {
          "attributes": {
            "NORMAL": 117,
            "POSITION": 116,
            "TEXCOORD_0": 118
          },
          "indices": 119,
          "material": 2,
          "mode": 4
        }
      ]
    },
    {
      "name": "hurricaneLamp_baseShape_mat_oillamp_opaque_0",
      "primitives": [
        {
          "attributes": {
            "NORMAL": 121,
            "POSITION": 120,
            "TANGENT": 122,
            "TEXCOORD_0": 123
          },
          "indices": 124,
          "material": 3,
          "mode": 4
        }
      ]
    },
    {
      "name": "hurricaneLamp_baseShape_mat_oillamp_transp_0",
      "primitives": [
        {
          "attributes": {
            "NORMAL": 126,
            "POSITION": 125,
            "TANGENT": 127,
            "TEXCOORD_0": 128,
            "TEXCOORD_1": 129
          },
          "indices": 130,
          "material": 4,
          "mode": 4
        }
      ]
    },
    {
      "name": "hurricaneLamp_baseShape_mat_lantern_flame_0",
      "primitives": [
        {
          "attributes": {
            "NORMAL": 132,
            "POSITION": 131,
            "TEXCOORD_0": 133,
            "TEXCOORD_1": 134
          },
          "indices": 135,
          "material": 5,
          "mode": 4
        }
      ]
    }
  ],
  "nodes": [
    {
      "children": [
        1
      ],
      "matrix": [
        1.0,
        0.0,
        0.0,
        0.0,
        0.0,
        2.220446049250313e-16,
        -1.0,
        0.0,
        0.0,
        1.0,
        2.220446049250313e-16,
        0.0,
        0.0,
        0.0,
        0.0,
        1.0
      ],
      "name": "Sketchfab_model"
    },
    {
      "children": [
        2
      ],
      "matrix": [
        1.0,
        0.0,
        0.0,
        0.0,
        0.0,
        0.0,
        1.0,
        0.0,
        0.0,
        -1.0,
        0.0,
        0.0,
        0.0,
        0.0,
        0.0,
        1.0
      ],
      "name": "6eef970e3ac94c7bb1cba72f2e74e21b.fbx"
    },
    {
      "children": [
        3,
        40
      ],
      "name": "RootNode"
    },
    {
      "children": [
        4,
        5,
        7,
        9,
        11,
        13,
        15,
        17,
        19,
        21,
        23
      ],
      "matrix": [
        0.009980834213418896,
        0.0,
        -0.0006188246390525354,
        0.0,
        0.0,
        0.009999999776482582,
        0.0,
        0.0,
        0.0006188246390525354,
        0.0,
        0.009980834213418896,
        0.0,
        0.0,
        0.0,
        0.0,
        1.0
      ],
      "name": "desk_wooden1"
    },
    {
      "mesh": 0,
      "name": "desk_wooden1_mat_desk_wood_0"
    },
    {
      "children": [
        6
      ],
      "matrix": [
        1.0,
        0.0,
        6.938893903907228e-18,
        0.0,
        0.0,
        1.0,
        0.0,
        0.0,
        -6.938893903907228e-18,
        0.0,
        1.0,
        0.0,
        0.0,
        0.0,
        0.0,
        1.0
      ],
      "name": "desk_wooden1_drawer4"
    },
    {
      "mesh": 1,
      "name": "desk_wooden1_drawer4_mat_desk_wood_0"
    },
    {
      "children": [
        8
      ],
      "matrix": [
        1.0,
        0.0,
        6.938893903907228e-18,
        0.0,
        0.0,
        1.0,
        0.0,
        0.0,
        -6.938893903907228e-18,
        0.0,
        1.0,
        0.0,
        0.0,
        0.0,
        0.0,
        1.0
      ],
      "name": "desk_wooden1_drawer2"
    },
    {
      "mesh": 2,
      "name": "desk_wooden1_drawer2_mat_desk_wood_0"
    },
    {
      "children": [
        10
      ],
      "matrix": [
        1.0,
        0.0,
        6.938893903907228e-18,
        0.0,
        0.0,
        1.0,
        0.0,
        0.0,
        -6.938893903907228e-18,
        0.0,
        1.0,
        0.0,
        0.0,
        0.0,
        0.0,
        1.0
      ],
      "name": "desk_wooden1_drawer1"
    },
    {
      "mesh": 3,
      "name": "desk_wooden1_drawer1_mat_desk_wood_0"
    },
    {
      "children": [
        12
      ],
      "matrix": [
        1.0,
        0.0,
        6.938893903907228e-18,
        0.0,
        0.0,
        1.0,
        0.0,
        0.0,
        -6.938893903907228e-18,
        0.0,
        1.0,
        0.0,
        0.0,
        0.0,
        0.0,
        1.0
      ],
      "name": "desk_wooden1_drawer3"
    },
    {
      "mesh": 4,
      "name": "desk_wooden1_drawer3_mat_desk_wood_0"
    },
    {
      "children": [
        14
      ],
      "matrix": [
        1.0,
        0.0,
        6.938893903907228e-18,
        0.0,
        0.0,
        1.0,
        0.0,
        0.0,
        -6.938893903907228e-18,
        0.0,
        1.0,
        0.0,
        0.0,
        0.0,
        0.0,
        1.0
      ],
      "name": "desk_wooden1_drawer5"
    },
    {
      "mesh": 5,
      "name": "desk_wooden1_drawer5_mat_desk_wood_0"
    },
    {
      "children": [
        16
      ],
      "matrix": [
        1.0,
        0.0,
        6.938893903907228e-18,
        0.0,
        0.0,
        1.0,
        0.0,
        0.0,
        -6.938893903907228e-18,
        0.0,
        1.0,
        0.0,
        0.0,
        0.0,
        0.0,
        1.0
      ],
      "name": "desk_wooden1_drawer6"
    },
    {
      "mesh": 6,
      "name": "desk_wooden1_drawer6_mat_desk_wood_0"
    },
    {
      "children": [
        18
      ],
      "matrix": [
        1.0,
        0.0,
        6.938893903907228e-18,
        0.0,
        0.0,
        1.0,
        0.0,
        0.0,
        -6.938893903907228e-18,
        0.0,
        1.0,
        0.0,
        0.0,
        0.0,
        0.0,
        1.0
      ],
      "name": "desk_wooden1_drawer7"
    },
    {
      "mesh": 7,
      "name": "desk_wooden1_drawer7_mat_desk_wood_0"
    },
    {
      "children": [
        20
      ],
      "matrix": [
        1.0,
        0.0,
        6.938893903907228e-18,
        0.0,
        0.0,
        1.0,
        0.0,
        0.0,
        -6.938893903907228e-18,
        0.0,
        1.0,
        0.0,
        0.0,
        0.0,
        0.0,
        1.0
      ],
      "name": "desk_wooden1_drawer8"
    },
    {
      "mesh": 8,
      "name": "desk_wooden1_drawer8_mat_desk_wood_0"
    },
    {
      "children": [
        22
      ],
      "matrix": [
        1.0,
        0.0,
        6.938893903907228e-18,
        0.0,
        0.0,
        1.0,
        0.0,
        0.0,
        -6.938893903907228e-18,
        0.0,
        1.0,
        0.0,
        0.0,
        0.0,
        0.0,
        1.0
      ],
      "name": "desk_wooden1_drawer9"
    },
    {
      "mesh": 9,
      "name": "desk_wooden1_drawer9_mat_desk_wood_0"
    },
    {
      "children": [
        24,
        26,
        28,
        30,
        32,
        34,
        36,
        38
      ],
      "matrix": [
        1.0,
        0.0,
        6.938893903907228e-18,
        0.0,
        0.0,
        1.0,
        0.0,
        0.0,
        -6.938893903907228e-18,
        0.0,
        1.0,
        0.0,
        0.0,
        0.0,
        0.0,
        1.0
      ],
      "name": "group1"
    },
    {
      "children": [
        25
      ],
      "name": "bookstack3"
    },
    {
      "mesh": 10,
      "name": "bookstack3_mat_books_0"
    },
    {
      "children": [
        27
      ],
      "name": "book2"
    },
    {
      "mesh": 11,
      "name": "book2_mat_books_0"
    },
    {
      "children": [
        29
      ],
      "name": "bookstack4"
    },
    {
      "mesh": 12,
      "name": "bookstack4_mat_books_0"
    },
    {
      "children": [
        31
      ],
      "name": "bookstack2"
    },
    {
      "mesh": 13,
      "name": "bookstack2_mat_books_0"
    },
    {
      "children": [
        33
      ],
      "name": "bookstack1"
    },
    {
      "mesh": 14,
      "name": "bookstack1_mat_books_0"
    },
    {
      "children": [
        35
      ],
      "name": "book1"
    },
    {
      "mesh": 15,
      "name": "book1_mat_books_0"
    },
    {
      "children": [
        37
      ],
      "name": "book_destroyed"
    },
    {
      "mesh": 16,
      "name": "book_destroyed_mat_books_0"
    },
    {
      "children": [
        39
      ],
      "name": "bookstack5"
    },
    {
      "mesh": 17,
      "name": "bookstack5_mat_books_0"
    },
    {
      "children": [
        41,
        42,
        44,
        46,
        48,
        50
      ],
      "matrix": [
        0.009762637212164067,
        0.0,
        0.0021658509166886603,
        0.0,
        0.0,
        0.009999999776482582,
        0.0,
        0.0,
        -0.0021658509166886603,
        0.0,
        0.009762637212164067,
        0.0,
        -1.163787841796875,
        0.0,
        -0.16420233249664307,
        1.0
      ],
      "name": "cabinet_medium"
    },
    {
      "mesh": 18,
      "name": "cabinet_medium_mat_cabinets_0"
    },
    {
      "children": [
        43
      ],
      "matrix": [
        1.0,
        0.0,
        8.326672684688677e-17,
        0.0,
        0.0,
        1.0,
        0.0,
        0.0,
        -8.326672684688677e-17,
        0.0,
        1.0,
        0.0,
        -2.842170943040401e-14,
        0.0,
        7.035937786102295,
        1.0
      ],
      "name": "cabinet_medium_drawer_4"
    },
    {
      "mesh": 19,
      "name": "cabinet_medium_drawer_4_mat_cabinets_0"
    },
    {
      "children": [
        45
      ],
      "matrix": [
        1.0,
        0.0,
        8.326672684688677e-17,
        0.0,
        0.0,
        1.0,
        0.0,
        0.0,
        -8.326672684688677e-17,
        0.0,
        1.0,
        0.0,
        0.0,
        0.0,
        0.8128372430801392,
        1.0
      ],
      "name": "cabinet_medium_drawer_3"
    },
    {
      "mesh": 20,
      "name": "cabinet_medium_drawer_3_mat_cabinets_0"
    },
    {
      "children": [
        47
      ],
      "matrix": [
        1.0,
        0.0,
        8.326672684688677e-17,
        0.0,
        0.0,
        1.0,
        0.0,
        0.0,
        -8.326672684688677e-17,
        0.0,
        1.0,
        0.0,
        -1.4210854715202004e-14,
        0.0,
        1.8891388177871704,
        1.0
      ],
      "name": "cabinet_medium_drawer_2"
    },
    {
      "mesh": 21,
      "name": "cabinet_medium_drawer_2_mat_cabinets_0"
    },
    {
      "children": [
        49
      ],
      "matrix": [
        1.0,
        0.0,
        8.326672684688677e-17,
        0.0,
        0.0,
        1.0,
        0.0,
        0.0,
        -8.326672684688677e-17,
        0.0,
        1.0,
        0.0,
        0.0,
        0.0,
        0.0,
        1.0
      ],
      "name": "cabinet_medium_drawer_1"
    },
    {
      "mesh": 22,
      "name": "cabinet_medium_drawer_1_mat_cabinets_0"
    },
    {
      "children": [
        51,
        52,
        53
      ],
      "matrix": [
        0.8077017437506951,
        0.0,
        0.5895912933058682,
        0.0,
        0.0,
        1.0,
        0.0,
        0.0,
        -0.5895912933058682,
        0.0,
        0.8077017437506951,
        0.0,
        12.618444442749023,
        98.18047332763672,
        16.171436309814453,
        1.0
      ],
      "name": "hurricaneLamp_baseShape"
    },
    {
      "mesh": 23,
      "name": "hurricaneLamp_baseShape_mat_oillamp_opaque_0"
    },
    {
      "mesh": 24,
      "name": "hurricaneLamp_baseShape_mat_oillamp_transp_0"
    },
    {
      "mesh": 25,
      "name": "hurricaneLamp_baseShape_mat_lantern_flame_0"
    }
  ],
  "samplers": [
    {
      "magFilter": 9729,
      "minFilter": 9987,
      "wrapS": 10497,
      "wrapT": 10497
    }
  ],
  "scene": 0,
  "scenes": [
    {
      "name": "Sketchfab_Scene",
      "nodes": [
        0
      ]
    }
  ],
  "textures": [
    {
      "sampler": 0,
      "source": 0
    },
    {
      "sampler": 0,
      "source": 1
    },
    {
      "sampler": 0,
      "source": 2
    },
    {
      "sampler": 0,
      "source": 3
    },
    {
      "sampler": 0,
      "source": 4
    },
    {
      "sampler": 0,
      "source": 5
    },
    {
      "sampler": 0,
      "source": 6
    },
    {
      "sampler": 0,
      "source": 7
    },
    {
      "sampler": 0,
      "source": 8
    },
    {
      "sampler": 0,
      "source": 9
    },
    {
      "sampler": 0,
      "source": 10
    },
    {
      "sampler": 0,
      "source": 11
    },
    {
      "sampler": 0,
      "source": 12
    },
    {
      "sampler": 0,
      "source": 13
    },
    {
      "sampler": 0,
      "source": 14
    },
    {
      "sampler": 0,
      "source": 15
    },
    {
      "sampler": 0,
      "source": 16
    }
  ]
}
