# Blender 5.1.2
# www.blender.org
mtllib carton_papel.mtl
o Object_2
v 0.590202 0.044215 0.351709
v 0.335653 1.186115 0.144387
v 0.065685 1.701918 -0.007679
v 0.479792 0.626525 0.283980
v 0.278552 1.177681 0.200473
v 0.649820 0.082673 0.431652
v 0.573881 0.064912 0.451530
v 0.004393 1.698410 0.075326
v 0.348321 0.599493 0.280852
v 0.155134 1.113855 0.074545
v -0.030831 1.667791 -0.022145
v 0.335047 0.572323 0.191392
v 0.496815 0.006833 0.315578
v 0.256481 1.134721 0.006961
v 0.063753 1.690618 -0.113368
v 0.606910 0.025285 0.257100
v 0.469683 0.594567 0.103058
v 0.157657 1.737368 -0.081811
v 0.328209 1.172790 0.039816
v 0.120819 1.734249 0.065734
v 0.807374 0.082426 0.177580
v 0.712011 0.044253 0.140685
v 0.251280 1.774142 -0.157013
v 0.415134 1.203996 -0.037239
v 0.541129 0.627014 0.145125
v 0.265430 1.148980 -0.068548
v 0.084521 1.701999 -0.250751
v 0.430377 0.586810 -0.039300
v 0.633009 0.008069 0.090256
v 0.292435 1.137698 -0.177848
v 0.187100 1.722941 -0.320117
v 0.728905 0.022362 0.038951
v 0.420842 1.176342 -0.197305
v 0.265797 1.759834 -0.260449
v 0.637918 0.628464 -0.051720
v 0.806965 0.061286 0.098163
v 0.461786 1.202070 -0.130852
v 0.623401 0.642772 0.051716
v 0.394309 1.449795 0.076051
v 0.863948 0.049905 0.349738
v 0.317990 1.429759 0.095956
v 0.467790 0.967321 0.187219
v 0.614670 0.505438 0.285457
v 0.732115 0.056553 0.374655
v 0.298371 1.402602 -0.002393
v 0.455421 0.938787 0.071554
v 0.602301 0.476904 0.169793
v 0.747222 0.032087 0.258788
v 0.410267 1.432169 -0.030680
v 0.856748 0.047364 0.259277
v 0.570972 0.982255 0.103161
v 0.717851 0.520371 0.201400
v -0.750104 0.338233 0.376298
v -0.723682 0.468069 0.608964
v -0.718817 0.478819 0.477880
v -0.723937 0.466248 0.377543
v -0.628081 0.479787 0.698108
v -0.638170 0.477807 0.382497
v -0.713429 0.471806 0.705703
v -1.766715 -0.000000 -0.654627
v -1.800702 -0.000000 -0.860729
v -1.348317 -0.000000 -1.066831
v -1.808779 -0.000000 -1.066831
v -1.802779 0.311706 -0.631400
v -1.348317 0.108327 -0.481813
v -1.348317 -0.000000 -0.454073
v -1.352658 0.106174 -1.065628
v -1.349786 0.265259 -0.454701
v -1.808279 0.108327 -0.457772
v -1.807328 0.265220 -1.063507
v -1.811975 0.322027 -1.071738
v -1.569700 0.317155 -1.054769
v -1.811975 0.322026 -0.443957
v -1.343867 0.322026 -0.443324
v -1.796214 0.108327 -0.860729
v -1.794757 0.248625 -0.623529
v -1.767944 0.108327 -0.654627
v -1.807328 0.265220 -0.465705
v -1.810778 -0.000000 -0.448525
v -1.369985 0.279599 -0.883867
v -1.798622 0.286474 -0.886157
v -1.579720 0.326302 -0.656626
v -1.563867 0.335706 -0.858304
v -1.376351 0.279003 -1.059490
v -1.555041 0.334012 -0.451194
v -1.375484 0.285869 -0.590719
v -0.170130 0.001579 0.955245
v -0.258914 0.254012 1.291019
v -0.392166 0.247678 1.288592
v -0.362968 0.132978 1.464091
v -0.347668 0.001996 0.981390
v -0.148772 0.132978 0.981390
v -0.349181 0.001008 1.142512
v -0.362968 0.132978 0.981390
v -0.254881 0.253146 1.151895
v -0.389498 0.249547 1.157184
v -0.349181 0.001008 1.303633
v -0.347668 0.001996 1.464756
v -0.164072 0.001044 1.142512
v -0.400001 0.132978 1.142512
v -0.164072 0.001044 1.303633
v -0.117540 0.241704 1.154802
v -0.118172 0.132978 1.142512
v -0.093329 0.242787 0.987258
v -0.164072 0.001785 1.450754
v -0.118172 0.132978 1.303634
v -0.400001 0.132978 1.303634
v -0.371446 0.247416 0.979431
v -0.120393 0.249680 1.283615
v -0.117238 0.249133 1.449561
v -0.247211 0.235813 0.989156
v -0.206323 0.184363 1.436432
v -0.353379 0.248282 1.466323
v -0.237526 0.253032 1.456092
v -0.054235 0.401724 1.071695
v 0.436278 0.000000 0.699849
v 0.311817 0.000000 0.535571
v -0.072075 0.504789 0.724923
v -0.428709 0.406284 0.579465
v 0.048965 0.606527 0.203626
v 0.161576 0.589184 0.367166
v -0.413421 0.000596 0.575533
v -0.209858 0.192463 0.671968
v -0.335642 0.197120 0.504498
v -0.220239 0.214206 0.427941
v 0.186351 -0.000495 0.371228
v -0.101384 0.000834 0.331475
v 0.062895 0.000000 0.207014
v -0.099268 0.618570 0.333712
v 0.102146 0.527222 0.943276
v -0.103599 0.192137 0.840044
v -0.289610 0.000744 0.732653
v 0.043757 0.299714 0.205785
v -0.040170 0.139208 1.017957
v -0.058962 0.000748 1.061508
v 0.080715 0.198692 0.917366
v -0.191171 0.396238 0.917931
v 0.438356 0.612315 0.700342
v 0.299148 0.615500 0.536316
v 0.272899 0.612248 0.820935
v 0.271951 0.307569 0.824078
v 0.271999 0.000503 0.824310
v -0.084093 0.199381 0.600404
v 0.014475 0.200058 0.770411
v -0.145000 0.521040 0.630174
v -0.312509 0.416728 0.750069
v -0.262828 0.506769 0.468429
v 0.146484 0.622214 0.654211
v -0.219438 0.398725 0.843827
v 0.019394 0.604351 0.493712
v -0.022007 0.537229 0.784793
v 0.221740 0.607712 0.460825
v 0.092226 0.598259 0.586302
v 0.795518 0.277877 0.720673
v 0.445383 0.311383 0.781413
v 0.577453 0.276899 0.613329
v 0.599537 0.403671 0.645636
v 0.759437 0.414742 0.678350
v 0.525485 0.417096 0.890457
v 0.522014 0.410630 0.763637
v 0.669834 0.408890 0.929075
v 0.678561 0.424733 0.743487
v 0.450313 0.412648 0.797102
v 0.648541 0.406702 0.579654
v 0.844997 0.407250 0.764134
v 0.602794 0.407557 0.977904
v 0.771294 0.405410 0.831542
v -0.909103 0.176669 0.113017
v -0.932134 0.000033 0.133813
v -0.427459 0.337617 0.588459
v -0.617517 0.309321 0.662020
v -1.164530 0.000033 0.397326
v -1.421839 0.000064 0.170368
v -0.531409 -0.007186 0.738580
v -0.655841 0.331419 0.362307
v -1.158976 0.322864 0.415817
v -0.789446 0.339383 0.495028
v -0.704710 0.328664 0.733924
v -1.194887 0.314526 -0.087409
v -0.674739 0.000033 0.360814
v -0.907135 0.000033 0.624327
v -1.312652 0.314278 0.051692
v -0.647766 -0.004890 0.865065
v -0.942416 0.325400 0.681121
v -1.187149 0.173984 -0.095805
v -0.539202 0.169582 0.731403
v -1.182362 0.176669 0.422865
v -0.880111 0.327937 0.073901
v -1.420243 0.176452 0.182938
v -0.660984 0.172285 0.862719
v -0.423162 0.177517 0.571104
v -0.542635 0.322536 0.746360
v -1.434002 0.316297 0.183434
v -1.339304 0.311995 0.247900
v -0.502656 0.314571 0.507662
v -0.659754 0.313423 0.876271
v -1.103743 0.309650 -0.020318
v 0.733649 0.236505 0.605388
v 0.814819 0.045800 0.713479
v 0.769185 0.000000 0.613697
v 0.707004 0.280992 0.817844
v 0.658697 0.125213 0.937542
v 0.657801 0.123080 0.614844
v 0.570102 0.030775 0.933317
v 0.564895 0.277353 0.834566
v 0.678849 0.289014 0.634588
v 0.631320 0.000019 0.714488
v 0.631488 0.000000 0.823132
v 0.628348 0.288331 0.952920
v 0.746224 0.233017 0.928236
v 0.769185 0.000000 0.933025
v 0.578624 0.270180 0.708016
v 0.537279 0.137985 0.713402
v 0.528341 0.093202 0.605138
v 0.539603 0.137778 0.823266
v 0.537321 0.255106 0.926374
v 0.811922 0.089713 0.927559
v 0.814974 0.045827 0.822942
v 0.807476 0.088941 0.606482
v 0.812590 0.268931 0.928056
v 0.811405 0.250243 0.822916
v 0.807884 0.268115 0.603735
v -0.967305 0.206102 -0.759128
v -0.967305 -0.000000 -0.759128
v 0.420230 -0.000000 -0.737024
v -0.965160 0.448755 -0.790795
v 0.420230 0.206102 -0.737024
v -0.045460 -0.000000 -1.180842
v 0.415463 0.207769 -1.102057
v 0.415463 -0.000000 -1.180842
v -0.043314 0.315274 -1.190826
v 0.417608 0.315274 -1.190826
v -0.967305 -0.000000 -1.180842
v -0.506382 0.208603 -1.132950
v -0.965160 0.315274 -1.190826
v -0.967305 0.207769 -1.102057
v 0.419890 0.602899 -0.990384
v -0.968412 0.636990 -0.852883
v 0.420651 0.502901 -1.254736
v -0.968412 0.502901 -1.254736
v 0.420651 0.636990 -0.852882
v -0.966261 0.575895 -1.085679
v 0.418395 0.574275 -1.085138
v 1.011385 0.248698 -0.721412
v 1.205507 0.044682 -0.808025
v 1.207226 0.042844 -0.705680
v 0.795036 0.253337 -1.023733
v 0.587299 0.047275 -0.716965
v 0.794581 -0.000000 -0.917401
v 0.999877 -0.000000 -0.807508
v 0.794581 -0.000000 -0.807508
v 0.998055 0.276107 -0.862657
v 0.590132 0.251054 -0.917429
v 0.589285 0.045899 -0.917401
v 0.794998 0.029537 -0.701465
v 1.002369 0.030237 -0.702034
v 1.205173 0.045899 -1.027295
v 0.999877 -0.000000 -0.917401
v 0.588705 0.244891 -1.027481
v 0.589285 0.045899 -1.027295
v 0.592900 0.229204 -0.807902
v 1.205771 0.250091 -1.027529
v 0.794581 0.030599 -1.027295
v 0.796834 0.216252 -0.723695
v 1.207762 0.256322 -0.808195
v 1.214822 0.208268 -0.730217
v 0.594741 0.284945 -0.876507
v 0.796578 0.276340 -0.884974
v 1.202636 0.259420 -0.887089
v 0.796586 0.275483 -0.754974
v 0.589889 0.275462 -0.726593
v 0.062579 0.206102 -0.140468
v -0.016580 0.338364 -0.260970
v 0.465837 0.539325 -0.641223
v 0.530985 0.587158 -0.548536
v 0.656535 -0.000000 -0.362453
v -0.140819 0.455309 -0.440074
v -0.091780 -0.000000 -0.375447
v 0.312092 0.539379 -0.537930
v 0.648807 0.414375 -0.374217
v 0.502177 0.206102 -0.597431
v 0.252738 -0.000000 -0.601762
v 0.017420 0.570265 -0.208476
v 0.425893 0.300359 -0.713557
v 0.396598 0.458598 -0.778996
v 0.253186 0.253230 -0.601081
v 0.077714 0.618690 -0.110313
v 0.216465 0.626571 -0.218907
v 0.139758 0.206102 -0.022980
v 0.139758 -0.000000 -0.022980
v 0.312016 0.206102 -0.136137
v 0.304288 0.414375 -0.147901
v -0.091332 0.253230 -0.374766
v 0.603024 0.618932 -0.453939
v 0.112501 0.534163 -0.409962
v 0.028567 0.463308 -0.525424
v 0.380759 0.579516 -0.455771
v 0.174785 0.540177 -0.365137
v 0.239873 0.475399 -0.672563
v -0.038863 0.543342 -0.310428
v 0.156008 0.588065 -0.305513
v -0.770696 0.316880 -0.214214
v -0.651187 -0.000000 -0.378386
v -1.040359 0.108327 -0.614631
v -0.869653 -0.000000 -0.524732
v -1.029053 -0.000000 -0.631509
v -1.133035 0.000032 -0.150287
v -1.258041 0.108327 -0.289672
v -1.260348 -0.000000 -0.286228
v -1.262460 0.265922 -0.287603
v -1.040359 0.216654 -0.614631
v -0.834953 0.321944 -0.502702
v -0.889191 0.260598 -0.529704
v -1.140982 0.318392 -0.454224
v -1.037884 0.108327 -0.138538
v -1.006025 -0.000000 -0.116719
v -0.883659 0.265922 -0.030291
v -0.812097 -0.000000 -0.150119
v -0.883281 -0.000000 -0.031912
v -0.816414 0.216654 -0.154611
v -0.649413 0.265922 -0.379977
v -0.740000 0.216654 -0.268684
v -0.776564 0.108327 -0.462373
v -1.066565 0.325558 -0.158605
v -1.258664 0.323107 -0.286474
v -0.888965 0.329782 -0.056646
v -0.661858 0.323084 -0.379504
v -1.029668 0.320468 -0.632098
v -0.960189 0.328671 -0.268424
v -1.006012 0.288412 -0.117531
v -0.992447 0.321310 -0.357474
v -1.192852 0.683028 0.573983
v -0.857833 0.654102 0.530496
v -0.801071 0.333009 0.325449
v -0.704200 0.333009 0.143531
v -0.879202 0.441336 0.050343
v -1.073059 0.659323 0.413653
v -0.879660 0.651954 0.068578
v -0.968629 0.675125 0.464887
v -1.156355 0.333009 0.603263
v -1.178840 0.598745 0.587586
v -0.690738 0.549663 0.150699
v -0.920263 0.669765 0.257245
v -1.035199 0.333009 0.667778
v -0.989513 0.645585 0.199832
v -1.002997 0.441336 0.217923
v -0.888650 0.586359 0.047716
v -1.099868 0.441336 0.399841
v -0.974524 0.595913 0.180392
v -1.099868 0.549663 0.399841
v -0.981352 0.441336 0.696452
v -0.954429 0.549663 0.710789
v -0.760594 0.654101 0.347889
v -0.857558 0.441336 0.528871
v -0.857558 0.549663 0.528871
v -0.760686 0.549663 0.346954
v -0.976750 0.793495 0.655111
v -0.815392 0.649341 0.138181
v -0.819119 0.643505 0.274291
v -0.942159 0.729942 0.687526
v -1.034681 0.660874 0.658599
v -1.103943 0.729555 0.606425
v -0.698444 0.653116 0.149861
v -1.138085 0.793498 0.569199
v -0.707796 0.632502 0.223718
v -0.700569 0.615159 -0.257308
v -0.710083 0.670324 -0.116631
v -0.708999 0.316904 -0.525374
v -0.794016 0.326410 -0.384378
v -0.734117 0.553983 -0.110217
v -0.965370 0.434292 -0.528626
v -1.002243 0.327322 -0.523409
v -0.942907 0.665712 -0.257985
v -0.837442 0.662747 -0.258718
v -0.961859 0.453625 -0.107370
v -0.972943 0.601959 -0.110523
v -0.736777 0.426170 -0.530157
v -0.944077 0.659267 -0.398405
v -0.894788 0.336477 -0.243275
v -0.899466 0.317634 -0.343590
v -0.993343 0.599394 -0.395828
v -0.994333 0.441807 -0.388005
v -0.992163 0.605891 -0.254265
v -0.993163 0.448252 -0.247586
v -0.737477 0.534406 -0.536633
v -0.721677 0.331122 -0.103595
v -0.713735 0.656021 -0.544454
v -0.736333 0.649930 -0.400077
v -0.692863 0.437583 -0.249598
v -0.694034 0.431138 -0.390018
v -0.696611 0.539510 -0.394970
v -0.963436 0.708607 -0.561912
v -0.748495 0.751037 -0.091743
v -0.925683 0.752591 -0.088329
v -0.979264 0.599612 -0.534587
v -0.952347 0.681821 -0.113709
v -0.807308 0.705975 -0.557835
v -0.824096 0.674930 -0.112529
v -0.852777 0.647364 -0.540211
v -0.761569 0.729209 -0.577713
v -0.449722 0.474739 0.449215
v -0.556735 0.460661 0.273025
v -0.503139 0.480950 -0.301729
v -0.394985 0.478274 -0.391652
v -0.342077 0.217296 0.344303
v -0.461075 0.326667 0.196792
v -0.022837 0.004866 0.089502
v -0.370811 0.216819 -0.353097
v -0.259654 0.004800 -0.211621
v -0.474699 0.004714 -0.265788
v -0.374296 0.004868 -0.357372
v -0.470051 0.216813 -0.259857
v -0.580861 0.216813 -0.172727
v -0.441308 0.004663 0.175441
v -0.233717 0.000000 0.253436
v -0.475006 0.325466 -0.266107
v -0.585766 0.325466 -0.179016
v -0.698048 0.004990 -0.102858
v -0.344161 0.004800 0.094736
v -0.341106 0.326512 0.354038
v -0.694761 0.216960 -0.098407
v -0.140989 0.004800 -0.060706
v -0.014666 0.326879 0.097361
v -0.138166 0.327193 -0.057116
v -0.272847 0.429902 -0.469561
v -0.006468 0.422296 -0.149276
v 0.111785 0.426452 0.001803
v -0.257793 0.108327 -0.209252
v -0.370811 0.108162 -0.353097
v -0.583682 0.326611 0.043103
v -0.686045 0.453414 0.126607
v -0.829528 0.474053 -0.033145
v -0.107057 0.480640 0.202087
v -0.374372 0.327016 -0.360221
v -0.350080 0.466145 0.386773
v -0.217576 0.480640 0.288988
v -0.613748 0.480950 -0.214756
v -0.740396 0.461495 -0.111475
v 0.003649 0.478062 0.115449
v -0.133034 0.056581 0.168130
v -0.022871 0.108410 0.089454
v -0.240274 0.216904 0.257756
v -0.125636 0.325298 0.178377
v -0.130846 0.216908 0.171712
v -0.336952 0.056888 0.336543
v -0.239148 0.075438 0.249519
v -0.236234 0.325297 0.265341
v -0.246157 0.004800 0.017675
v -0.124793 0.454740 -0.331418
v -0.021026 0.216906 0.091794
v -0.140020 0.216654 -0.059474
v -0.578636 0.216911 0.042829
v 0.090040 0.771020 0.155413
v 0.210234 0.620718 0.079432
v 0.907912 0.412461 0.126318
v 1.041113 0.621787 0.283264
v 0.727223 0.004823 -0.244981
v 1.193400 0.713042 -0.053586
v 1.215250 0.714730 0.176349
v 0.212755 0.004766 0.079774
v 0.446716 0.412999 0.416791
v 0.538551 0.621244 0.600444
v 0.431764 0.620272 0.426921
v 0.209157 0.412090 0.074104
v 0.420072 0.771020 0.678271
v 0.310864 0.772347 0.503479
v 0.663744 0.228870 0.536472
v 0.603705 0.002904 0.578997
v 0.724890 0.412203 0.480191
v 0.490666 0.004800 0.142862
v 0.200853 0.772346 0.329192
v 0.009943 0.813195 0.205971
v 0.930468 0.621436 0.112166
v 0.320201 0.412469 0.249943
v 0.320118 0.206100 0.249803
v 0.483018 0.206102 0.393324
v 0.728436 0.621350 -0.247702
v 0.995273 0.716331 -0.172284
v 0.831769 0.621347 -0.069616
v 0.973367 0.712242 -0.402151
v 0.885581 0.714731 -0.346751
v 0.723603 0.206136 -0.250699
v 0.484388 0.738846 -0.253190
v 0.796855 0.704802 0.627946
v 0.621418 0.703313 0.736134
v 0.137085 0.736919 -0.031204
v 0.310119 0.738846 -0.143190
v 0.659919 0.736919 -0.361221
v 1.142381 0.703313 0.407298
v 1.015459 0.412517 0.296928
v 0.760981 0.206102 0.457411
v 0.867555 0.412203 0.390140
v 0.372561 0.412074 -0.044490
v 0.724890 0.004800 0.480191
v 0.556514 0.605738 -0.127225
v 0.546628 0.412074 -0.154363
v 0.472381 0.015790 0.404512
v 0.879121 0.620839 0.382840
v 0.322024 0.004605 0.251922
v 0.709659 0.620838 0.489805
v 1.015459 0.205789 0.296928
v 1.037220 0.004702 0.282817
v 0.929625 0.004692 0.112605
v 0.907912 0.205845 0.126318
v 0.818084 0.205904 -0.065404
v 0.723603 0.412168 -0.250699
v 0.818084 0.412401 -0.065404
v 1.303400 0.712242 0.120707
v 0.339975 0.813195 0.728829
v 1.083389 0.713042 -0.227872
vn 0.1900 0.9680 0.1640
vn 0.9471 0.2741 -0.1669
vn 0.4910 0.7760 -0.3959
vn 0.6052 -0.3349 0.7222
vn 0.2386 0.0268 0.9708
vn 0.1903 -0.5552 0.8096
vn 0.5931 0.3949 0.7016
vn 0.7562 0.6543 -0.0000
vn -0.9806 0.1389 -0.1383
vn -0.4573 0.8890 0.0237
vn -0.3755 0.8782 0.2962
vn 0.2254 -0.5796 -0.7831
vn 0.8909 0.0330 -0.4531
vn 0.8755 0.0632 -0.4791
vn 0.9694 0.0440 0.2415
vn 0.8258 -0.5425 0.1538
vn 0.6427 -0.6744 -0.3635
vn -0.9597 -0.2318 0.1590
vn -0.6599 0.6563 0.3658
vn -0.8720 0.4706 -0.1343
vn -0.4392 -0.8282 0.3480
vn -0.4287 -0.0243 0.9031
vn -0.8822 -0.4641 0.0800
vn -0.4238 0.6757 -0.6032
vn 0.1537 -0.0013 -0.9881
vn 0.1503 -0.5753 -0.8040
vn -0.4361 -0.7202 -0.5395
vn 0.4841 -0.6935 -0.5335
vn 0.7705 0.1044 -0.6288
vn 0.7745 -0.5496 -0.3133
vn 0.9499 0.2614 -0.1716
vn 0.9085 -0.3924 0.1439
vn 0.2799 -0.9299 0.2386
vn -0.4787 -0.8722 -0.1002
vn 0.0904 -0.7907 -0.6055
vn -0.9546 -0.2867 -0.0804
vn -0.7182 -0.5385 -0.4407
vn -0.4920 -0.8133 0.3106
vn -0.4921 -0.8133 0.3106
vn 0.1918 -0.1736 0.9659
vn -0.0593 0.7704 0.6348
vn -0.3030 0.9350 -0.1842
vn 0.8729 0.3499 0.3400
vn 0.4697 0.3618 0.8053
vn 0.7481 0.4307 -0.5048
vn 0.7774 0.3769 -0.5036
vn 0.0767 0.9927 0.0926
vn -0.5236 -0.3732 -0.7659
vn 0.4921 0.8137 -0.3094
vn 0.2640 -0.0991 -0.9594
vn 0.3857 0.7013 -0.5995
vn -0.3766 0.0468 0.9252
vn -0.7789 0.5094 0.3658
vn -0.8431 -0.1798 0.5069
vn -0.7812 0.0460 -0.6226
vn -0.1945 -0.2712 -0.9427
vn -0.1061 -0.0687 -0.9920
vn 0.3612 -0.8168 -0.4499
vn -0.0052 0.6051 -0.7962
vn 0.6848 0.0869 -0.7235
vn -0.0307 -0.7383 -0.6737
vn -0.0351 -0.9983 0.0461
vn 0.7910 0.1194 -0.6001
vn 0.8691 -0.4947 0.0056
vn 0.6815 0.1391 0.7185
vn 0.6629 0.4569 0.5931
vn -0.6789 0.4605 0.5719
vn -0.6799 0.1448 0.7189
vn 0.6684 0.3506 0.6559
vn 0.8423 -0.3420 0.4166
vn 0.5168 -0.3396 0.7858
vn 0.2767 -0.9290 0.2458
vn -0.3151 -0.6139 0.7238
vn -0.4444 -0.8773 0.1815
vn -0.4488 -0.8515 0.2711
vn -0.5750 0.6650 0.4766
vn -0.9258 0.0886 0.3676
vn -0.4419 -0.8478 0.2931
vn -0.8612 0.4917 -0.1289
vn 0.2875 0.9467 0.1455
vn 0.3970 0.8664 -0.3029
vn -0.6976 0.6911 -0.1891
vn -0.3306 0.8445 -0.4213
vn -0.4538 0.5613 -0.6921
vn -0.2038 0.9779 -0.0468
vn 0.7159 0.3635 -0.5962
vn 0.3675 0.1599 -0.9162
vn -0.1802 0.9329 -0.3119
vn -0.3488 0.7918 -0.5014
vn 0.8827 -0.0000 0.4700
vn 0.8826 0.0001 0.4701
vn 0.2382 -0.5774 0.7809
vn 0.6242 -0.7071 0.3324
vn -0.4862 0.6468 0.5876
vn -0.6705 -0.0419 0.7407
vn 0.9450 0.2795 -0.1698
vn 0.9115 -0.3324 0.2423
vn -0.0724 0.1867 0.9798
vn 0.0796 -0.6257 0.7760
vn 0.3806 -0.4952 -0.7810
vn 0.3100 -0.9421 -0.1279
vn -0.0620 0.8215 0.5668
vn 0.2962 0.9506 -0.0924
vn -0.2231 0.9733 0.0548
vn -0.7724 0.3467 0.5321
vn 0.9568 0.2907 0.0098
vn 0.7773 -0.5257 -0.3457
vn 0.2969 -0.9340 0.1987
vn -0.6440 -0.1085 -0.7573
vn -0.1021 -0.1745 -0.9794
vn 0.0859 -0.0223 -0.9961
vn -0.6517 -0.0366 -0.7576
vn -0.5825 -0.0366 -0.8120
vn -0.5840 -0.1085 -0.8044
vn -0.1913 0.2303 -0.9541
vn -0.9679 0.1405 0.2082
vn -0.6941 0.7021 0.1590
vn -0.4238 0.8561 -0.2959
vn -0.1069 0.1770 0.9784
vn -0.0535 0.9280 0.3686
vn -0.4858 0.6654 0.5668
vn -0.4893 0.8654 -0.1083
vn -0.9925 0.1199 -0.0255
vn 0.4109 0.8267 -0.3843
vn 0.9427 0.3265 0.0689
vn 0.3831 0.2852 -0.8786
vn 0.4174 -0.7556 0.5049
vn 0.1211 -0.7175 -0.6859
vn -0.5769 -0.5777 -0.5775
vn -0.6870 0.0001 -0.7267
vn -0.7072 -0.7070 0.0003
vn -0.0122 0.3890 0.9212
vn -0.0001 0.9856 -0.1690
vn -0.9639 -0.1317 -0.2314
vn -0.9917 -0.1129 -0.0618
vn 0.4769 0.5135 0.7134
vn -0.4137 0.3827 -0.8261
vn -0.9939 -0.1009 0.0445
vn 0.0710 0.9970 0.0291
vn 0.6897 -0.1638 0.7053
vn -0.7657 0.0728 0.6390
vn 0.7837 0.0005 0.6211
vn 0.6417 0.1233 -0.7570
vn -0.7104 -0.0633 -0.7009
vn -0.5837 0.6567 -0.4775
vn 0.4937 0.3730 -0.7856
vn -0.3554 0.8882 -0.2912
vn -0.6156 0.6222 0.4836
vn 0.3440 0.8640 0.3676
vn 0.5777 -0.5109 0.6365
vn 0.5895 -0.5635 -0.5788
vn 0.7096 0.1129 -0.6955
vn -0.0000 -0.1353 -0.9908
vn 0.9590 -0.0057 -0.2832
vn -0.0000 -0.6230 -0.7822
vn -0.5664 -0.5134 -0.6447
vn -0.1547 0.1601 0.9749
vn 0.5338 0.2343 0.8125
vn 0.4507 0.5803 0.6784
vn -0.2783 0.5494 0.7878
vn 0.2865 -0.0166 -0.9579
vn 0.2255 -0.5796 -0.7831
vn -0.7937 -0.5877 -0.1568
vn -0.9801 0.0169 -0.1978
vn -0.5604 0.0322 -0.8276
vn -0.5061 0.0321 -0.8619
vn 0.2865 0.0166 -0.9579
vn 0.9562 0.1600 0.2452
vn 0.8922 0.4465 0.0680
vn -0.2258 -0.0994 -0.9691
vn -0.2257 0.0634 -0.9721
vn -0.1197 -0.5255 -0.8423
vn -0.8049 -0.5660 0.1782
vn -0.9810 0.0108 0.1937
vn 0.2823 0.9514 0.1229
vn 0.7936 -0.3571 -0.4926
vn 0.3549 0.7815 0.5132
vn 0.4882 0.3107 0.8156
vn 0.9642 0.1246 -0.2342
vn 0.0829 0.4092 0.9086
vn 0.3826 0.8550 0.3502
vn 0.8162 0.5086 -0.2740
vn -0.8199 0.5075 -0.2648
vn -0.8100 0.5228 0.2655
vn 0.8164 0.5156 0.2601
vn 0.7936 -0.4562 0.4027
vn -0.7748 -0.4590 -0.4347
vn -0.8341 -0.2434 0.4950
vn 0.5173 0.8550 -0.0363
vn -0.6383 -0.5396 0.5490
vn -0.9964 -0.0376 0.0760
vn -0.9885 -0.1512 -0.0036
vn -0.9813 -0.1918 0.0154
vn 0.3096 0.8869 -0.3429
vn 0.1099 -0.1804 -0.9774
vn 0.7669 0.1244 -0.6295
vn -0.7833 -0.4540 0.4246
vn 0.7935 -0.4562 0.4027
vn -0.2265 -0.9729 0.0462
vn -0.3173 0.0252 -0.9480
vn -0.0638 -0.6994 -0.7119
vn 0.5120 0.8565 0.0660
vn -0.0462 0.5688 0.8212
vn 0.4874 0.7137 0.5030
vn 0.0792 0.2183 0.9727
vn -0.1052 -0.0245 0.9942
vn 0.7428 0.0038 0.6695
vn -0.1815 -0.9831 -0.0236
vn -0.0594 -0.6872 0.7240
vn 0.0988 -0.7307 -0.6755
vn 0.1583 -0.9873 0.0156
vn 0.3408 -0.9315 -0.1275
vn 0.1597 -0.6616 0.7326
vn 0.0158 0.6013 -0.7989
vn 0.6385 0.7694 -0.0174
vn 0.3507 0.7796 -0.5190
vn 0.1368 0.9885 -0.0651
vn 0.7860 0.5491 -0.2840
vn 0.9877 0.1152 0.1059
vn 0.3506 0.7796 -0.5190
vn 0.0536 0.6748 0.7361
vn 0.0699 0.6774 0.7323
vn 0.2469 0.0314 -0.9685
vn -0.0000 0.2542 -0.9671
vn 0.6688 0.2452 -0.7019
vn -0.5055 0.8595 -0.0763
vn 0.1435 0.5761 -0.8046
vn -0.4812 0.7488 -0.4557
vn -0.5690 0.0025 0.8223
vn -0.3968 -0.7068 0.5856
vn 0.1790 -0.5621 0.8074
vn 0.2223 -0.0179 0.9748
vn -0.5475 -0.0525 0.8352
vn -0.1765 0.4524 0.8742
vn 0.9999 -0.0150 -0.0001
vn -0.9752 0.1742 0.1367
vn -0.1631 0.3015 -0.9394
vn 0.9999 -0.0150 0.0001
vn -0.9997 -0.0139 -0.0199
vn 0.2485 -0.1958 -0.9486
vn 0.1708 -0.0839 -0.9817
vn 0.9984 0.0392 -0.0408
vn 0.9990 -0.0077 -0.0435
vn 0.5121 0.8564 0.0660
vn -0.0252 0.9859 0.1653
vn -0.0462 0.5687 0.8212
vn 0.0471 0.4981 0.8659
vn -0.9997 -0.0140 0.0199
vn -0.5935 0.5386 0.5980
vn 0.0104 0.7265 0.6871
vn -0.0039 0.8701 -0.4929
vn 0.6212 0.4971 0.6058
vn 0.1198 0.9926 0.0177
vn -0.9500 0.3119 -0.0175
vn 0.0097 0.8770 -0.4805
vn 0.0340 0.9832 -0.1792
vn -0.1925 0.0241 0.9810
vn -0.1656 -0.5773 0.7996
vn 0.7995 -0.5773 0.1656
vn 0.5487 0.0337 0.8353
vn 0.5661 -0.6977 -0.4391
vn 0.9929 -0.0116 0.1183
vn 0.8087 -0.5775 0.1117
vn 0.7227 0.3391 -0.6023
vn 0.9422 0.2961 0.1568
vn -0.0411 0.9948 0.0937
vn 0.0872 0.6020 -0.7937
vn 0.0750 0.9946 0.0718
vn -0.3901 0.8273 0.4043
vn -0.6153 0.3176 -0.7214
vn -0.7289 0.3796 -0.5698
vn 0.5765 -0.6856 0.4446
vn 0.7820 -0.0243 0.6228
vn 0.5455 -0.0033 0.8381
vn 0.4297 -0.6856 0.5876
vn -0.6809 -0.3076 -0.6647
vn -0.0000 -0.4052 -0.9142
vn -0.9690 -0.0441 -0.2432
vn -0.3772 0.7071 -0.5981
vn -0.5356 0.0001 -0.8445
vn 0.8909 -0.0329 -0.4531
vn 0.8755 -0.0632 -0.4791
vn -0.1598 0.6198 0.7683
vn -0.5268 0.8086 0.2618
vn -0.4845 0.8073 0.3369
vn -0.7718 -0.4365 0.4624
vn -0.7597 -0.4802 0.4384
vn 0.5565 -0.0000 -0.8308
vn 0.6875 0.4906 -0.5354
vn 0.9815 -0.0617 -0.1811
vn 0.8136 -0.5661 -0.1324
vn 0.3958 -0.6994 -0.5952
vn 0.7727 0.1350 0.6203
vn 0.9346 -0.0556 0.3513
vn 0.8840 0.2641 0.3858
vn -0.7968 0.5764 0.1813
vn -0.9962 -0.0292 -0.0816
vn -0.1544 -0.4599 0.8745
vn 0.3865 -0.0237 0.9220
vn -0.1198 -0.7092 0.6948
vn -0.2152 0.9639 0.1565
vn 0.4417 0.3119 0.8412
vn 0.4939 0.4126 0.7654
vn -0.2152 0.9640 0.1564
vn 0.6722 0.4800 -0.5637
vn 0.5581 -0.0377 0.8289
vn 0.4028 -0.6887 0.6029
vn -0.6772 -0.6762 -0.2901
vn 0.6917 0.0436 0.7209
vn 0.9557 0.2806 -0.0890
vn -0.0295 0.9971 -0.0702
vn -0.2489 0.8719 0.4217
vn -0.1530 0.1674 0.9740
vn 0.9000 0.4359 -0.0014
vn -0.4582 0.8782 -0.1373
vn -0.2640 0.0004 0.9645
vn -0.6019 0.6325 0.4875
vn -0.5333 -0.7653 0.3605
vn -0.1010 0.9894 0.1039
vn -0.6268 -0.0455 0.7779
vn 0.8098 0.1760 -0.5597
vn -0.7073 0.6397 -0.3007
vn -0.8826 -0.0000 -0.4701
vn 0.2312 -0.0661 -0.9707
vn 0.2500 0.0505 -0.9669
vn 0.2439 -0.6840 -0.6875
vn -0.6242 -0.7071 -0.3323
vn -0.3408 0.6975 0.6304
vn -0.8727 0.0557 0.4851
vn -0.7014 0.5845 0.4078
vn -0.7186 0.5662 0.4038
vn -0.8950 0.0265 0.4453
vn -0.0515 0.9972 -0.0546
vn -0.8863 -0.0732 0.4572
vn -0.8266 -0.0649 0.5591
vn -0.7264 -0.0473 -0.6856
vn -0.7780 0.5956 -0.1997
vn -0.4844 0.8074 0.3368
vn -0.7264 -0.0474 -0.6856
vn -0.7027 -0.3766 0.6036
vn -0.0000 -1.0000 -0.0000
vn -0.4956 -0.7623 0.4163
vn -0.7711 -0.1102 0.6271
vn -0.6708 0.0620 0.7390
vn -0.8387 0.2061 0.5041
vn -0.0001 -1.0000 -0.0000
vn 0.5502 -0.7017 -0.4527
vn 0.4690 0.6918 0.5491
vn -0.0868 -0.0220 0.9960
vn -0.0873 0.0243 0.9959
vn 0.6515 0.0365 0.7578
vn -0.8062 -0.1295 -0.5773
vn 0.5315 -0.7055 -0.4688
vn -0.6439 -0.3861 -0.6605
vn 0.0325 -0.5737 -0.8184
vn 0.0348 -0.0000 -0.9994
vn 0.4810 -0.0315 -0.8762
vn 0.3959 0.2013 -0.8959
vn 0.5741 -0.6868 -0.4458
vn 0.1120 0.2292 -0.9669
vn -0.6596 -0.7513 -0.0198
vn -0.7282 -0.6807 0.0794
vn -0.2716 0.9314 0.2425
vn 0.0708 0.9955 -0.0631
vn -0.2980 0.9174 0.2637
vn 0.6826 -0.1319 0.7188
vn -0.4434 0.0247 0.8960
vn -0.6175 -0.0469 0.7852
vn -0.6120 0.2578 -0.7477
vn 0.7559 0.2242 -0.6151
vn 0.2869 0.9230 -0.2562
vn -0.0708 0.9955 0.0633
vn 0.2978 0.9171 -0.2650
vn 0.4721 -0.4668 0.7479
vn 0.5337 -0.0000 0.8456
vn 0.9694 -0.0440 0.2415
vn 0.9189 -0.3375 0.2044
vn 0.5315 -0.7056 -0.4687
vn 0.5501 -0.7018 -0.4526
vn -0.5063 -0.6743 -0.5375
vn 0.5500 -0.7018 -0.4527
vn 0.5315 -0.7057 -0.4686
vn 0.7496 -0.0004 -0.6619
vn 0.9529 0.0960 -0.2878
vn -0.5306 -0.7468 0.4009
vn -0.5916 -0.6899 -0.4172
vn -0.9204 -0.0301 -0.3899
vn -0.7425 0.1932 -0.6414
vn -0.6529 0.3003 -0.6954
vn -0.5387 -0.1078 -0.8356
vn -0.0402 -0.5630 -0.8255
vn -0.7786 -0.0722 0.6234
vn -0.7711 -0.1102 0.6270
vn -0.4954 -0.7625 0.4162
vn 0.6516 0.7559 0.0628
vn 0.1971 0.9449 0.2612
vn 0.4019 0.8521 0.3353
vn -0.0674 0.9972 -0.0310
vn 0.4164 0.8392 0.3498
vn -0.3325 0.8913 0.3081
vn 0.6380 0.2025 -0.7430
vn -0.1374 0.9904 -0.0161
vn -0.8260 -0.3636 0.4307
vn -0.2169 0.9218 -0.3213
vn -0.4719 0.4645 -0.7493
vn -0.5631 -0.3345 -0.7557
vn -0.6016 -0.3345 -0.7254
vn -0.9132 -0.4076 -0.0067
vn -0.7781 0.5956 -0.1996
vn -0.3634 0.8650 -0.3459
vn -0.3677 0.8479 -0.3819
vn 0.0953 0.9954 -0.0041
vn -0.0067 0.9944 0.1057
vn -0.4298 0.8528 -0.2965
vn -0.0338 0.9972 -0.0669
vn 0.4026 0.8412 0.3609
vn -0.1304 -0.9781 0.1622
vn -0.1752 -0.9696 0.1709
vn 0.1114 -0.9849 -0.1326
vn -0.9000 0.2759 -0.3375
vn 0.1824 -0.9550 -0.2337
vn 0.6369 -0.6816 0.3603
vn -0.6788 0.2137 0.7026
vn -0.6614 -0.0102 0.7499
vn 0.6349 0.1707 -0.7535
vn 0.6574 -0.0106 -0.7535
vn -0.6567 0.7451 -0.1166
vn 0.0188 0.8671 -0.4978
vn -0.0092 0.2633 0.9647
vn 0.0069 0.2592 0.9658
vn 0.0150 0.3643 0.9312
vn 0.8408 0.4298 0.3291
vn -0.6256 0.2410 0.7420
vn -0.0841 0.9963 -0.0148
vn 0.5403 0.2706 -0.7968
vn 0.8323 0.2821 0.4772
vn 0.8826 -0.0051 0.4700
vn 0.6680 -0.0759 -0.7402
vn -0.2566 0.8531 0.4543
vn -0.9616 0.1581 0.2242
vn -0.4416 0.3858 0.8100
vn -0.4828 0.2419 0.8416
vn -0.2421 0.8579 0.4531
vn -0.4297 -0.7309 0.5303
vn -0.8007 -0.0438 0.5975
vn -0.8827 0.0001 -0.4700
vn 0.4157 0.1387 0.8989
vn -0.5326 -0.3674 -0.7625
vn -0.0052 -0.0142 -0.9999
vn 0.0360 -0.7012 -0.7120
vn -0.0438 0.6153 0.7871
vn 0.6456 0.7624 -0.0449
vn -0.1332 0.9900 -0.0455
vn 0.0515 -0.0111 0.9986
vn -0.6985 0.0467 0.7141
vn -0.2531 -0.3297 0.9095
vn -0.4226 -0.8621 -0.2796
vn 0.0209 0.8366 -0.5474
vn 0.0201 0.9973 0.0707
vn -0.0080 0.8207 -0.5713
vn -0.9544 0.1964 0.2248
vn 0.6680 0.6606 -0.3427
vn 0.0555 0.6208 -0.7820
vn -0.5670 0.6979 0.4376
vn 0.0074 0.9996 -0.0272
vn 0.6034 0.5863 0.5405
vn 0.9880 0.0941 -0.1228
vn 0.0502 0.8443 0.5336
vn 0.0025 0.9974 -0.0721
vn 0.0026 0.8641 0.5033
vn -0.0081 0.8206 -0.5714
vn 0.7784 0.6218 0.0866
vn 0.5418 0.6389 -0.5462
vn 0.0498 -0.6685 0.7421
vn -0.9999 -0.0109 0.0010
vn -0.0921 -0.9659 0.2421
vn 0.7834 0.1846 0.5934
vn 0.0501 -0.7252 -0.6867
vn 0.7303 -0.6254 -0.2749
vn 0.2004 -0.9264 0.3187
vn 0.4721 -0.4667 0.7479
vn 0.9883 -0.1514 0.0185
vn -0.0065 0.2326 0.9725
vn 0.4715 0.8804 -0.0506
vn 0.0261 0.9991 0.0349
vn -0.3174 0.1570 -0.9352
vn -0.3754 0.8782 0.2964
vn 0.7121 0.0723 0.6984
vn 0.4827 -0.2575 -0.8371
vn 0.9989 -0.0324 -0.0329
vn 0.6586 0.0534 -0.7506
vn 0.5419 0.6387 -0.5462
vn -0.0887 -0.3250 -0.9415
vn 0.0458 0.5883 -0.8073
vn -0.7450 0.6670 -0.0098
vn -0.5451 0.4535 0.7051
vn 0.0822 0.6086 0.7892
vn 0.0314 0.9967 0.0752
vn 0.0169 0.9972 -0.0734
vn -0.9987 -0.0003 0.0512
vn 0.0261 0.9991 0.0348
vn 0.7179 0.4959 0.4885
vn 0.0003 1.0000 -0.0002
vn -0.6410 0.6697 0.3749
vn -0.2152 0.5793 0.7862
vn -0.9047 0.4196 0.0741
vn 0.7872 0.3105 -0.5328
vn 0.7016 0.0240 -0.7122
vn -0.6968 0.0226 -0.7169
vn 0.1722 -0.5867 -0.7913
vn 0.5882 -0.7184 -0.3713
vn 0.1870 -0.9755 -0.1159
vn -0.2793 -0.6285 -0.7259
vn 0.7443 0.6674 -0.0246
vn 0.5501 0.8351 -0.0001
vn -0.9466 0.2950 0.1303
vn -0.5784 0.8157 -0.0125
vn 0.3734 0.2914 0.8807
vn 0.5664 -0.5133 -0.6448
vn 0.6843 -0.3160 -0.6572
vn -0.5890 -0.5751 -0.5677
vn 0.8112 -0.0523 0.5824
vn 0.8173 0.1589 0.5538
vn 0.8476 -0.0521 0.5281
vn 0.6093 -0.6946 0.3825
vn 0.9772 -0.2089 0.0377
vn -0.0116 0.9997 0.0225
vn -0.6528 0.4391 -0.6172
vn 0.1692 -0.2153 -0.9618
vn 0.7171 -0.5625 -0.4115
vn -0.9995 0.0272 0.0175
vn -0.9986 0.0522 0.0124
vn -0.2387 -0.0568 -0.9694
vn -0.7291 -0.6829 0.0448
vn 0.5944 -0.2498 0.7644
vn 0.6026 -0.2498 0.7579
vn 0.6272 -0.0682 0.7759
vn 0.6061 -0.0684 0.7924
vn 0.9434 -0.1256 0.3070
vn 0.3141 0.9451 0.0899
vn 0.7480 0.4308 -0.5048
vn 0.4910 0.8137 -0.3112
vn 0.4775 -0.3704 0.7967
vn 0.1030 0.2487 0.9631
vn -0.3767 0.0468 0.9252
vn -0.9833 -0.0037 -0.1818
vn -0.3882 -0.7071 -0.5910
vn 0.1655 -0.5774 -0.7995
vn -0.7995 -0.5774 -0.1656
vn 0.9471 0.2741 -0.1670
vn 0.9499 0.2615 -0.1715
vn -0.4923 -0.3159 -0.8111
vn -0.5203 -0.3159 -0.7934
vn 0.0062 0.8160 -0.5781
vn -0.8485 0.5288 -0.0186
vn 0.0198 0.7409 -0.6713
vn -0.9788 0.0546 -0.1974
vn -0.7716 0.0315 0.6354
vn -0.0014 -1.0000 0.0010
vn 0.0405 -0.0125 0.9991
vn -0.9855 -0.1693 0.0069
vn -0.0226 -0.0277 0.9994
vn 0.9442 -0.3258 -0.0484
vn 0.7055 0.0246 0.7083
vn 0.6963 -0.1217 -0.7073
vn 0.3927 -0.9054 -0.1616
vn 0.0934 -0.6679 0.7384
vn -0.0352 -0.9983 0.0461
vn -0.0352 -0.9983 0.0462
vn -0.4696 -0.6909 -0.5496
vn 0.0557 -0.5594 -0.8270
vn 0.5559 -0.7070 -0.4371
vn 0.5560 -0.7070 -0.4371
vn -0.0000 -1.0000 0.0001
vn -0.0001 -1.0000 -0.0001
vn -0.5279 -0.7434 0.4107
vn -0.8236 -0.5561 -0.1114
vn -0.4872 -0.2256 -0.8437
vn -0.9917 -0.0853 -0.0960
vn 0.0384 -0.1988 -0.9793
vn -0.0146 -0.1296 0.9915
vn -0.8803 0.1928 0.4335
vn -0.9689 0.0465 -0.2431
vn -0.4022 0.9018 -0.1578
vn 0.9813 -0.0361 0.1893
vn -0.5771 0.7078 -0.4073
vn 0.9885 0.1119 0.1019
vn -0.5864 0.3466 0.7322
vn -0.8676 -0.4956 0.0420
vn 0.0148 0.9989 -0.0439
vn -0.3164 0.6751 0.6665
vn 0.0053 0.8473 0.5310
vn -0.0321 0.6647 -0.7465
vn 0.0466 0.9971 -0.0599
vn -0.3323 -0.7071 0.6242
vn -0.2979 0.0215 0.9543
vn 0.2974 -0.0202 0.9545
vn -0.4346 0.2133 0.8750
vn -0.9270 0.2518 0.2778
vn -0.7041 -0.0801 -0.7055
vn 0.7228 0.6908 -0.0206
vn -0.5749 0.8118 -0.1025
vn -0.3420 0.7123 -0.6129
vn -0.5749 0.7096 -0.4074
vn -0.7760 0.6125 0.1503
vn -0.8307 -0.0281 0.5560
vn -0.8312 -0.0257 0.5554
vn 0.4037 -0.7883 0.4644
vn 0.3897 -0.7008 -0.5976
vn 0.2000 0.0062 -0.9798
vn 0.3012 -0.1850 -0.9354
vn -0.0590 0.7675 -0.6383
vn 0.9938 0.1115 -0.0038
vn 0.9996 -0.0045 0.0274
vn -0.8612 0.2630 0.4349
vn 0.0182 0.0089 -0.9998
vn 0.6591 0.0284 -0.7515
vn -0.7039 -0.0284 -0.7097
vn -0.3170 0.8879 -0.3335
vn -0.2556 0.5707 0.7804
vn -0.5396 0.8398 -0.0598
vn 0.2522 0.7918 -0.5563
vn -0.5748 0.7098 -0.4072
vn 0.4428 0.8289 0.3418
vn 0.4069 0.8591 0.3106
vn -0.0162 0.9964 -0.0831
vn 0.3321 0.8965 0.2934
vn -0.8358 -0.0000 0.5490
vn -0.7762 -0.3790 0.5038
vn -0.8220 -0.0003 0.5695
vn -0.7593 -0.1341 0.6367
vn -0.6939 0.0499 0.7184
vn -0.9730 -0.0288 -0.2288
vn 0.7139 -0.4187 -0.5613
vn 0.7861 -0.0000 -0.6181
vn 0.5559 -0.7072 -0.4369
vn 0.7862 -0.0000 -0.6179
vn 0.0857 0.0223 -0.9961
vn 0.8456 -0.0560 0.5309
vn 0.8358 -0.0000 -0.5490
vn -0.8612 0.2631 0.4349
vn -0.2713 0.8694 -0.4130
vn -0.6002 0.7991 -0.0352
vn 0.3428 0.6662 -0.6623
vn 0.4721 0.5939 -0.6515
vn 0.1474 0.7027 0.6961
vn -0.4036 -0.7051 0.5830
vn -0.0488 0.9973 0.0557
vn -0.8665 0.4040 0.2932
vn -0.5183 0.4686 0.7154
vn 0.5424 0.7865 0.2953
vn -0.3910 0.8728 -0.2921
vn 0.5209 0.4498 -0.7255
vn -0.0971 0.6752 -0.7312
vn 0.0725 0.9950 -0.0694
vn 0.8674 0.3937 -0.3043
vn -0.9891 -0.0271 -0.1444
vn 0.4256 0.8632 0.2716
vn 0.1474 0.7028 0.6960
vn 0.5773 -0.5773 0.5774
vn -0.5773 -0.5774 0.5774
vn 0.7080 0.6964 -0.1171
vn -0.9986 0.0527 -0.0014
vn -0.0471 0.9988 -0.0130
vn -0.5165 0.8293 -0.2135
vn 0.9190 0.3910 -0.0506
vn -0.3031 0.8325 0.4637
vn 0.1473 0.7027 0.6961
vn -0.9007 0.4296 0.0649
vn -0.3856 0.7109 0.5882
vn 0.5276 -0.3311 0.7823
vn 0.6363 -0.0181 0.7712
vn -0.0985 -0.5803 0.8084
vn 0.4467 -0.7123 0.5414
vn 0.4279 0.8794 0.2086
vn 0.8699 0.2113 0.4458
vn 0.0725 0.9950 -0.0692
vn 0.6224 0.7185 0.3103
vn 0.8674 0.3938 -0.3042
vn -0.7929 0.0001 0.6093
vn -0.6574 -0.0000 0.7536
vn -0.0926 -0.1808 0.9792
vn -0.7593 -0.1342 0.6368
vn 0.3703 0.7459 -0.5536
vn 0.0628 0.1802 -0.9816
vn 0.4073 0.6505 -0.6411
vn 0.2537 -0.8377 -0.4837
vn -0.0398 0.2325 -0.9718
vn 0.1473 0.7028 0.6960
vn -0.3031 0.8326 0.4636
vn -0.5517 0.1898 0.8122
vn 0.5288 -0.6272 -0.5718
vn 0.6893 -0.7245 0.0022
vn -0.6909 0.2650 -0.6726
vn -0.0564 0.9980 -0.0300
vn 0.2970 0.7255 -0.6208
vn -0.8539 0.2716 -0.4440
vn 0.5364 0.3571 -0.7647
vn 0.7811 0.5772 -0.2382
vn 0.4767 0.8481 0.2313
vn -0.8827 -0.0051 -0.4700
vn 0.6205 0.0962 -0.7783
vn -0.0078 -0.0315 -0.9995
vn -0.6262 0.5236 -0.5777
vn -0.2382 0.5773 -0.7810
vn 0.8826 -0.0052 0.4700
vn -0.0955 0.9791 0.1796
vn 0.2044 0.4949 0.8446
vn 0.5503 0.6780 0.4873
vn 0.3189 0.6776 0.6626
vn -0.4439 0.2419 0.8628
vn 0.3691 0.1537 0.9166
vn -0.0956 0.9791 0.1795
vn -0.8149 0.4949 0.3018
vn -0.5028 0.3643 0.7839
vn -0.7114 0.6779 -0.1852
vn -0.9671 -0.1534 -0.2028
vn -0.9725 -0.0488 -0.2276
vn 0.4829 -0.2420 -0.8416
vn 0.4027 0.5133 -0.7579
vn 0.4439 -0.2425 -0.8626
vn -0.8148 0.4950 0.3018
vn 0.0481 0.4169 0.9077
vn -0.5445 0.4034 -0.7354
vn -0.2835 -0.5984 -0.7494
vn 0.3731 -0.8802 -0.2934
vn 0.4880 0.5048 0.7121
vn 0.2836 0.7975 -0.5325
vn -0.9535 -0.0945 0.2862
vn -0.4921 -0.8132 0.3107
vn -0.7717 -0.4088 0.4871
vn -0.6085 -0.5807 -0.5408
vn -0.4914 0.2174 0.8433
vn -0.0190 -0.6735 0.7390
vn -0.3090 -0.1431 0.9402
vn -0.5990 -0.5283 0.6018
vn 0.5733 0.8091 0.1290
vn 0.7770 0.2721 0.5676
vn -0.7292 -0.6829 0.0447
vn -0.7293 -0.6835 0.0300
vn 0.2686 0.0283 0.9628
vn -0.8059 0.3095 -0.5046
vn -0.3002 -0.0140 -0.9538
vn -0.7292 -0.6836 0.0301
vn -0.9996 0.0263 -0.0033
vn 0.0217 0.1138 -0.9933
vn 0.7218 0.1893 -0.6657
vn 0.9486 0.3162 0.0113
vn 0.9907 -0.0115 0.1359
vn 0.6013 -0.0568 0.7970
vn 0.6583 -0.5453 0.5190
vn 0.8100 -0.5749 0.1159
vn -0.0510 0.0628 0.9967
vn 0.0128 -0.2177 0.9759
vn -0.0177 -0.2188 0.9756
vn 0.1903 0.6341 -0.7495
vn 0.0377 0.2596 0.9650
vn -0.3890 -0.7364 0.5535
vn 0.0314 0.3662 0.9300
vn -0.1949 0.0311 0.9803
vn 0.1718 0.0129 0.9850
vn 0.5151 0.6819 0.5193
vn -0.0668 -0.2012 0.9773
vn 0.6332 -0.0560 0.7720
vn -0.1263 -0.0754 0.9891
vn -0.5278 -0.7434 0.4107
vn 0.6272 -0.0682 0.7758
vn 0.0176 -0.1319 0.9911
vn -0.9474 -0.1636 -0.2752
vn 0.9910 -0.0335 0.1296
vn -0.9907 0.0116 -0.1358
vn -0.7860 -0.0000 0.6183
vn -0.5557 0.7072 0.4372
vn -0.8107 0.5737 -0.1167
vn 0.9906 -0.0115 0.1361
vn 0.7860 -0.0000 -0.6183
vn 0.9910 -0.0334 0.1297
vn 0.0859 0.0224 -0.9961
vn -0.7383 -0.3295 0.5886
vn -0.5262 -0.7430 0.4137
vn -0.6431 -0.5155 0.5663
vn -0.7361 -0.3521 0.5781
vn -0.7676 -0.5283 -0.3628
vn -0.9790 -0.2029 0.0192
vn -0.1020 -0.1745 -0.9794
vn -0.6016 -0.3344 -0.7254
vn 0.1898 -0.2473 -0.9502
vn 0.0176 -0.1317 0.9911
vn 0.6026 -0.2497 0.7580
vn -0.2117 -0.1925 0.9582
vn -0.0000 -1.0000 -0.0001
vn 0.5253 0.7433 -0.4141
vn 0.2003 0.7918 0.5770
vn 0.8108 0.5441 0.2157
vn 0.5263 0.7458 -0.4084
vn -0.4463 0.7132 -0.5405
vn -0.0007 1.0000 0.0008
vn -0.3731 0.8805 0.2924
vn -0.7999 0.4579 -0.3879
vn 0.1288 0.6516 0.7475
vn -0.9910 0.0348 -0.1289
vn -0.7150 0.4178 0.5606
vn -0.5558 0.7072 0.4371
vn -0.7863 -0.0000 0.6178
vn -0.5559 0.7072 0.4368
vn -0.5559 0.7072 0.4369
vn -0.0865 -0.0221 0.9960
vn -0.0535 0.5580 0.8281
vn 0.9897 0.0393 0.1376
vn 0.7351 0.3326 -0.5908
vn 0.7627 0.0559 -0.6443
vn -0.7622 -0.0552 0.6450
vn -0.0804 0.3883 -0.9180
vn -0.7999 0.4579 -0.3878
vn -0.5942 0.2493 -0.7647
vn 0.0896 0.1481 -0.9849
vn 0.1894 0.5037 0.8429
vn 0.6016 0.3341 0.7255
vn 0.6443 0.1086 0.7570
vn -0.0803 0.3883 -0.9180
vn -0.6030 0.2492 -0.7578
vn -0.6281 0.0687 -0.7751
vn -0.4254 0.7129 -0.5575
vn 0.0001 1.0000 0.0001
vn -0.9680 -0.2478 -0.0395
vn 0.0985 0.5767 -0.8110
vn -0.4208 0.7130 -0.5609
vn 0.3142 0.7902 0.5262
vn -0.7844 -0.3619 0.5038
vn 0.1956 0.9307 0.3092
vn 0.5251 0.3117 0.7919
vn 0.5883 -0.7183 -0.3714
vn 0.7884 -0.5866 0.1851
vn 0.5083 -0.6342 0.5826
vn 0.0717 0.2080 0.9755
vn -0.2788 -0.2857 0.9169
vn -0.7718 -0.4088 0.4871
vn 0.0945 -0.0000 0.9955
vn 0.5338 -0.0000 0.8456
vn -0.0926 -0.1810 0.9791
vn -0.1548 -0.5062 0.8484
vn -0.5584 -0.6375 0.5309
vn -0.5887 -0.6973 0.4089
vn 0.4507 0.6350 0.6274
vn -0.0927 -0.1809 0.9791
vn 0.4721 -0.4668 0.7478
vn -0.2788 -0.2856 0.9169
vn 0.3775 -0.7072 0.5979
vn 0.6427 -0.6743 -0.3637
vn 0.3775 -0.7071 0.5980
vn 0.9188 -0.3375 0.2046
vn 0.7065 -0.5811 -0.4040
vn 0.8909 0.0329 -0.4531
vn -0.6281 0.0686 -0.7751
vn -0.6053 0.0688 -0.7930
vn -0.9911 0.0348 -0.1285
vn -0.9907 0.0115 -0.1355
vn -0.6015 0.0568 -0.7968
vn -0.5999 0.0197 -0.7998
vn -0.6368 0.0183 -0.7708
vn 0.1230 0.0520 -0.9910
vn -0.6332 0.0560 -0.7720
vn 0.1268 0.0785 -0.9888
vn 0.0946 0.0001 0.9955
vn 0.3775 -0.7071 0.5979
vn -0.4924 -0.3158 -0.8111
vn 0.0001 -1.0000 -0.0001
vn -0.4924 -0.3159 -0.8111
vn -0.3220 -0.7995 -0.5071
vn -0.3192 -0.7995 -0.5089
vn -0.5334 -0.0003 -0.8458
vn 0.7480 0.4307 -0.5049
vn 0.1194 0.1531 -0.9810
vn 0.7443 0.1079 -0.6590
vn -0.1003 -0.0011 -0.9950
vn -0.5349 -0.0006 -0.8449
vn -0.5357 -0.0000 -0.8444
vn 0.4881 0.3106 0.8156
vn 0.5607 -0.0322 0.8274
vn 0.5059 -0.0322 0.8620
vn -0.0007 1.0000 0.0005
vn 0.5567 0.6402 -0.5294
vn -0.0012 1.0000 0.0015
vn -0.0011 1.0000 0.0015
vn 0.1607 0.5093 -0.8455
vn -0.3783 0.7063 -0.5984
vn -0.0007 1.0000 0.0004
vn 0.0005 1.0000 -0.0004
vn 0.0002 1.0000 -0.0002
vn -0.5348 -0.0005 -0.8450
vn -0.4753 0.4637 -0.7477
vn -0.5338 -0.0000 -0.8456
vn 0.7445 0.1079 -0.6589
vn 0.8217 0.0010 -0.5700
vn 0.7940 0.5876 0.1559
vn 0.7920 0.0023 -0.6105
vn 0.5846 0.6997 -0.4107
vn 0.6554 0.0002 -0.7553
vn 0.1195 0.1531 -0.9810
vn -0.1004 -0.0011 -0.9949
vn -0.4718 0.4646 -0.7493
vn -0.8257 0.5432 -0.1517
vn -0.1853 0.9758 0.1164
vn 0.6076 0.6955 -0.3836
vn 0.6075 0.6955 -0.3837
vn -0.2291 0.5861 0.7772
vn -0.8946 -0.0254 0.4462
vn -0.2869 0.0169 0.9578
vn 0.4881 0.3107 0.8156
vn -0.6271 0.3961 -0.6708
vn -0.3542 0.6461 0.6760
vn 0.2794 0.3529 0.8930
vn -0.0925 -0.1807 0.9792
vn -0.7715 -0.4090 0.4874
vn 0.8259 -0.5424 0.1538
vn 0.2341 0.8643 -0.4452
vn -0.3774 0.7070 -0.5981
vn -0.2855 -0.0122 0.9583
vt 0.664966 0.999693
vt 0.674240 0.899587
vt 0.674325 0.999793
vt 0.655553 0.698977
vt 0.646316 0.798668
vt 0.646216 0.698977
vt 0.365058 0.602981
vt 0.399948 0.602574
vt 0.434662 0.563388
vt 0.399595 0.563465
vt 0.364560 0.563841
vt 0.807630 0.715201
vt 0.843824 0.748863
vt 0.879596 0.747536
vt 0.914632 0.746293
vt 0.913313 0.710843
vt 0.878047 0.712071
vt 0.618223 0.899350
vt 0.627482 0.999486
vt 0.618123 0.999563
vt 0.618223 0.698946
vt 0.627383 0.798668
vt 0.617931 0.798914
vt 0.711877 0.899580
vt 0.721090 0.999716
vt 0.711731 0.999816
vt 0.286935 0.897386
vt 0.298903 0.860616
vt 0.258827 0.859220
vt 0.693074 0.698916
vt 0.683792 0.799796
vt 0.683676 0.698916
vt 0.674501 0.799543
vt 0.674279 0.698939
vt 0.665157 0.799229
vt 0.606091 0.022240
vt 0.601419 0.030356
vt 0.588615 0.017552
vt 0.571132 0.012873
vt 0.575819 0.004756
vt 0.583935 0.035028
vt 0.571132 0.022240
vt 0.431896 0.172268
vt 0.431359 0.189697
vt 0.466226 0.190787
vt 0.501131 0.191792
vt 0.535991 0.192743
vt 0.536474 0.175313
vt 0.623315 0.000082
vt 0.632675 0.000082
vt 0.628003 0.017557
vt 0.664851 0.899472
vt 0.655767 0.798899
vt 0.664904 0.698946
vt 0.646178 0.899265
vt 0.646232 0.999501
vt 0.636857 0.999463
vt 0.636857 0.798584
vt 0.627559 0.698977
vt 0.636895 0.698977
vt 0.608879 0.698923
vt 0.711877 0.698946
vt 0.721244 0.698977
vt 0.720952 0.799252
vt 0.341583 0.229043
vt 0.376688 0.227632
vt 0.410841 0.225269
vt 0.408241 0.191100
vt 0.374939 0.192005
vt 0.693059 0.899702
vt 0.693028 0.999916
vt 0.683676 0.999877
vt 0.029029 0.639282
vt 0.019493 0.741620
vt 0.019463 0.639289
vt 0.105322 0.537312
vt 0.096009 0.639266
vt 0.095833 0.537565
vt 0.095986 0.434498
vt 0.086450 0.741635
vt 0.086435 0.639266
vt 0.879433 0.582841
vt 0.855728 0.581867
vt 0.832176 0.581913
vt 0.855889 0.599059
vt 0.086389 0.434490
vt 0.076922 0.537565
vt 0.076784 0.434498
vt 0.120424 0.524833
vt 0.120424 0.559194
vt 0.354497 0.559194
vt 0.354497 0.524833
vt 0.067180 0.434529
vt 0.057905 0.536920
vt 0.057613 0.434552
vt 0.308284 0.000081
vt 0.299999 0.004869
vt 0.313078 0.017933
vt 0.295227 0.013154
vt 0.295227 0.022720
vt 0.299999 0.031005
vt 0.308284 0.035785
vt 0.076938 0.210994
vt 0.076938 0.178083
vt 0.038473 0.178083
vt 0.038473 0.210994
vt 0.567041 0.022705
vt 0.562261 0.031005
vt 0.544402 0.000081
vt 0.562261 0.004869
vt 0.215647 0.161416
vt 0.250383 0.161416
vt 0.904887 0.340364
vt 0.635868 0.322470
vt 0.635868 0.349604
vt 0.319910 0.161416
vt 0.285266 0.150239
vt 0.250383 0.150239
vt 0.758206 0.550682
vt 0.723293 0.550774
vt 0.688441 0.569155
vt 0.723331 0.569101
vt 0.029067 0.741620
vt 0.029029 0.536192
vt 0.009973 0.434567
vt 0.019501 0.434590
vt 0.019340 0.536299
vt 0.105591 0.639251
vt 0.105576 0.741635
vt 0.096009 0.741635
vt 0.105576 0.434529
vt 0.076884 0.741635
vt 0.067256 0.639282
vt 0.067310 0.741635
vt 0.057744 0.741635
vt 0.729612 0.477303
vt 0.722170 0.393576
vt 0.722170 0.477303
vt 0.707288 0.477303
vt 0.699854 0.393576
vt 0.699854 0.477303
vt 0.227773 0.997591
vt 0.264826 0.998588
vt 0.228356 0.981174
vt 0.192299 0.980798
vt 0.759377 0.477303
vt 0.751944 0.393576
vt 0.751944 0.477303
vt 0.744502 0.393576
vt 0.744502 0.477303
vt 0.682509 0.017695
vt 0.682509 0.010254
vt 0.668616 0.013982
vt 0.664895 0.027868
vt 0.672344 0.027868
vt 0.760335 0.760418
vt 0.736861 0.760948
vt 0.737367 0.779045
vt 0.760926 0.778523
vt 0.784409 0.777672
vt 0.783703 0.759567
vt 0.796323 0.133233
vt 0.867369 0.134184
vt 0.866640 0.132335
vt 0.820151 0.132780
vt 0.722170 0.309849
vt 0.722170 0.226122
vt 0.714721 0.226122
vt 0.714721 0.309849
vt 0.707288 0.226122
vt 0.766811 0.309849
vt 0.766811 0.226122
vt 0.759377 0.226122
vt 0.744502 0.309849
vt 0.744502 0.226122
vt 0.737053 0.226122
vt 0.442807 0.032171
vt 0.498648 0.055576
vt 0.443228 0.055108
vt 0.490160 0.573072
vt 0.479826 0.573164
vt 0.479887 0.582907
vt 0.268349 0.010594
vt 0.286945 0.010410
vt 0.286853 0.000084
vt 0.287052 0.020130
vt 0.489485 0.492468
vt 0.499059 0.483415
vt 0.489239 0.483507
vt 0.231035 0.000552
vt 0.489554 0.493411
vt 0.500033 0.517132
vt 0.500133 0.493242
vt 0.499461 0.031864
vt 0.231119 0.010894
vt 0.231204 0.021081
vt 0.249746 0.020736
vt 0.490359 0.597222
vt 0.490275 0.606091
vt 0.500179 0.605945
vt 0.490405 0.596179
vt 0.501007 0.596064
vt 0.500509 0.572980
vt 0.211049 0.049072
vt 0.132547 0.064522
vt 0.210451 0.067997
vt 0.924505 0.893061
vt 0.999018 0.880080
vt 0.999701 0.897525
vt 0.468348 0.602965
vt 0.469636 0.563618
vt 0.133030 0.027461
vt 0.213474 0.031627
vt 0.209362 0.086900
vt 0.370513 0.412451
vt 0.365810 0.430464
vt 0.468417 0.430417
vt 0.467811 0.412566
vt 0.146518 0.393587
vt 0.001082 0.393587
vt 0.073800 0.428976
vt 0.219237 0.428976
vt 0.982101 0.412438
vt 0.943575 0.412438
vt 0.943575 0.379934
vt 0.982101 0.379934
vt 0.412549 0.892783
vt 0.412043 0.857563
vt 0.308086 0.857494
vt 0.307227 0.927819
vt 0.342416 0.928049
vt 0.377529 0.928118
vt 0.412710 0.927949
vt 0.330922 0.013154
vt 0.317850 0.000081
vt 0.326135 0.031005
vt 0.866461 0.412438
vt 0.866461 0.379934
vt 0.795893 0.135104
vt 0.800074 0.151698
vt 0.800328 0.169979
vt 0.797098 0.188307
vt 0.867438 0.187340
vt 0.866426 0.169082
vt 0.866172 0.150823
vt 0.521718 0.646795
vt 0.520683 0.625407
vt 0.487250 0.625545
vt 0.487664 0.647931
vt 0.432775 0.377070
vt 0.364667 0.349391
vt 0.365411 0.375136
vt 0.134204 0.025673
vt 0.208886 0.004907
vt 0.139528 0.001462
vt 0.925763 0.895078
vt 0.992275 0.923701
vt 0.927496 0.919443
vt 0.363240 0.374807
vt 0.471807 0.564247
vt 0.076846 0.639282
vt 0.133061 0.045919
vt 0.434754 0.602122
vt 0.131158 0.082880
vt 0.434930 0.525821
vt 0.399074 0.524601
vt 0.399427 0.544409
vt 0.465486 0.377200
vt 0.468770 0.351301
vt 0.434838 0.353058
vt 0.433243 0.395121
vt 0.366032 0.394346
vt 0.212070 0.029532
vt 0.998512 0.899397
vt 0.433158 0.378842
vt 0.363608 0.376863
vt 0.693059 0.799888
vt 0.683638 0.899679
vt 0.362350 0.564324
vt 0.213420 0.027714
vt 0.157266 0.216090
vt 0.129717 0.237731
vt 0.130101 0.215553
vt 0.185512 0.126694
vt 0.210997 0.108366
vt 0.210368 0.127323
vt 0.963424 0.957231
vt 0.948487 0.977101
vt 0.964827 0.976564
vt 0.211273 0.238667
vt 0.184323 0.216358
vt 0.211450 0.216466
vt 0.157388 0.200317
vt 0.130193 0.200033
vt 0.130316 0.184514
vt 0.157526 0.184736
vt 0.184737 0.185020
vt 0.209938 0.185396
vt 0.211718 0.200946
vt 0.184538 0.200593
vt 0.184937 0.169501
vt 0.205420 0.147645
vt 0.209478 0.169869
vt 0.131712 0.111059
vt 0.157910 0.126931
vt 0.130860 0.126686
vt 0.157879 0.111611
vt 0.979940 0.099498
vt 0.964490 0.131089
vt 0.980032 0.131258
vt 0.130645 0.146877
vt 0.157665 0.169232
vt 0.130454 0.169002
vt 0.979833 0.078953
vt 0.964528 0.097756
vt 0.980492 0.097687
vt 0.156782 0.258544
vt 0.129771 0.276564
vt 0.129387 0.258007
vt 0.276617 0.272311
vt 0.277385 0.290715
vt 0.302662 0.289863
vt 0.301028 0.253362
vt 0.276180 0.253984
vt 0.250296 0.235802
vt 0.224221 0.236677
vt 0.224727 0.255104
vt 0.225072 0.273362
vt 0.157596 0.128550
vt 0.157833 0.147100
vt 0.156475 0.256895
vt 0.128459 0.256358
vt 0.964820 0.998895
vt 0.949201 0.999371
vt 0.185834 0.128343
vt 0.185228 0.147261
vt 0.948548 0.097841
vt 0.964229 0.079045
vt 0.156989 0.238169
vt 0.879494 0.548181
vt 0.879532 0.529655
vt 0.855712 0.529762
vt 0.855643 0.547951
vt 0.185888 0.109916
vt 0.947421 0.958896
vt 0.184108 0.238314
vt 0.935215 0.131243
vt 0.949162 0.130437
vt 0.948748 0.099643
vt 0.980293 0.975942
vt 0.979541 0.956426
vt 0.184116 0.259250
vt 0.947597 0.957147
vt 0.963201 0.955551
vt 0.978943 0.954799
vt 0.156184 0.275253
vt 0.964352 0.099567
vt 0.964083 0.056783
vt 0.948471 0.056890
vt 0.129878 0.128289
vt 0.982101 0.437976
vt 0.982101 0.472721
vt 0.866461 0.472721
vt 0.943575 0.437976
vt 0.079331 0.017899
vt 0.117221 0.059801
vt 0.117221 0.017899
vt 0.079331 0.106873
vt 0.117221 0.106873
vt 0.264381 0.980154
vt 0.298090 0.996042
vt 0.296832 0.977016
vt 0.230135 0.947803
vt 0.264987 0.948041
vt 0.958037 0.753982
vt 0.959356 0.783080
vt 0.936081 0.783962
vt 0.935475 0.754281
vt 0.219237 0.362893
vt 0.073800 0.362893
vt 0.513165 0.889377
vt 0.487150 0.855392
vt 0.462624 0.888410
vt 0.845128 0.783799
vt 0.880885 0.782303
vt 0.702487 0.698923
vt 0.711624 0.799574
vt 0.702472 0.899664
vt 0.702318 0.799812
vt 0.114866 0.256655
vt 0.076938 0.256655
vt 0.038473 0.256655
vt 0.038473 0.285952
vt 0.076938 0.285952
vt 0.277952 0.380080
vt 0.226269 0.380525
vt 0.226423 0.398883
vt 0.278796 0.415224
vt 0.303069 0.398285
vt 0.303483 0.361646
vt 0.265317 0.361722
vt 0.960016 0.805696
vt 0.984527 0.782996
vt 0.985884 0.806056
vt 0.000084 0.176104
vt 0.000084 0.178083
vt 0.114866 0.285952
vt 0.114866 0.236057
vt 0.114866 0.210994
vt 0.267572 0.630869
vt 0.231578 0.664064
vt 0.266606 0.662046
vt 0.296977 0.611921
vt 0.297860 0.630424
vt 0.266897 0.614560
vt 0.226116 0.630202
vt 0.299969 0.757802
vt 0.256986 0.707976
vt 0.261290 0.757004
vt 0.266437 0.664102
vt 0.292375 0.713860
vt 0.299302 0.669733
vt 0.217539 0.718179
vt 0.188441 0.723288
vt 0.184620 0.750990
vt 0.230504 0.666158
vt 0.000084 0.210994
vt 0.600437 0.900255
vt 0.600437 0.870696
vt 0.575949 0.931087
vt 0.076938 0.176104
vt 0.038473 0.148003
vt 0.038473 0.176104
vt 0.926530 0.676070
vt 0.962670 0.676070
vt 0.998358 0.692411
vt 0.962670 0.692411
vt 0.601419 0.004756
vt 0.606091 0.012873
vt 0.593310 0.000084
vt 0.190604 0.669672
vt 0.040897 0.143689
vt 0.079331 0.145944
vt 0.079331 0.143689
vt 0.228969 0.945716
vt 0.197064 0.906975
vt 0.189430 0.943315
vt 0.191087 0.945264
vt 0.191724 0.998780
vt 0.079331 0.109704
vt 0.040897 0.109704
vt 0.758283 0.633879
vt 0.793173 0.652199
vt 0.793173 0.633864
vt 0.793165 0.615529
vt 0.723377 0.615567
vt 0.531337 0.013154
vt 0.536117 0.004869
vt 0.544402 0.035769
vt 0.536117 0.031005
vt 0.114866 0.178083
vt 0.086374 0.537665
vt 0.585858 0.214277
vt 0.585113 0.250264
vt 0.620211 0.251721
vt 0.621960 0.215443
vt 0.076938 0.148003
vt 0.076938 0.236057
vt 0.038473 0.236057
vt 0.000084 0.236057
vt 0.000084 0.256655
vt 0.191947 0.703143
vt 0.223983 0.895667
vt 0.792190 0.121028
vt 0.756510 0.107189
vt 0.791907 0.104496
vt 0.841278 0.913133
vt 0.825629 0.921349
vt 0.842314 0.921633
vt 0.826564 0.912987
vt 0.840036 0.904709
vt 0.825536 0.904709
vt 0.756380 0.122302
vt 0.738237 0.107710
vt 0.829575 0.372244
vt 0.851845 0.389305
vt 0.851876 0.407686
vt 0.829805 0.407671
vt 0.756257 0.129881
vt 0.738045 0.122340
vt 0.737960 0.129935
vt 0.755674 0.138036
vt 0.737937 0.138021
vt 0.737907 0.146129
vt 0.040897 0.017899
vt 0.002539 0.017899
vt 0.002539 0.059801
vt 0.002539 0.106873
vt 0.040897 0.106873
vt 0.398744 0.505192
vt 0.435644 0.507616
vt 0.839767 0.896155
vt 0.824884 0.880981
vt 0.824393 0.896071
vt 0.756311 0.077891
vt 0.792160 0.066929
vt 0.792773 0.075030
vt 0.756380 0.154560
vt 0.737861 0.169834
vt 0.737838 0.154484
vt 0.898387 0.905940
vt 0.883105 0.920884
vt 0.882967 0.905702
vt 0.371821 0.647885
vt 0.370594 0.682905
vt 0.402154 0.716905
vt 0.401073 0.681954
vt 0.404448 0.646872
vt 0.899269 0.881199
vt 0.914167 0.881398
vt 0.914060 0.889569
vt 0.899031 0.889315
vt 0.913937 0.897731
vt 0.921900 0.881483
vt 0.921785 0.889676
vt 0.855256 0.904517
vt 0.757024 0.093334
vt 0.792643 0.089935
vt 0.854817 0.074459
vt 0.854517 0.044748
vt 0.831296 0.023712
vt 0.806870 0.023866
vt 0.796551 0.045453
vt 0.795554 0.074866
vt 0.855655 0.912665
vt 0.735996 0.062418
vt 0.734623 0.046960
vt 0.753557 0.045747
vt 0.793042 0.170088
vt 0.793096 0.177682
vt 0.756395 0.177652
vt 0.855555 0.897206
vt 0.839798 0.897329
vt 0.792083 0.146336
vt 0.793993 0.153824
vt 0.756127 0.153509
vt 0.985785 0.808565
vt 0.961466 0.827514
vt 0.960162 0.808181
vt 0.119630 0.985041
vt 0.176353 0.960591
vt 0.119338 0.961236
vt 0.416933 0.959663
vt 0.417355 0.981903
vt 0.450741 0.982632
vt 0.450971 0.959318
vt 0.009927 0.639305
vt 0.009689 0.536560
vt 0.783020 0.741416
vt 0.759722 0.742275
vt 0.499754 0.480415
vt 0.520084 0.480415
vt 0.523804 0.473963
vt 0.509911 0.470242
vt 0.737053 0.393576
vt 0.737053 0.309849
vt 0.737053 0.477303
vt 0.000084 0.285952
vt 0.831242 0.021280
vt 0.854878 0.020275
vt 0.853244 0.001442
vt 0.808511 0.002209
vt 0.807008 0.021380
vt 0.938566 0.828756
vt 0.936779 0.809340
vt 0.059769 0.834978
vt 0.003130 0.805312
vt 0.001504 0.835315
vt 0.175133 0.804345
vt 0.118042 0.834541
vt 0.177312 0.834134
vt 0.002355 0.936725
vt 0.060329 0.906622
vt 0.001949 0.907044
vt 0.855108 0.022707
vt 0.118640 0.906008
vt 0.174427 0.935436
vt 0.175670 0.905402
vt 0.117666 0.781968
vt 0.060160 0.805067
vt 0.000376 0.741620
vt 0.000376 0.639320
vt 0.060620 0.959655
vt 0.061211 0.936702
vt 0.635868 0.663891
vt 0.613467 0.663891
vt 0.613467 0.690926
vt 0.635868 0.690926
vt 0.343912 0.431391
vt 0.327764 0.431553
vt 0.344641 0.442707
vt 0.359010 0.431921
vt 0.059193 0.782313
vt 0.986230 0.827575
vt 0.793188 0.515262
vt 0.757861 0.515170
vt 0.758168 0.532293
vt 0.793157 0.532316
vt 0.134412 0.648417
vt 0.119422 0.657861
vt 0.134335 0.671125
vt 0.134681 0.658789
vt 0.150200 0.648763
vt 0.688495 0.615583
vt 0.688510 0.652253
vt 0.723392 0.633902
vt 0.119614 0.958888
vt 0.177243 0.958244
vt 0.001312 0.959993
vt 0.177289 0.781599
vt 0.000575 0.782505
vt 0.379188 0.002738
vt 0.362817 0.017314
vt 0.362810 0.001496
vt 0.663016 0.213987
vt 0.680169 0.221727
vt 0.681044 0.214155
vt 0.420600 0.049625
vt 0.436458 0.034197
vt 0.435921 0.050169
vt 0.717744 0.136236
vt 0.700161 0.152116
vt 0.719003 0.152706
vt 0.359894 0.048484
vt 0.343807 0.064916
vt 0.344528 0.046520
vt 0.699379 0.214708
vt 0.715811 0.222118
vt 0.716156 0.214447
vt 0.699087 0.222034
vt 0.677975 0.043625
vt 0.661282 0.059720
vt 0.678781 0.058999
vt 0.405741 0.018540
vt 0.421160 0.000251
vt 0.421444 0.018831
vt 0.330060 0.064180
vt 0.329929 0.046006
vt 0.404728 0.049678
vt 0.419879 0.065704
vt 0.404160 0.065374
vt 0.662686 0.152338
vt 0.681320 0.167796
vt 0.681297 0.152200
vt 0.390582 0.018033
vt 0.405572 0.000289
vt 0.716325 0.119911
vt 0.699839 0.136197
vt 0.662026 0.183684
vt 0.680937 0.197339
vt 0.681197 0.183377
vt 0.406258 0.624625
vt 0.337153 0.626780
vt 0.337851 0.648951
vt 0.680315 0.105358
vt 0.662141 0.121368
vt 0.680760 0.120931
vt 0.421575 0.033453
vt 0.405603 0.020135
vt 0.421644 0.020404
vt 0.696586 0.034964
vt 0.696686 0.042935
vt 0.717407 0.183937
vt 0.699916 0.197554
vt 0.718535 0.197761
vt 0.398920 0.562000
vt 0.435168 0.561946
vt 0.132984 0.023771
vt 0.662210 0.090782
vt 0.661758 0.105895
vt 0.679847 0.089877
vt 0.663154 0.075838
vt 0.715834 0.073989
vt 0.698305 0.089179
vt 0.716364 0.088780
vt 0.679778 0.074603
vt 0.714967 0.057610
vt 0.715642 0.043203
vt 0.714952 0.043119
vt 0.698896 0.104713
vt 0.699011 0.120440
vt 0.677645 0.035938
vt 0.658474 0.036452
vt 0.659863 0.044730
vt 0.358222 0.066213
vt 0.346155 0.016064
vt 0.346577 0.000084
vt 0.700054 0.167973
vt 0.662579 0.167896
vt 0.678681 0.060594
vt 0.660860 0.061354
vt 0.361153 0.032842
vt 0.377439 0.033632
vt 0.376227 0.047509
vt 0.662463 0.136865
vt 0.699739 0.183523
vt 0.436688 0.020297
vt 0.716578 0.103808
vt 0.697568 0.073958
vt 0.488593 0.786501
vt 0.518956 0.822036
vt 0.521511 0.752670
vt 0.219237 0.303639
vt 0.551454 0.934232
vt 0.528163 0.934232
vt 0.219237 0.327604
vt 0.812363 0.872398
vt 0.847246 0.872183
vt 0.847161 0.854746
vt 0.812256 0.854960
vt 0.551454 0.512919
vt 0.600437 0.512919
vt 0.600437 0.934232
vt 0.120424 0.588414
vt 0.120424 0.601195
vt 0.906014 0.047924
vt 0.923996 0.047924
vt 0.906014 0.084057
vt 0.888140 0.084057
vt 0.610519 0.022245
vt 0.610519 0.012878
vt 0.623315 0.035041
vt 0.067448 0.537296
vt 0.057682 0.639282
vt 0.001082 0.428976
vt 0.001082 0.362893
vt 0.361767 0.509120
vt 0.470335 0.508107
vt 0.364851 0.526726
vt 0.369032 0.544946
vt 0.937502 0.573420
vt 0.937679 0.590335
vt 0.914196 0.573151
vt 0.914311 0.536244
vt 0.962005 0.537341
vt 0.961230 0.573635
vt 0.884172 0.897217
vt 0.876516 0.897117
vt 0.060958 0.962003
vt 0.002555 0.986575
vt 0.002033 0.756629
vt 0.001504 0.780165
vt 0.811519 0.820055
vt 0.846977 0.818881
vt 0.809026 0.785157
vt 0.856042 0.634992
vt 0.856073 0.653465
vt 0.879993 0.634992
vt 0.856027 0.616496
vt 0.755996 0.146175
vt 0.791055 0.138136
vt 0.763627 0.985317
vt 0.787147 0.985462
vt 0.787286 0.967319
vt 0.763719 0.967174
vt 0.740175 0.967135
vt 0.211841 0.257324
vt 0.184354 0.256626
vt 0.307544 0.228798
vt 0.340578 0.193256
vt 0.307322 0.194844
vt 0.038695 0.536284
vt 0.048116 0.639282
vt 0.048177 0.741620
vt 0.219237 0.393587
vt 0.680623 0.488229
vt 0.680623 0.451551
vt 0.613467 0.451551
vt 0.613467 0.561945
vt 0.680623 0.561945
vt 0.600437 0.931087
vt 0.377659 0.963461
vt 0.342209 0.963445
vt 0.219237 0.330865
vt 0.001082 0.330865
vt 0.360194 0.046934
vt 0.333052 0.029857
vt 0.331640 0.015205
vt 0.926530 0.692411
vt 0.962670 0.701501
vt 0.926530 0.701501
vt 0.821578 0.936303
vt 0.857136 0.954416
vt 0.821578 0.954416
vt 0.872444 0.132464
vt 0.888140 0.168305
vt 0.872444 0.168305
vt 0.906014 0.132464
vt 0.906014 0.168305
vt 0.872444 0.204546
vt 0.888140 0.240349
vt 0.872444 0.240349
vt 0.923996 0.240349
vt 0.888140 0.204546
vt 0.906014 0.204546
vt 0.808417 0.582895
vt 0.832046 0.599113
vt 0.761793 0.815254
vt 0.737781 0.815101
vt 0.738978 0.847237
vt 0.739653 0.879795
vt 0.762836 0.878943
vt 0.784455 0.878667
vt 0.807669 0.878982
vt 0.810108 0.812654
vt 0.285266 0.084417
vt 0.285266 0.053095
vt 0.215647 0.053095
vt 0.215647 0.084417
vt 0.923996 0.168305
vt 0.926530 0.673976
vt 0.926530 0.645476
vt 0.890804 0.660129
vt 0.890804 0.645476
vt 0.962670 0.660129
vt 0.926530 0.660129
vt 0.962670 0.645476
vt 0.998358 0.645476
vt 0.552157 0.213724
vt 0.551589 0.251146
vt 0.888140 0.288756
vt 0.872444 0.325226
vt 0.872444 0.288756
vt 0.923996 0.084057
vt 0.906014 0.288756
vt 0.888140 0.325226
vt 0.890804 0.673976
vt 0.820028 0.954416
vt 0.820028 0.936303
vt 0.890804 0.692411
vt 0.890804 0.676070
vt 0.857143 0.936303
vt 0.888140 0.086274
vt 0.177135 0.867566
vt 0.177435 0.845127
vt 0.118042 0.846401
vt 0.059846 0.846892
vt 0.001534 0.847260
vt 0.060206 0.894678
vt 0.118479 0.894102
vt 0.176146 0.892599
vt 0.134282 0.689606
vt 0.134289 0.726544
vt 0.149939 0.726521
vt 0.165528 0.707949
vt 0.165390 0.689437
vt 0.134251 0.672652
vt 0.118770 0.672337
vt 0.923996 0.132464
vt 0.998358 0.660129
vt 0.888140 0.047924
vt 0.215647 0.150239
vt 0.250383 0.139560
vt 0.215647 0.139560
vt 0.645471 0.022245
vt 0.640799 0.030361
vt 0.640799 0.004761
vt 0.635868 0.660577
vt 0.658307 0.626025
vt 0.635868 0.626025
vt 0.758229 0.569047
vt 0.688479 0.584636
vt 0.793165 0.600033
vt 0.793165 0.584528
vt 0.319910 0.084417
vt 0.285266 0.107440
vt 0.319910 0.107440
vt 0.285266 0.136752
vt 0.319910 0.136752
vt 0.832115 0.529770
vt 0.832191 0.547928
vt 0.658307 0.660577
vt 0.680623 0.626025
vt 0.857136 0.970281
vt 0.928627 0.970281
vt 0.928627 0.984872
vt 0.857136 0.984872
vt 0.821578 0.984872
vt 0.821578 0.970281
vt 0.982101 0.352101
vt 0.943575 0.340364
vt 0.982101 0.340364
vt 0.943575 0.352101
vt 0.188686 0.631997
vt 0.192384 0.667754
vt 0.904887 0.364966
vt 0.943575 0.364966
vt 0.707288 0.393576
vt 0.707288 0.309849
vt 0.699854 0.226122
vt 0.699854 0.309849
vt 0.613467 0.598875
vt 0.613467 0.626025
vt 0.613467 0.660577
vt 0.658307 0.663891
vt 0.680623 0.690926
vt 0.680623 0.663891
vt 0.937403 0.592154
vt 0.820020 0.092942
vt 0.843096 0.106896
vt 0.913859 0.617309
vt 0.635868 0.598875
vt 0.465137 0.225730
vt 0.429733 0.224526
vt 0.463449 0.260736
vt 0.499313 0.262071
vt 0.319910 0.150239
vt 0.120424 0.491891
vt 0.354497 0.491891
vt 0.215647 0.107440
vt 0.215647 0.136752
vt 0.250383 0.136752
vt 0.584942 0.380300
vt 0.519466 0.381726
vt 0.520302 0.400054
vt 0.521169 0.436961
vt 0.553052 0.417798
vt 0.554041 0.436279
vt 0.584904 0.416854
vt 0.584428 0.398596
vt 0.680623 0.387471
vt 0.680623 0.352919
vt 0.658307 0.352919
vt 0.790825 0.043116
vt 0.791569 0.058582
vt 0.754531 0.061183
vt 0.658307 0.414613
vt 0.680623 0.414613
vt 0.680623 0.660577
vt 0.943575 0.376819
vt 0.613467 0.349604
vt 0.866461 0.364966
vt 0.904887 0.352101
vt 0.658307 0.690926
vt 0.913375 0.590082
vt 0.890115 0.591034
vt 0.889387 0.589185
vt 0.251462 0.291444
vt 0.264082 0.272610
vt 0.890675 0.629545
vt 0.890346 0.616779
vt 0.252268 0.361815
vt 0.226246 0.361937
vt 0.865474 0.093417
vt 0.842897 0.094338
vt 0.225280 0.291612
vt 0.795663 0.106444
vt 0.819721 0.106313
vt 0.795924 0.093241
vt 0.807983 0.776528
vt 0.264581 0.290983
vt 0.913598 0.591916
vt 0.906014 0.100934
vt 0.923996 0.100934
vt 0.923996 0.116453
vt 0.906014 0.116453
vt 0.872444 0.116453
vt 0.888140 0.100934
vt 0.600437 0.836620
vt 0.600437 0.610532
vt 0.528163 0.610532
vt 0.528163 0.761254
vt 0.528163 0.836620
vt 0.961269 0.592008
vt 0.962074 0.590182
vt 0.303844 0.416819
vt 0.304626 0.414971
vt 0.831969 0.670389
vt 0.832168 0.672053
vt 0.856111 0.671984
vt 0.856303 0.670320
vt 0.298090 0.201188
vt 0.276103 0.235518
vt 0.301143 0.234927
vt 0.268595 0.027334
vt 0.287145 0.026543
vt 0.268449 0.020406
vt 0.250022 0.027848
vt 0.252751 0.417287
vt 0.226714 0.417640
vt 0.228364 0.452262
vt 0.253373 0.451993
vt 0.763765 0.930665
vt 0.786465 0.930772
vt 0.809403 0.913097
vt 0.786357 0.912222
vt 0.276410 0.237329
vt 0.301995 0.236707
vt 0.299310 0.827736
vt 0.300238 0.792148
vt 0.193443 0.789793
vt 0.193673 0.824637
vt 0.184421 0.863953
vt 0.723822 0.498193
vt 0.692292 0.497917
vt 0.723185 0.514165
vt 0.758129 0.513835
vt 0.890936 0.572706
vt 0.264596 0.945908
vt 0.296387 0.937991
vt 0.199142 0.892606
vt 0.462053 0.295764
vt 0.499114 0.298142
vt 0.535070 0.263935
vt 0.274638 0.202730
vt 0.962406 0.253880
vt 0.930754 0.254855
vt 0.927263 0.242542
vt 0.945851 0.254180
vt 0.225840 0.415937
vt 0.252452 0.415561
vt 0.879057 0.566731
vt 0.855474 0.565887
vt 0.690535 0.686284
vt 0.724183 0.693955
vt 0.724167 0.686214
vt 0.759019 0.686184
vt 0.791577 0.686130
vt 0.758306 0.670565
vt 0.962584 0.186432
vt 0.947073 0.203425
vt 0.962730 0.203409
vt 0.791631 0.693855
vt 0.759027 0.693917
vt 0.723415 0.670603
vt 0.688510 0.670611
vt 0.319910 0.053095
vt 0.120424 0.453925
vt 0.354497 0.453925
vt 0.723400 0.652245
vt 0.947211 0.186432
vt 0.962546 0.168274
vt 0.947234 0.168274
vt 0.936418 0.806854
vt 0.756387 0.169957
vt 0.793326 0.154806
vt 0.327909 0.407211
vt 0.327495 0.418066
vt 0.343974 0.417959
vt 0.359831 0.416409
vt 0.791815 0.490583
vt 0.758850 0.498070
vt 0.791769 0.498347
vt 0.723254 0.532454
vt 0.688410 0.550820
vt 0.793150 0.550674
vt 0.793150 0.569032
vt 0.962815 0.217755
vt 0.976409 0.229224
vt 0.977091 0.217916
vt 0.163257 0.647574
vt 0.150170 0.658973
vt 0.164323 0.657899
vt 0.947119 0.204744
vt 0.962677 0.204729
vt 0.933402 0.229247
vt 0.946996 0.217748
vt 0.932719 0.217932
vt 0.427293 0.259370
vt 0.425621 0.329365
vt 0.758037 0.669237
vt 0.758290 0.652214
vt 0.793180 0.669222
vt 0.635868 0.352919
vt 0.613467 0.352919
vt 0.613467 0.387471
vt 0.915745 0.781368
vt 0.134995 0.635261
vt 0.150039 0.647083
vt 0.150990 0.635506
vt 0.931814 0.229355
vt 0.498640 0.024116
vt 0.498602 0.030890
vt 0.443420 0.024384
vt 0.443443 0.020986
vt 0.587566 0.356548
vt 0.553428 0.357300
vt 0.518875 0.358006
vt 0.485527 0.382302
vt 0.722886 0.669276
vt 0.759377 0.393576
vt 0.759377 0.309849
vt 0.751944 0.226122
vt 0.751944 0.309849
vt 0.117021 0.755731
vt 0.117328 0.779651
vt 0.176307 0.779290
vt 0.179943 0.998673
vt 0.178294 0.986767
vt 0.149901 0.708018
vt 0.165597 0.726491
vt 0.688403 0.532469
vt 0.687712 0.669283
vt 0.722656 0.515500
vt 0.687620 0.515454
vt 0.933440 0.230889
vt 0.947134 0.230597
vt 0.500172 0.226751
vt 0.312428 0.370656
vt 0.328669 0.352344
vt 0.312129 0.352613
vt 0.808218 0.672161
vt 0.655606 0.999578
vt 0.655507 0.899350
vt 0.961555 0.332721
vt 0.977980 0.314278
vt 0.978225 0.332498
vt 0.879739 0.599711
vt 0.880016 0.616565
vt 0.345592 0.370127
vt 0.328976 0.370434
vt 0.832007 0.495371
vt 0.808417 0.511120
vt 0.832145 0.511435
vt 0.808164 0.599803
vt 0.831961 0.616512
vt 0.923996 0.256351
vt 0.923996 0.271879
vt 0.906014 0.271879
vt 0.888140 0.286539
vt 0.872444 0.271879
vt 0.872444 0.256351
vt 0.888140 0.256351
vt 0.944547 0.314754
vt 0.944862 0.332974
vt 0.880054 0.671946
vt 0.880645 0.670274
vt 0.880023 0.653442
vt 0.807942 0.616688
vt 0.832046 0.635046
vt 0.808049 0.635169
vt 0.832107 0.653534
vt 0.344457 0.405224
vt 0.360575 0.404403
vt 0.345232 0.388347
vt 0.328730 0.388638
vt 0.855697 0.511435
vt 0.925655 0.876053
vt 0.922264 0.859475
vt 0.921981 0.841477
vt 0.999916 0.843410
vt 0.345216 0.352045
vt 0.361442 0.369743
vt 0.361020 0.351677
vt 0.832391 0.565903
vt 0.808402 0.548181
vt 0.808739 0.566708
vt 0.740175 0.930895
vt 0.763795 0.948938
vt 0.763596 0.912199
vt 0.739822 0.912867
vt 0.296103 0.940423
vt 0.002539 0.143689
vt 0.962391 0.277777
vt 0.946273 0.267528
vt 0.962752 0.267152
vt 0.880031 0.687864
vt 0.855889 0.513138
vt 0.313533 0.444771
vt 0.328293 0.442784
vt 0.962531 0.150154
vt 0.947241 0.150154
vt 0.343905 0.425546
vt 0.983215 0.752985
vt 0.807627 0.670488
vt 0.961286 0.314508
vt 0.890890 0.536520
vt 0.808141 0.653642
vt 0.879387 0.511082
vt 0.879425 0.495079
vt 0.855858 0.495386
vt 0.808310 0.529693
vt 0.831954 0.513138
vt 0.879977 0.512770
vt 0.807834 0.512816
vt 0.114866 0.176104
vt 0.114866 0.148003
vt 0.466437 0.395865
vt 0.389354 0.049671
vt 0.390505 0.034519
vt 0.680623 0.598875
vt 0.809510 0.931232
vt 0.787163 0.949076
vt 0.810438 0.949399
vt 0.810845 0.967565
vt 0.807170 0.758416
vt 0.906014 0.325226
vt 0.928627 0.936303
vt 0.928627 0.954416
vt 0.486900 0.400568
vt 0.530361 0.148697
vt 0.498608 0.130254
vt 0.498347 0.165942
vt 0.530468 0.165651
vt 0.487652 0.418849
vt 0.302386 0.313499
vt 0.737766 0.797103
vt 0.542237 0.074588
vt 0.573591 0.092425
vt 0.541485 0.092732
vt 0.606870 0.115700
vt 0.572455 0.115716
vt 0.865605 0.106313
vt 0.843718 0.132588
vt 0.606785 0.092264
vt 0.606402 0.036070
vt 0.639735 0.056092
vt 0.639873 0.074397
vt 0.640686 0.092655
vt 0.538563 0.115907
vt 0.572494 0.127522
vt 0.538156 0.127706
vt 0.948625 0.079145
vt 0.059500 0.779981
vt 0.528163 0.870696
vt 0.528163 0.900255
vt 0.528163 0.931087
vt 0.551454 0.931087
vt 0.736331 0.742797
vt 0.810676 0.985685
vt 0.391559 0.152296
vt 0.419038 0.161770
vt 0.421631 0.153140
vt 0.785893 0.309253
vt 0.805993 0.277654
vt 0.807573 0.309851
vt 0.600437 0.546897
vt 0.600437 0.516065
vt 0.551454 0.516065
vt 0.528163 0.516065
vt 0.528163 0.546897
vt 0.528163 0.576463
vt 0.600437 0.576463
vt 0.048331 0.536560
vt 0.048070 0.434575
vt 0.499038 0.086074
vt 0.531987 0.110546
vt 0.532102 0.086289
vt 0.530813 0.130040
vt 0.499099 0.110983
vt 0.465820 0.148689
vt 0.465091 0.165727
vt 0.435387 0.148221
vt 0.434114 0.164991
vt 0.327640 0.111184
vt 0.358142 0.129020
vt 0.358096 0.109972
vt 0.573928 0.074067
vt 0.540335 0.038502
vt 0.424730 0.129557
vt 0.851393 0.223263
vt 0.829606 0.206017
vt 0.851653 0.206278
vt 0.851884 0.426957
vt 0.830204 0.444042
vt 0.830020 0.425868
vt 0.783945 0.222219
vt 0.806307 0.205611
vt 0.805831 0.223746
vt 0.829053 0.277953
vt 0.829375 0.309851
vt 0.298711 0.667493
vt 0.740221 0.948992
vt 0.806395 0.740257
vt 0.784413 0.276488
vt 0.452406 0.625852
vt 0.418989 0.626381
vt 0.418390 0.648069
vt 0.452383 0.648284
vt 0.882059 0.872037
vt 0.916849 0.871807
vt 0.916734 0.854324
vt 0.945905 0.279802
vt 0.962460 0.279496
vt 0.961624 0.296173
vt 0.945115 0.296434
vt 0.929918 0.280201
vt 0.535086 0.227587
vt 0.329574 0.719161
vt 0.341994 0.683795
vt 0.314369 0.684662
vt 0.342470 0.788205
vt 0.316663 0.754588
vt 0.311492 0.789163
vt 0.342846 0.822987
vt 0.375971 0.787545
vt 0.308907 0.822627
vt 0.377206 0.822742
vt 0.493851 0.332764
vt 0.460442 0.330178
vt 0.738122 0.078950
vt 0.737047 0.070810
vt 0.755137 0.069583
vt 0.528365 0.337919
vt 0.831938 0.487154
vt 0.880016 0.695958
vt 0.856119 0.688233
vt 0.832245 0.688294
vt 0.808348 0.688072
vt 0.808210 0.495156
vt 0.302908 0.650040
vt 0.375066 0.752685
vt 0.407678 0.751726
vt 0.408905 0.787038
vt 0.916450 0.816649
vt 0.881806 0.817101
vt 0.807722 0.750190
vt 0.829429 0.224191
vt 0.851362 0.242518
vt 0.851285 0.260907
vt 0.829222 0.242457
vt 0.829076 0.260922
vt 0.806085 0.260546
vt 0.784581 0.259664
vt 0.805655 0.242035
vt 0.783906 0.241176
vt 0.350325 0.718501
vt 0.344219 0.753591
vt 0.342270 0.984971
vt 0.377598 0.984971
vt 0.483384 0.924014
vt 0.308557 0.266695
vt 0.343163 0.264885
vt 0.443116 0.887973
vt 0.454623 0.923423
vt 0.452836 0.684255
vt 0.487918 0.683895
vt 0.454040 0.786570
vt 0.424650 0.820440
vt 0.453956 0.821553
vt 0.429936 0.853865
vt 0.456111 0.854770
vt 0.487718 0.821883
vt 0.484941 0.959886
vt 0.379028 0.263320
vt 0.416158 0.330614
vt 0.380876 0.298662
vt 0.382702 0.331804
vt 0.343769 0.301417
vt 0.306938 0.304853
vt 0.428156 0.923292
vt 0.518220 0.855929
vt 0.619697 0.288775
vt 0.584968 0.306465
vt 0.619896 0.306488
vt 0.657548 0.147404
vt 0.623057 0.180062
vt 0.657809 0.181113
vt 0.469744 0.544808
vt 0.471309 0.562153
vt 0.278551 0.417057
vt 0.278182 0.452032
vt 0.302424 0.452016
vt 0.306851 0.962993
vt 0.536750 0.301479
vt 0.412994 0.963069
vt 0.656788 0.216478
s 1
usemtl MAT_Cardboard.001
f 20/1/1 19/2/2 18/3/3
f 6/4/4 4/5/5 7/6/6
f 85/7/7 82/8/8 81/9/9 64/10/10 73/11/11
f 457/12/12 505/13/13 504/14/14 501/15/15 502/16/16 503/17/17
f 10/18/18 8/19/19 11/20/20
f 497/21/21 9/22/22 12/23/23
f 10/24/18 11/25/20 15/26/24
f 133/27/25 128/28/26 127/29/27
f 16/30/28 17/31/29 48/32/30
f 48/32/30 25/33/31 44/34/32
f 4/35/5 44/34/32 25/33/31
f 44/36/32 6/37/4 1/38/33
f 13/39/34 16/40/35 1/38/33 6/37/4 7/41/6 497/42/21
f 472/43/36 453/44/37 471/45/38 466/46/39 465/47/40 509/48/41
f 15/49/24 11/50/20 3/51/42
f 2/52/43 4/35/5 25/33/31
f 4/53/5 6/4/4 44/54/32
f 5/55/44 20/56/1 8/57/19
f 7/6/6 4/5/5 9/58/22
f 497/59/21 7/60/6 9/58/22
f 13/61/34 497/21/21 12/23/23
f 16/62/35 13/63/34 12/64/23
f 463/65/45 12/66/46 454/67/47 453/68/48 471/69/49
f 14/70/50 15/71/24 18/72/51
f 19/73/52 15/74/53 26/75/54
f 28/76/55 30/77/56 495/78/57
f 32/79/58 28/76/55 495/78/57
f 30/77/56 31/80/59 33/81/60
f 312/82/61 369/83/62 302/84/62 380/85/62
f 32/86/58 35/87/63 36/88/64
f 285/89/65 241/90/66 238/91/67 226/92/68
f 36/93/64 38/94/69 21/95/70
f 21/96/70 48/97/71 22/98/72
f 48/99/71 16/100/73 22/98/72
f 16/101/73 29/102/74 22/98/72
f 131/103/75 137/104/76 146/105/77 123/106/78
f 31/107/59 27/108/79 23/109/80 34/110/81
f 300/111/82 295/112/83 279/113/84 297/114/85 275/115/86 274/116/87 299/117/88 296/118/89
f 56/119/90 354/120/91 184/121/92 177/122/93
f 19/73/52 18/123/94 15/74/53
f 17/124/95 19/73/52 26/75/54
f 29/125/74 16/126/73 17/127/95
f 30/128/56 27/129/79 31/130/59
f 32/79/58 29/131/74 28/76/55
f 495/78/57 30/77/56 33/81/60
f 33/81/60 31/80/59 34/132/81
f 37/133/96 34/134/81 23/135/80
f 40/136/97 43/137/98 44/138/99
f 44/139/99 47/140/100 48/141/101
f 118/142/102 153/143/103 145/144/104 146/145/105
f 48/146/101 52/147/106 50/148/107
f 50/148/107 52/149/106 40/150/97
f 40/151/97 44/152/99 48/153/108
f 50/154/107 40/155/97 48/153/101
f 416/156/109 434/157/110 408/158/111 412/159/112 413/160/113 417/161/114
f 328/162/115 310/163/116 325/164/117 314/165/118
f 42/166/119 39/167/120 41/168/121
f 42/169/119 41/168/121 45/170/122
f 46/171/123 45/172/122 49/173/124
f 51/174/125 49/175/124 39/176/120
f 58/177/126 178/178/127 175/179/128
f 175/180/128 53/181/129 56/182/130
f 177/183/131 53/184/129 175/185/128
f 177/183/131 56/186/130 53/184/129
f 59/187/132 57/188/133 54/189/134
f 178/190/127 177/183/135 175/185/128
f 59/191/132 178/192/127 57/193/136
f 58/177/126 57/194/136 178/178/127
f 178/195/127 59/196/132 54/197/134
f 56/198/137 55/199/138 58/200/139
f 56/201/130 58/202/126 175/203/128
f 68/204/140 69/205/141 65/206/142
f 84/207/143 70/208/144 71/209/145
f 81/9/9 72/210/146 71/211/147
f 73/212/148 68/204/140 74/213/149
f 69/205/141 66/214/150 65/206/142
f 65/215/142 66/216/150 62/217/151 67/218/152
f 234/219/153 229/220/154 228/221/155 233/222/156
f 427/223/157 292/224/158 288/225/159 287/226/160
f 482/227/161 457/228/162 460/229/163 464/230/164 493/231/165 496/232/166 506/233/167
f 32/234/58 36/235/64 21/96/70 22/98/72 29/236/74
f 288/225/159 292/224/158 280/237/168 294/238/169
f 328/239/115 311/240/170 304/241/171 306/242/172 309/243/173 308/244/174 310/245/116
f 477/246/175 488/247/176 483/248/177 495/249/178
f 80/250/179 85/251/180 74/252/181
f 73/253/148 86/254/182 64/255/183
f 84/256/143 81/257/184 80/258/185
f 85/251/180 68/259/186 74/252/181
f 72/210/146 70/260/187 71/211/147
f 35/87/63 33/261/60 34/134/81 37/133/96
f 68/204/140 78/262/188 69/205/141
f 82/8/8 83/263/189 81/9/9
f 81/9/9 83/263/189 72/210/146
f 73/212/148 78/262/188 68/204/140
f 69/205/141 79/264/190 66/214/150
f 75/265/191 77/266/192 76/267/193
f 84/268/194 72/269/146 83/270/189
f 80/271/179 68/272/140 65/215/142
f 73/253/148 74/273/149 86/254/182
f 84/256/143 71/274/145 81/257/184
f 80/275/179 74/276/181 68/272/140
f 17/277/195 14/70/50 18/72/51 19/278/196
f 85/7/7 73/11/11 78/279/197
f 86/254/182 74/273/149 68/280/198
f 93/281/199 94/282/200 91/283/201
f 109/284/202 112/285/203 110/286/204
f 114/287/205 90/288/206 112/289/207
f 90/290/206 97/291/208 98/292/209
f 93/293/199 91/294/201 87/295/210 99/296/211 101/297/212 105/298/213 98/299/209 97/300/208
f 101/301/212 112/302/207 105/303/213
f 111/304/214 102/305/215 104/306/216
f 95/307/217 109/284/218 102/305/219
f 104/308/220 95/309/221 102/310/222
f 92/311/223 99/312/211 87/313/210
f 92/314/223 111/315/224 104/316/225
f 96/317/226 111/318/227 108/319/228
f 315/320/229 316/321/230 319/322/231 317/323/232 330/324/233 324/325/234 325/326/117 310/327/116 308/328/174
f 92/311/223 102/329/219 103/330/235
f 94/282/200 96/331/236 108/332/237
f 105/333/213 90/288/206 98/334/209
f 109/335/218 112/302/207 106/336/238
f 108/337/237 111/315/224 92/338/223
f 93/281/199 100/339/239 94/282/200
f 377/340/240 385/341/241 391/342/242 390/343/243
f 109/284/244 88/344/245 112/285/246
f 114/287/205 113/345/247 90/288/206
f 90/290/206 107/346/248 97/291/208
f 96/347/249 95/348/250 108/349/251
f 112/350/207 110/351/252 114/287/205
f 101/301/212 106/336/238 112/302/207
f 111/304/214 95/307/253 102/305/215
f 96/317/236 89/352/254 113/353/247 114/354/205 110/355/252 109/284/218 95/356/217
f 104/308/220 111/357/255 95/309/221
f 92/311/223 103/330/235 99/312/211
f 96/317/226 95/356/256 111/318/227
f 92/338/223 87/358/210 91/359/201
f 92/311/223 104/360/225 102/329/219
f 94/282/200 100/339/239 96/331/236
f 105/333/213 112/289/207 90/288/206
f 111/357/255 108/349/251 95/348/250
f 289/361/257 290/362/258 276/363/259 280/237/168 292/224/158 291/364/260 427/223/157
f 117/365/261 155/366/262 116/367/263
f 155/366/262 139/368/264 138/369/265
f 150/370/266 152/371/267 121/372/268
f 145/144/104 153/143/103 150/370/269
f 147/373/270 150/370/269 129/374/271
f 174/375/272 186/376/273 190/377/274 183/378/275
f 229/220/154 234/219/153 235/379/276 231/380/277
f 501/381/278 40/382/279 491/383/280
f 507/384/281 455/385/282 504/14/14 505/13/13
f 16/386/35 12/387/23 10/24/18 15/26/24 14/388/50 17/389/195
f 134/390/283 131/391/284 123/392/285 132/393/286 87/394/287
f 323/395/288 304/396/171 311/397/170 312/398/289 321/399/290 303/400/291 305/401/292
f 192/402/293 186/376/273 191/403/294 170/404/295
f 146/105/77 119/405/296 170/406/297
f 134/390/283 87/394/287 135/407/298
f 136/408/299 131/391/284 134/390/283
f 104/409/300 137/104/76 131/103/75
f 139/368/264 155/366/262 117/365/261
f 148/410/301 130/411/302 140/412/303
f 152/413/267 148/410/304 139/414/305
f 153/415/103 118/416/102 148/410/301
f 116/417/263 141/418/306 142/419/307
f 140/420/303 155/421/262 138/422/265
f 136/423/299 134/424/283 135/425/298 142/419/307
f 130/426/302 141/418/306 140/420/303
f 123/106/78 170/406/297 124/427/308
f 285/428/65 227/429/309 237/430/310
f 137/431/76 145/432/311 146/433/77
f 270/434/312 244/435/313 265/436/314 252/437/315
f 48/438/30 44/439/32 1/38/33 16/440/35
f 131/103/75 136/408/299 104/409/300
f 115/441/316 136/423/299 130/426/302
f 150/442/317 153/443/318 148/444/319
f 147/445/270 124/446/308 170/447/297
f 147/445/270 170/447/297 119/448/296
f 146/145/105 149/449/320 118/142/102
f 139/450/264 121/451/321 150/442/317 148/444/319
f 150/370/266 153/143/322 152/371/267
f 147/373/270 145/144/104 150/370/269
f 346/452/323 347/453/324 336/454/325 188/455/326 176/456/327
f 18/457/328 23/458/80 27/459/79 15/460/53
f 104/409/300 115/461/316 137/104/76
f 152/413/267 153/415/322 148/410/304
f 116/417/263 155/421/262 141/418/306
f 140/420/303 141/418/306 155/421/262
f 142/419/307 141/418/306 136/423/299
f 130/426/302 136/423/299 141/418/306
f 123/106/78 146/105/77 170/406/297
f 32/86/58 495/462/57 33/261/60 35/87/63
f 455/463/329 473/464/330 479/465/331 507/466/332
f 137/431/76 151/467/333 145/432/311
f 144/468/334 143/469/335 125/470/336 124/471/337 123/392/338 131/391/284 136/408/299
f 115/441/316 104/472/300 136/423/299
f 147/445/270 125/473/339 124/446/308
f 155/474/340 201/475/341 216/476/342
f 205/477/343 155/478/340 216/479/342
f 155/480/340 159/481/344 163/482/345
f 212/483/346 154/484/347 201/475/341
f 410/485/348 429/486/349 408/487/350 412/488/351
f 155/474/340 156/489/352 212/483/346
f 198/490/353 156/489/354 467/491/355
f 467/491/355 156/492/354 206/493/356
f 156/492/352 164/494/357 206/493/358
f 139/368/264 117/365/261 126/495/359 128/496/26 133/497/25 120/498/360 121/499/321
f 60/500/361 77/266/192 75/265/191 61/501/362
f 159/502/363 160/503/364 163/504/365
f 201/505/366 166/506/367 209/507/368
f 157/508/369 158/509/370 164/510/357
f 158/511/371 167/512/372 165/513/373
f 498/514/374 492/515/375 501/516/15 490/517/376 456/518/377
f 155/474/340 212/483/346 201/475/341
f 155/480/340 205/477/343 159/481/344
f 212/483/346 198/490/378 154/484/379
f 198/490/378 212/483/346 156/489/380
f 154/519/381 198/520/382 206/521/383
f 154/522/384 206/521/358 164/523/357
f 198/520/353 467/524/355 206/525/356
f 209/526/368 159/481/344 205/477/343
f 201/527/341 209/528/385 216/476/342
f 173/529/386 189/530/387 182/531/388 179/532/389 185/533/390 307/534/391
f 209/535/392 205/477/393 216/479/394
f 165/536/395 158/537/370 162/538/396
f 163/539/345 159/540/344 162/541/396
f 209/526/368 166/542/367 159/543/344
f 155/544/340 163/545/345 157/546/369
f 170/547/397 171/548/398 192/549/399
f 177/550/400 170/551/295 175/552/401
f 462/553/402 485/554/403 484/555/404 500/556/405
f 29/125/74 17/127/95 26/557/54 28/558/55
f 417/161/114 437/559/406 403/560/407 416/156/109
f 41/561/121 39/562/120 49/563/124 45/564/122
f 52/565/106 51/566/125 39/176/120 40/567/97
f 122/568/408 132/393/286 123/392/285 124/471/409
f 182/569/410 193/570/411 194/571/412 197/572/413 179/573/414
f 192/549/399 178/574/415 196/575/416
f 172/576/417 189/577/387 173/578/386
f 190/579/274 181/580/418 183/581/275
f 185/582/390 169/583/419 307/584/391
f 182/531/388 189/530/387 193/585/420
f 180/586/421 191/587/294 122/588/422
f 172/576/417 181/580/418 190/579/274 184/589/423 187/590/424 189/577/387
f 26/75/54 15/74/53 27/591/79 30/592/56 28/558/55
f 185/582/390 188/593/425 168/594/426
f 283/595/427 287/596/160 288/597/159 301/598/428
f 397/599/429 392/600/430 399/601/431 387/602/432
f 176/603/433 189/577/387 187/590/424
f 170/547/397 195/604/434 171/548/398
f 192/549/399 171/548/398 178/574/415
f 363/605/435 353/606/436 356/607/437 342/608/438
f 364/609/439 332/610/440 361/611/441 362/612/442 357/613/443
f 185/582/390 168/594/426 169/583/419
f 340/614/444 341/615/445 348/616/446
f 175/617/401 170/618/295 191/587/294 168/594/426
f 185/582/390 179/619/389 188/593/425
f 168/594/426 188/593/425 175/617/401
f 190/579/274 196/620/447 184/589/423
f 184/589/423 176/603/433 187/590/424
f 176/603/433 193/621/420 189/577/387
f 214/622/448 203/623/449 468/624/450
f 209/625/451 201/626/452 205/627/453
f 202/628/454 216/629/455 204/630/456
f 468/631/450 207/632/457 214/633/448
f 156/634/458 154/635/459 198/636/460
f 212/637/461 206/638/462 156/639/463
f 205/627/464 206/640/462 212/637/461
f 201/641/465 220/642/466 221/643/467
f 210/644/468 205/645/469 209/646/470
f 198/636/471 154/647/472 222/648/473
f 202/649/454 204/650/456 211/651/474
f 204/652/456 215/653/475 208/654/476
f 220/655/466 201/656/465 210/644/477
f 200/657/478 207/658/457 468/631/450
f 216/659/455 205/660/464 215/661/475
f 456/518/377 489/662/479 484/663/480 500/664/481 498/514/374
f 218/665/482 211/666/474 208/667/476
f 202/668/454 210/669/477 209/670/483
f 206/671/462 201/641/484 154/672/485
f 214/673/448 212/674/461 156/675/486
f 64/676/10 81/677/9 76/267/193 77/266/192 78/678/188 73/253/487
f 218/665/482 217/679/488 211/680/474
f 218/681/482 210/682/477 217/679/488
f 198/683/489 199/684/490 219/685/491
f 199/684/490 221/686/467 218/681/482
f 222/687/492 198/688/493 206/689/494
f 199/690/490 207/691/457 200/657/478
f 201/692/495 209/693/496 210/694/497
f 156/634/458 212/695/498 154/635/459
f 203/696/449 200/697/478 468/624/450
f 205/627/464 201/626/484 206/640/462
f 210/644/468 201/656/499 205/645/469
f 214/633/448 207/632/457 213/698/500
f 204/699/456 216/659/455 215/661/475
f 221/700/467 220/701/466 210/682/477
f 203/702/449 214/703/448 156/704/486
f 222/687/492 206/689/494 154/672/501
f 154/672/502 201/641/465 221/643/467
f 208/667/476 211/666/474 204/705/456
f 213/706/500 215/661/475 205/660/464
f 202/668/454 209/670/483 216/707/455
f 218/681/482 221/686/467 210/682/477
f 200/708/478 219/685/491 199/684/490
f 198/683/489 154/709/502 199/684/490
f 199/684/490 154/709/502 221/686/467
f 29/710/503 503/711/504 457/712/505
f 242/713/506 243/714/507 239/715/508 240/716/509
f 480/717/510 510/718/511 478/719/512 481/720/513
f 242/721/506 238/722/67 241/723/66 237/724/310 243/725/507
f 103/330/235 106/336/238 101/301/212 99/312/211
f 268/726/514 247/727/515 253/728/516 271/729/517
f 18/730/3 15/731/24 3/51/42 20/732/1
f 36/93/64 35/733/63 24/734/518 38/94/69
f 228/221/155 229/220/154 230/735/519
f 229/220/154 231/380/277 232/736/520
f 66/216/150 79/737/190 60/500/361 61/501/362 63/738/521 62/217/151
f 69/739/141 78/740/188 77/266/192 60/500/361 79/737/190
f 207/632/457 208/654/476 215/653/475 213/698/500
f 322/741/522 302/742/523 320/743/524 318/744/525 303/745/291 321/746/290
f 158/747/370 165/748/526 154/522/384 164/523/357
f 177/550/527 175/552/401 188/749/425 179/750/389 182/751/528 193/752/420
f 477/753/529 479/754/530 507/384/281 506/755/167
f 382/756/531 381/757/532 371/758/533 331/759/534
f 157/760/369 164/494/357 156/492/352 155/761/340
f 433/762/535 436/763/536 447/764/537 443/765/538 423/766/539
f 90/290/206 113/767/247 89/768/254 107/346/248
f 462/769/540 463/65/541 466/770/542 465/771/543
f 168/594/426 191/587/294 180/586/421 169/583/419
f 25/772/544 24/773/518 23/774/80 18/123/328 19/73/545
f 233/222/156 236/775/546 234/219/153
f 234/219/153 236/775/546 235/379/276
f 282/776/547 225/777/548 276/778/259 290/779/258 278/780/549
f 48/32/30 17/31/29 19/2/550 25/33/551
f 237/430/310 241/781/66 285/428/65
f 495/782/552 493/231/165 464/230/164 28/783/553
f 240/784/509 239/785/508 232/736/520 231/380/277 235/379/276
f 203/702/449 156/786/486 198/787/489 219/788/491 200/697/478
f 270/789/312 252/790/315 268/791/554
f 267/792/555 247/793/556 259/794/557
f 248/795/558 251/796/559 255/797/560
f 248/795/558 254/798/561 249/799/346 251/796/559
f 256/800/562 245/801/563 246/802/564
f 257/803/565 245/801/563 250/804/341 258/805/341
f 302/84/566 386/806/567 379/807/568 380/85/569
f 410/808/570 411/809/571 409/810/572 422/811/573 448/812/574 419/813/575 414/814/576 418/815/577
f 286/816/578 282/817/547 278/818/549 293/819/579
f 254/798/561 263/820/580 249/799/346
f 264/821/581 244/435/313 270/434/312
f 255/822/560 261/823/582 248/824/558
f 244/825/313 264/826/581 255/822/560 256/827/562 246/828/564
f 490/829/583 456/830/584 473/464/330 455/463/329
f 265/831/314 244/832/313 266/833/585
f 253/728/516 247/727/515 259/834/586
f 269/835/587 252/836/315 265/831/314
f 261/823/582 264/821/581 271/837/588
f 267/792/555 259/838/557 253/839/589
f 261/840/590 271/841/591 270/434/592
f 261/840/590 270/789/592 268/791/593
f 267/792/555 268/842/594 247/793/556
f 261/843/582 271/729/517 253/728/516
f 174/844/272 183/845/275 181/846/418 172/847/417 173/848/386 307/584/391 169/849/419 180/850/421 122/851/422
f 256/800/562 250/804/341 245/801/563
f 341/852/445 340/853/444 344/854/595 351/855/596 352/856/597 361/857/598 332/858/599
f 254/798/561 260/859/600 263/820/580
f 264/821/581 270/434/312 271/841/588
f 255/822/560 264/826/581 261/823/582
f 246/828/564 266/860/585 244/825/313
f 271/729/517 270/861/601 268/726/514
f 449/862/602 296/863/603 277/864/604
f 300/111/605 296/118/603 449/862/602
f 8/865/19 20/866/1 3/51/42 11/867/20
f 35/733/63 37/133/96 23/135/80 24/734/518
f 283/868/427 273/869/606 426/870/607
f 334/871/608 177/122/93 344/872/595 340/614/444 176/456/327 188/873/326 335/874/609
f 227/875/610 286/876/578 284/877/611
f 284/877/611 299/878/88 285/879/612
f 391/342/242 366/880/613 389/881/614 390/343/243
f 449/882/615 293/883/579 273/869/606
f 247/884/616 262/885/617 257/886/565 263/887/580 260/888/600 259/889/618
f 283/890/427 295/891/83 300/892/82
f 298/893/619 279/113/84 295/891/83
f 118/416/102 149/894/320 115/895/620 130/411/302 148/410/301
f 297/896/85 298/893/619 301/897/428
f 249/799/346 258/805/341 250/804/341 251/796/559
f 43/898/98 42/899/119 45/900/122 46/901/123 47/140/100 44/139/99
f 426/870/607 289/902/257 427/903/157
f 287/904/160 426/870/607 427/903/157
f 300/905/621 296/906/622 277/907/623
f 302/908/624 380/909/625 331/910/626 329/911/627
f 272/912/628 426/870/607 273/869/606
f 9/913/629 454/914/47 474/915/630 461/916/631
f 274/116/87 285/917/612 299/117/88
f 227/918/309 285/89/65 226/92/68 223/919/632
f 283/868/427 449/882/615 273/869/606
f 293/920/579 277/921/633 296/922/89
f 434/923/110 424/924/634 451/925/635 422/926/636 428/927/637 409/928/636 429/929/638 408/930/111
f 283/595/427 300/905/82 449/882/615
f 284/931/611 285/932/612 274/933/87
f 162/538/396 159/934/344 166/935/367 167/936/639 165/536/395
f 281/937/640 227/938/610 284/931/611
f 291/364/260 292/224/158 427/223/157
f 449/882/641 300/905/621 277/907/623
f 449/882/615 277/939/633 293/883/579
f 288/940/159 294/941/169 275/942/86 297/896/85 301/897/428
f 283/890/642 298/893/619 295/891/83
f 298/893/619 297/943/85 279/113/84
f 301/897/428 298/893/619 283/890/642
f 283/595/643 301/598/644 295/944/645
f 426/870/607 272/912/628 289/902/257
f 287/904/160 283/868/427 426/870/607
f 302/945/523 326/946/646 317/947/232
f 308/328/174 307/948/647 315/949/229
f 329/911/648 324/950/649 330/951/650
f 304/396/171 305/952/292 306/953/172
f 331/910/626 324/954/234 329/955/651
f 307/948/647 308/328/174 309/956/173
f 314/165/652 313/957/653 328/162/654
f 331/958/655 312/959/656 313/957/653
f 412/159/112 410/808/570 418/815/577 421/960/657 413/160/113
f 315/320/229 307/961/647 316/321/230
f 302/962/658 330/951/650 326/946/659
f 253/963/516 259/964/618 260/965/600 254/966/561 248/967/558 261/968/582
f 286/876/578 293/920/579 296/922/89 299/878/88 284/877/611
f 225/969/660 224/970/661 233/971/156 228/972/155 230/973/519
f 327/974/662 302/742/523 321/975/290
f 312/398/289 327/976/662 321/977/290
f 383/978/663 373/979/664 378/980/665 381/981/532
f 302/982/666 324/983/667 326/984/668
f 55/985/138 56/986/137 177/987/135 54/988/134
f 312/989/289 328/990/115 314/991/669 331/992/670
f 40/136/97 39/167/120 42/166/119 43/137/98
f 440/993/671 446/994/672 445/995/673 415/996/674
f 321/746/290 302/742/523 322/741/522
f 326/984/646 330/997/233 317/998/232
f 127/29/27 128/28/26 126/999/359 117/1000/261 116/417/263 142/419/307 135/425/298 87/1001/287 132/1002/286 122/1003/408
f 339/1004/675 361/1005/598 333/1006/676 353/1007/436
f 302/945/523 317/1008/232 320/743/524
f 314/165/652 331/958/655 313/957/653
f 331/958/677 380/909/678 312/959/679
f 147/445/270 129/1009/271 120/1010/360 133/27/25 127/29/27 122/1003/408 124/1011/409 125/473/339
f 302/962/658 329/911/648 330/951/650
f 475/1012/680 476/1013/681 164/1014/682 461/916/683
f 302/982/666 329/1015/684 324/983/667
f 394/1016/685 393/1017/686 367/1018/687 398/1019/688
f 326/984/689 324/983/690 330/997/691
f 311/397/170 328/1020/115 312/1021/289
f 368/1022/692 377/340/240 390/343/243 327/1023/693
f 361/1024/598 339/1025/675 337/1026/694
f 343/1027/695 338/1028/696 345/1029/697 337/1026/694
f 342/1030/438 338/1031/698 363/1032/435
f 343/1027/695 358/1033/699 338/1028/696
f 337/1026/694 359/1034/700 343/1027/695
f 361/1024/598 337/1035/694 332/1036/599
f 282/817/547 286/816/578 227/875/610 225/1037/548
f 225/1038/660 227/918/309 223/919/632 224/1039/661
f 340/614/444 348/616/446 176/456/327
f 348/616/446 341/615/445 350/1040/701
f 347/1041/324 431/1042/702 336/1043/325
f 192/402/293 196/1044/447 190/377/274 186/376/273
f 162/1045/396 158/509/370 157/508/369 163/1046/345
f 399/1047/703 392/1048/430 400/1049/704 387/1050/432
f 358/1051/705 359/1052/700 363/1053/435
f 355/1054/706 351/1055/596 354/120/91
f 431/1056/702 334/871/608 335/1057/609
f 56/119/90 177/122/93 334/871/608
f 342/608/438 56/119/90 431/1056/702
f 356/607/437 354/120/91 56/119/90
f 358/1058/707 359/1059/708 365/1060/709
f 357/1061/710 361/1062/711 360/1063/712
f 338/1064/698 358/1058/713 363/1065/435
f 345/1066/714 358/1067/715 338/1068/716
f 464/1069/164 460/1070/163 475/1012/680 461/916/683 474/915/630 454/914/717
f 350/1040/701 345/1071/697 349/1072/718
f 349/1072/718 338/1073/698 347/453/324
f 276/778/259 225/777/548 227/938/610 281/937/640 284/931/611 274/933/87 275/1074/86 294/1075/169 280/1076/168
f 455/385/282 490/1077/376 501/15/15 504/14/14
f 362/1078/719 357/1079/720 361/1080/721
f 338/1068/698 349/1081/718 345/1066/722
f 59/1082/723 57/1083/136 58/1084/126 56/1085/724
f 107/346/248 89/768/254 96/331/236 100/339/239
f 343/1027/695 359/1034/700 358/1033/699
f 434/923/110 425/1086/725 449/1087/726 426/1088/726 423/1089/539 424/924/634
f 337/1090/694 345/1071/697 350/1040/701 341/615/445
f 176/456/327 348/616/446 346/452/323
f 47/1091/100 46/1092/123 49/1093/124 51/1094/125 52/147/106 48/146/101
f 177/1095/400 184/1096/423 196/1097/447 192/1098/727 170/1099/295
f 351/1100/596 344/854/595 184/1101/92
f 177/122/93 184/121/92 344/872/595
f 363/1053/435 359/1052/700 353/1007/436
f 354/120/91 351/1055/596 184/121/92
f 355/1054/706 352/1102/597 351/1055/596
f 431/1056/702 56/119/90 334/871/608
f 342/608/438 356/607/437 56/119/90
f 363/1065/728 358/1058/707 365/1060/709
f 341/615/445 332/1103/599 337/1090/694
f 333/1104/676 361/1105/598 352/1102/597
f 345/1066/714 349/1106/729 358/1107/715
f 353/606/436 333/1104/676 352/1102/597 355/1054/706 354/120/91 356/607/437
f 471/45/730 453/44/48 454/914/47 9/913/629 463/1108/731
f 371/1109/533 312/1110/61 372/1111/732
f 383/978/663 396/1112/733 373/979/664
f 2/52/43 20/1113/1 5/1114/44 4/53/5
f 326/1115/734 375/1116/735 324/1117/736
f 312/1118/61 331/759/534 372/1119/732
f 377/1120/240 312/1110/61 371/1121/533
f 374/1122/737 367/1123/738 366/1124/613
f 379/807/568 331/759/739 380/85/569
f 326/1125/734 329/1126/740 379/807/568
f 257/1127/565 262/1128/617 269/1129/587 265/1130/314 266/1131/585 246/1132/564 245/1133/563
f 438/1134/741 326/1115/734 386/1135/567
f 381/981/532 392/1136/742 395/1137/743
f 331/759/534 371/758/533 372/1119/732
f 371/758/533 381/757/532 395/1138/743
f 329/1126/744 382/756/531 331/759/534
f 324/1139/736 384/1140/745 329/1126/744
f 375/1141/735 383/1142/663 384/1140/745
f 399/1143/746 387/1144/747 385/1145/241 377/1120/240 371/1121/533 395/1146/743
f 388/1147/748 374/1122/737 366/1124/613
f 84/1148/143 67/1149/152 62/1150/151 63/1151/521 70/208/144
f 327/1023/693 302/84/62 369/83/62
f 312/1152/61 377/1153/240 368/1154/692
f 302/1155/566 438/1156/741 386/1157/567
f 366/880/613 438/1156/741 389/881/614
f 441/1158/749 444/1159/750 440/1160/751 407/1161/752
f 327/1023/693 389/881/614 302/1155/566
f 121/372/321 120/1162/360 129/1163/271 150/442/269
f 379/807/568 386/806/567 326/1125/734
f 396/1164/753 398/1165/754 394/1166/755
f 378/980/665 399/1167/756 392/1136/742
f 385/341/241 388/1168/748 391/342/242
f 392/600/757 395/1169/758 399/1170/759
f 336/1043/325 431/1042/702 335/1171/609 188/1172/326
f 387/602/432 400/1173/704 397/599/429
f 400/1173/704 392/600/430 397/599/429
f 186/376/273 174/375/272 122/1174/422 191/403/294
f 383/978/663 376/1175/760 396/1112/733
f 342/1030/438 431/1042/702 347/1041/324 338/1031/698
f 379/807/568 329/1126/740 331/759/739
f 326/1125/734 324/1139/736 329/1126/740
f 438/1134/741 375/1176/735 326/1115/734
f 381/981/532 378/980/665 392/1136/742
f 320/743/524 317/1008/232 319/1177/231 318/744/525
f 329/1126/744 384/1140/745 382/756/531
f 324/1139/736 375/1141/735 384/1140/745
f 375/1141/735 376/1178/760 383/1142/663
f 387/1179/747 399/1180/756 388/1181/748
f 302/1155/566 389/881/614 438/1156/741
f 366/880/613 370/1182/761 438/1156/741
f 327/1023/693 390/343/243 389/881/614
f 353/1007/436 359/1034/700 337/1026/694 339/1004/675
f 391/342/242 388/1168/748 366/1183/613
f 385/341/241 387/1184/747 388/1168/748
f 366/1183/613 367/1185/738 370/1182/761
f 137/431/76 115/1186/316 130/1187/762 151/467/333
f 9/22/22 8/19/19 10/18/18 12/23/23
f 84/1188/143 80/271/179 65/215/142 67/218/152
f 202/649/454 211/651/474 217/1189/488 210/1190/477
f 273/869/606 293/1191/579 278/780/549 290/779/258 289/902/257 272/912/628
f 445/1192/763 442/1193/764 405/1194/765
f 414/814/766 415/996/674 445/995/673
f 249/799/346 263/820/580 257/803/565 258/805/341
f 405/1194/765 447/764/767 420/1195/768
f 417/161/114 421/960/657 386/1196/769
f 422/811/573 440/1160/751 448/812/574
f 247/793/616 268/842/554 252/1197/315 269/1198/587 262/1199/617
f 146/433/77 145/432/104 147/373/270 119/448/296
f 450/1200/770 424/924/634 423/1089/539
f 441/1201/771 451/1202/772 422/1203/773 407/1204/774
f 441/1205/775 451/925/776 450/1200/777
f 306/953/172 305/401/292 303/400/291 318/1206/525 319/322/231 316/321/230 307/948/647 309/956/173
f 410/808/570 429/1207/778 411/809/571
f 421/1208/657 430/1209/779 386/1210/769
f 402/1211/780 431/1212/781 386/1210/769 430/1209/779
f 324/1213/234 331/910/626 314/1214/118 325/164/117
f 406/1215/782 414/1216/576 445/1217/763 405/1218/765 420/1219/768
f 368/1022/692 327/1023/693 369/83/62 312/82/61
f 438/1220/783 431/1221/781 432/1222/784
f 92/338/223 91/359/201 94/1223/200 108/337/237
f 176/1224/433 184/1096/423 177/1095/527 193/752/420
f 225/969/660 230/973/519 229/1225/154 232/1226/520 239/1227/508 243/1228/507 237/430/310 227/429/309
f 434/157/785 403/560/786 404/1229/787
f 420/1195/788 436/763/789 435/1230/790
f 386/1196/769 437/559/406 417/161/114
f 419/813/791 440/1160/671 415/996/674
f 402/1231/792 401/1232/793 435/1233/794
f 214/673/448 213/706/500 205/660/464 212/674/461
f 414/1234/795 446/1235/796 419/1236/797
f 226/1237/68 238/1238/67 242/1239/506 240/1240/509 235/1241/276 236/1242/546 233/971/156 224/970/661 223/1243/632
f 38/1244/69 24/773/518 25/772/544 48/1245/71 21/95/70
f 426/1246/798 423/1247/799 427/1248/800
f 304/396/171 323/395/288 305/952/292
f 450/1249/801 424/1250/802 451/1202/772
f 422/1203/803 428/1251/804 409/1252/805
f 409/1252/806 429/1253/807 411/1254/808
f 421/1255/809 430/1256/810 452/1257/811
f 406/1215/782 430/1209/779 452/1258/812 421/1208/657 418/1259/577 414/1216/576
f 382/756/531 384/1140/745 383/1142/663 381/757/532
f 420/1260/813 402/1231/792 435/1233/794
f 423/1261/814 433/1262/815 439/1263/816
f 434/1264/817 403/1265/818 416/1266/819
f 420/1267/820 436/1268/821 447/1269/822
f 419/1236/797 440/1270/823 448/1271/824
f 420/1219/768 402/1211/780 430/1209/779 406/1215/782
f 139/414/264 148/410/301 140/412/303 138/1272/265
f 414/814/766 419/813/791 415/996/674
f 417/161/114 413/160/113 421/960/657
f 422/811/573 407/1161/752 440/1160/751
f 450/1273/770 423/766/539 443/765/538
f 431/1212/781 438/1220/783 386/1210/769
f 386/1196/769 438/1274/825 437/559/406
f 414/1234/795 445/1275/826 446/1235/796
f 419/1236/797 446/1235/796 440/1270/827
f 487/1276/828 486/1277/829 454/1278/830 28/1279/831
f 478/719/512 458/1280/832 508/1281/833 459/1282/834
f 398/1283/835 396/1284/733 376/1285/760 375/1176/735 438/1134/741 370/1286/761 367/1287/738
f 461/916/683 462/1288/836 463/1108/837
f 255/797/560 251/796/559 250/804/341 256/800/562
f 467/1289/838 469/1290/839 164/1291/840
f 83/270/189 85/251/180 80/250/179 84/268/194
f 20/1/1 2/52/43 25/33/31 19/2/2
f 16/1292/341 468/1293/841 497/1294/842
f 470/1295/574 48/1296/574 16/1292/574
f 469/1290/839 498/514/374 500/664/481
f 4/5/5 5/55/44 8/57/19 9/58/22
f 499/1297/843 460/229/163 457/228/162 29/1298/341 470/1295/341 497/1294/842
f 497/1299/842 475/1012/680 499/1300/843
f 154/1301/384 165/1302/526 167/1303/639 166/506/367 201/505/366
f 468/1304/841 476/1013/681 497/1299/842
f 374/1305/737 388/1181/748 399/1306/756 378/1307/665 373/1308/664 396/1309/733 398/1310/844 367/1123/738
f 164/1291/845 500/664/846 462/1311/847
f 501/516/15 40/1312/848 502/1313/16
f 348/616/446 350/1040/701 349/1072/718 347/453/324 346/452/323
f 503/1314/849 40/1312/850 48/1296/574
f 478/719/512 459/1282/834 456/1315/851 473/1316/852 479/754/530 477/753/529 481/720/513
f 29/1298/574 503/1314/849 48/1296/574
f 54/197/134 177/987/135 178/195/127
f 506/755/167 505/13/853 482/1317/161
f 447/1269/854 443/1318/855 450/1319/856 441/1320/857 444/1321/858 440/1322/859 446/1323/860 445/1324/861 442/1325/862 405/1326/863
f 491/1327/839 467/1289/864 468/1293/841 494/1328/865 40/1312/865
f 495/782/866 506/233/167 496/232/166
f 48/1296/867 494/1328/865 16/1292/791
f 495/782/868 487/1329/869 483/1330/870
f 102/329/219 109/335/218 106/336/238 103/330/235
f 501/381/278 491/383/280 492/1331/871
f 463/65/872 164/1332/873 461/1333/874
f 467/1334/875 469/1335/876 491/383/877
f 495/249/878 493/1336/879 496/1337/880
f 470/1338/881 497/1339/882 16/1340/883
f 16/1340/884 468/1341/885 494/1342/886
f 470/1338/887 48/1343/888 29/710/889
f 469/1335/890 498/1344/891 492/1331/892
f 12/66/46 461/1333/893 474/1345/894
f 460/1346/895 475/1347/896 499/1348/897
f 476/1349/898 164/1332/899 467/1350/900
f 164/1351/899 500/556/901 469/1335/876
f 48/1343/888 502/1352/902 503/711/504
f 478/1353/903 458/1354/904 510/1355/905
f 457/1356/906 505/1357/907 482/1358/908
f 97/291/208 107/346/248 100/339/239 93/281/199
f 495/249/909 487/1276/828 28/1279/831
f 70/1359/144 63/738/521 61/501/362 75/265/191 76/267/193 81/677/9 71/1360/910
f 312/1361/289 380/1362/911 302/1363/912 327/976/662
f 492/515/839 469/1290/839 491/1327/839
f 461/916/683 164/1014/913 462/1288/836
f 464/230/164 454/1364/717 28/783/553
f 463/1108/914 466/46/39 471/45/38
f 461/916/631 463/1108/731 9/913/629
f 207/691/457 199/690/490 218/665/482 208/667/476
f 497/1299/842 476/1013/681 475/1012/680
f 468/1304/841 467/1365/864 476/1013/681
f 503/1314/849 502/1313/915 40/1312/850
f 495/782/866 477/1366/529 506/233/167
f 48/1296/867 40/1312/865 494/1328/865
f 463/65/872 462/769/916 164/1332/873
f 454/67/47 12/66/46 474/1345/894
f 12/66/46 463/65/45 461/1333/893
f 48/1343/888 40/382/917 502/1352/902
f 505/1357/907 507/466/332 506/1367/918
l 161 166
o Object_3
v -1.000000 0.000000 1.000000
v 1.000000 0.000000 1.000000
v 1.000000 -0.000000 -1.000000
v -1.000000 -0.000000 -1.000000
v -1.505216 0.004741 -0.471653
v -2.372490 0.004741 1.330523
v -0.570315 0.004741 2.197797
v 0.296959 0.004741 0.395621
v 0.248659 0.004741 -1.320013
v -1.625228 0.004741 -2.018975
v -2.324190 0.004741 -0.145088
v -0.450303 0.004741 0.553874
vn -0.0000 1.0000 -0.0000
vt 0.999900 0.000100
vt 0.000100 0.000100
vt 0.000100 0.999900
vt 0.999900 0.999900
s 1
usemtl MAT_Paper_Decal
f 513/1368/919 514/1369/919 511/1370/919 512/1371/919
f 517/1368/919 518/1369/919 515/1370/919 516/1371/919
f 521/1368/919 522/1369/919 519/1370/919 520/1371/919
