# Blender 5.1.2
# www.blender.org
mtllib border.mtl
o Object_4
v -1.000000 0.000000 1.000000
v 1.000000 0.000000 1.000000
v -1.000000 0.000000 -1.000000
v 1.000000 0.000000 -1.000000
vn -0.0000 1.0000 -0.0000
vt -32.849365 -32.849365
vt 33.849365 -32.849365
vt 33.849365 33.849365
vt -32.849365 33.849365
s 0
usemtl Material.001
f 1/1/1 2/2/1 4/3/1
f 1/1/1 4/3/1 3/4/1
o Object_6
v -1.000000 0.000000 1.000000
v 1.000000 0.000000 1.000000
v -1.000000 0.000000 -1.000000
v 1.000000 0.000000 -1.000000
vn -0.0000 1.0000 -0.0000
vt -32.849365 -32.849365
vt 33.849365 -32.849365
vt 33.849365 33.849365
vt -32.849365 33.849365
s 0
usemtl Material.005
f 5/5/2 6/6/2 8/7/2
f 5/5/2 8/7/2 7/8/2
o Object_29
v -190.480820 -37.944324 211.623886
v -190.480820 23.413918 211.623886
v -190.480820 -37.944324 -194.491806
v -190.480820 23.413918 -194.491806
v -172.336456 -37.944324 211.623886
v -172.336456 23.413918 211.623886
v -172.336456 -37.944324 -194.491806
v -172.336456 23.413918 -194.491806
vn 1.0000 -0.0000 -0.0000
vn -1.0000 -0.0000 -0.0000
vn -0.0000 -0.0000 1.0000
vn -0.0000 -1.0000 -0.0000
vn -0.0000 1.0000 -0.0000
vn -0.0000 -0.0000 -1.0000
vt -27.466413 -5.461839
vt 28.466413 6.461839
vt -27.466413 6.461839
vt 28.466413 -5.461839
s 0
usemtl Material.002
f 9/9/3 12/10/3 10/11/3
f 9/9/3 11/12/3 12/10/3
f 13/9/4 14/11/4 16/10/4
f 13/9/4 16/10/4 15/12/4
f 12/10/5 11/12/5 15/12/5 16/10/5
f 10/11/6 12/10/6 16/10/6 14/11/6
f 11/12/7 9/9/7 13/9/7 15/12/7
f 9/9/8 10/11/8 14/11/8 13/9/8
o Object_29.001
v 215.634781 -37.944324 211.623886
v 215.634781 23.413918 211.623886
v 215.634781 -37.944324 -194.491806
v 215.634781 23.413918 -194.491806
v 175.105133 -37.944324 211.623886
v 175.105133 23.413918 211.623886
v 175.105133 -37.944324 -194.491806
v 175.105133 23.413918 -194.491806
vn -1.0000 -0.0000 -0.0000
vn 1.0000 -0.0000 -0.0000
vn -0.0000 -0.0000 1.0000
vn -0.0000 -0.0000 -1.0000
vn -0.0000 -1.0000 -0.0000
vn -0.0000 1.0000 -0.0000
vt 28.466413 -5.461839
vt -27.466413 6.461839
vt 28.466413 6.461839
vt -27.466413 -5.461839
s 0
usemtl Material.002
f 19/13/9 18/14/9 20/15/9
f 19/13/9 17/16/9 18/14/9
f 23/13/10 24/15/10 22/14/10
f 23/13/10 22/14/10 21/16/10
f 19/13/11 20/15/11 24/15/11 23/13/11
f 18/14/12 17/16/12 21/16/12 22/14/12
f 20/15/13 18/14/13 22/14/13 24/15/13
f 17/16/14 19/13/14 23/13/14 21/16/14
o Object_29.002
v -190.480820 -37.944324 211.623886
v -190.480820 23.413918 211.623886
v 215.634781 -37.944324 211.623886
v 215.634781 23.413918 211.623886
v -190.480820 -37.944324 180.408875
v -190.480820 23.413918 180.408875
v 215.634781 -37.944324 180.408875
v 215.634781 23.413918 180.408875
vn -0.0000 -0.0000 -1.0000
vn -0.0000 -0.0000 1.0000
vn -0.0000 1.0000 -0.0000
vn -1.0000 -0.0000 -0.0000
vn 1.0000 -0.0000 -0.0000
vn -0.0000 -1.0000 -0.0000
vt 28.466413 -5.461839
vt -27.466413 6.461839
vt 28.466413 6.461839
vt -27.466413 -5.461839
s 0
usemtl Material.002
f 27/17/15 26/18/15 28/19/15
f 27/17/15 25/20/15 26/18/15
f 31/17/16 32/19/16 30/18/16
f 31/17/16 30/18/16 29/20/16
f 25/20/17 27/17/17 31/17/17 29/20/17
f 27/17/18 28/19/18 32/19/18 31/17/18
f 26/18/19 25/20/19 29/20/19 30/18/19
f 28/19/20 26/18/20 30/18/20 32/19/20
o Object_29.003
v -190.480820 -37.944324 -194.491806
v -190.480820 23.413918 -194.491806
v 215.634781 -37.944324 -194.491806
v 215.634781 23.413918 -194.491806
v -190.480820 -37.944324 -178.352417
v -190.480820 23.413918 -178.352417
v 215.634781 -37.944324 -178.352417
v 215.634781 23.413918 -178.352417
vn -0.0000 -0.0000 1.0000
vn -0.0000 -0.0000 -1.0000
vn -1.0000 -0.0000 -0.0000
vn -0.0000 -1.0000 -0.0000
vn -0.0000 1.0000 -0.0000
vn 1.0000 -0.0000 -0.0000
vt -27.466413 -5.461839
vt 28.466413 6.461839
vt -27.466413 6.461839
vt 28.466413 -5.461839
s 0
usemtl Material.002
f 33/21/21 36/22/21 34/23/21
f 33/21/21 35/24/21 36/22/21
f 37/21/22 38/23/22 40/22/22
f 37/21/22 40/22/22 39/24/22
f 36/22/23 35/24/23 39/24/23 40/22/23
f 34/23/24 36/22/24 40/22/24 38/23/24
f 35/24/25 33/21/25 37/21/25 39/24/25
f 33/21/26 34/23/26 38/23/26 37/21/26
