{
  "accessors": [
    {
      "bufferView": 2,
      "componentType": 5126,
      "count": 894,
      "max": [
        0.09175942838191986,
        0.2058650106191635,
        0.458366334438324
      ],
      "min": [
        -0.12407495081424713,
        0.05883168801665306,
        0.17369750142097473
      ],
      "type": "VEC3"
    },
    {
      "bufferView": 2,
      "byteOffset": 10728,
      "componentType": 5126,
      "count": 894,
      "max": [
        0.9275599718093872,
        0.996986448764801,
        0.9996209144592285
      ],
      "min": [
        -0.9275496602058411,
        -0.9969850182533264,
        -0.9996203780174255
      ],
      "type": "VEC3"
    },
    {
      "bufferView": 3,
      "componentType": 5126,
      "count": 894,
      "max": [
        0.9998012781143188,
        0.9823171496391296,
        0.9721116423606873,
        1.0
      ],
      "min": [
        -0.9996200799942017,
        -0.9998942017555237,
        -0.9704880714416504,
        -1.0
      ],
      "type": "VEC4"
    },
    {
      "bufferView": 1,
      "componentType": 5126,
      "count": 894,
      "max": [
        0.9983254671096802,
        0.9419263005256653
      ],
      "min": [
        0.0016675591468811035,
        0.0016723088920116425
      ],
      "type": "VEC2"
    },
    {
      "bufferView": 1,
      "byteOffset": 7152,
      "componentType": 5126,
      "count": 894,
      "max": [
        0.9983254671096802,
        0.9419263005256653
      ],
      "min": [
        0.0016675591468811035,
        0.0016723088920116425
      ],
      "type": "VEC2"
    },
    {
      "bufferView": 1,
      "byteOffset": 14304,
      "componentType": 5126,
      "count": 894,
      "max": [
        0.9983254671096802,
        0.9419263005256653
      ],
      "min": [
        0.0016675591468811035,
        0.0016723088920116425
      ],
      "type": "VEC2"
    },
    {
      "bufferView": 1,
      "byteOffset": 21456,
      "componentType": 5126,
      "count": 894,
      "max": [
        0.9983254671096802,
        0.9419263005256653
      ],
      "min": [
        0.0016675591468811035,
        0.0016723088920116425
      ],
      "type": "VEC2"
    },
    {
      "bufferView": 1,
      "byteOffset": 28608,
      "componentType": 5126,
      "count": 894,
      "max": [
        0.9983254671096802,
        0.9419263005256653
      ],
      "min": [
        0.0016675591468811035,
        0.0016723088920116425
      ],
      "type": "VEC2"
    },
    {
      "bufferView": 0,
      "componentType": 5125,
      "count": 2304,
      "type": "SCALAR"
    },
    {
      "bufferView": 2,
      "byteOffset": 21456,
      "componentType": 5126,
      "count": 3542,
      "max": [
        0.09378084540367126,
        0.206138014793396,
        0.47122281789779663
      ],
      "min": [
        -0.12609648704528809,
        0.058558691293001175,
        0.16084113717079163
      ],
      "type": "VEC3"
    },
    {
      "bufferView": 2,
      "byteOffset": 63960,
      "componentType": 5126,
      "count": 3542,
      "max": [
        0.9994325041770935,
        0.9993658065795898,
        0.999799907207489
      ],
      "min": [
        -0.9994336366653442,
        -0.9993661046028137,
        -0.9998006820678711
      ],
      "type": "VEC3"
    },
    {
      "bufferView": 3,
      "byteOffset": 14304,
      "componentType": 5126,
      "count": 3542,
      "max": [
        0.9735537171363831,
        0.9862911105155945,
        0.9968265891075134,
        1.0
      ],
      "min": [
        -0.9965118765830994,
        -0.999991774559021,
        -0.9859626293182373,
        -1.0
      ],
      "type": "VEC4"
    },
    {
      "bufferView": 1,
      "byteOffset": 35760,
      "componentType": 5126,
      "count": 3542,
      "max": [
        0.9909482002258301,
        0.9968031048774719
      ],
      "min": [
        0.0015546503709629178,
        0.0015552036929875612
      ],
      "type": "VEC2"
    },
    {
      "bufferView": 1,
      "byteOffset": 64096,
      "componentType": 5126,
      "count": 3542,
      "max": [
        0.9909482002258301,
        0.9968031048774719
      ],
      "min": [
        0.0015546503709629178,
        0.0015552036929875612
      ],
      "type": "VEC2"
    },
    {
      "bufferView": 1,
      "byteOffset": 92432,
      "componentType": 5126,
      "count": 3542,
      "max": [
        0.9909482002258301,
        0.9968031048774719
      ],
      "min": [
        0.0015546503709629178,
        0.0015552036929875612
      ],
      "type": "VEC2"
    },
    {
      "bufferView": 1,
      "byteOffset": 120768,
      "componentType": 5126,
      "count": 3542,
      "max": [
        0.9909482002258301,
        0.9968031048774719
      ],
      "min": [
        0.0015546503709629178,
        0.0015552036929875612
      ],
      "type": "VEC2"
    },
    {
      "bufferView": 1,
      "byteOffset": 149104,
      "componentType": 5126,
      "count": 3542,
      "max": [
        0.9909482002258301,
        0.9968031048774719
      ],
      "min": [
        0.0015546503709629178,
        0.0015552036929875612
      ],
      "type": "VEC2"
    },
    {
      "bufferView": 0,
      "byteOffset": 9216,
      "componentType": 5125,
      "count": 14988,
      "type": "SCALAR"
    },
    {
      "bufferView": 2,
      "byteOffset": 106464,
      "componentType": 5126,
      "count": 4,
      "max": [
        0.08738525211811066,
        0.13927236199378967,
        0.46762436628341675
      ],
      "min": [
        0.018630417063832283,
        0.06962873041629791,
        0.4224226772785187
      ],
      "type": "VEC3"
    },
    {
      "bufferView": 2,
      "byteOffset": 106512,
      "componentType": 5126,
      "count": 4,
      "max": [
        0.46419858932495117,
        -0.18723364174365997,
        0.865715503692627
      ],
      "min": [
        0.46419858932495117,
        -0.18723364174365997,
        0.865715503692627
      ],
      "type": "VEC3"
    },
    {
      "bufferView": 1,
      "byteOffset": 177440,
      "componentType": 5126,
      "count": 4,
      "max": [
        0.9975098371505737,
        0.9975098371505737
      ],
      "min": [
        0.0014940935652703047,
        0.0014940500259399414
      ],
      "type": "VEC2"
    },
    {
      "bufferView": 1,
      "byteOffset": 177472,
      "componentType": 5126,
      "count": 4,
      "max": [
        0.9975098371505737,
        0.9975098371505737
      ],
      "min": [
        0.0014940935652703047,
        0.0014940500259399414
      ],
      "type": "VEC2"
    },
    {
      "bufferView": 1,
      "byteOffset": 177504,
      "componentType": 5126,
      "count": 4,
      "max": [
        0.9975098371505737,
        0.9975098371505737
      ],
      "min": [
        0.0014940935652703047,
        0.0014940500259399414
      ],
      "type": "VEC2"
    },
    {
      "bufferView": 1,
      "byteOffset": 177536,
      "componentType": 5126,
      "count": 4,
      "max": [
        0.9975098371505737,
        0.9975098371505737
      ],
      "min": [
        0.0014940935652703047,
        0.0014940500259399414
      ],
      "type": "VEC2"
    },
    {
      "bufferView": 0,
      "byteOffset": 69168,
      "componentType": 5125,
      "count": 6,
      "type": "SCALAR"
    },
    {
      "bufferView": 2,
      "byteOffset": 106560,
      "componentType": 5126,
      "count": 38162,
      "max": [
        0.09280762821435928,
        0.1612904816865921,
        0.455769419670105
      ],
      "min": [
        -0.12512315809726715,
        0.023979585617780685,
        0.16528451442718506
      ],
      "type": "VEC3"
    },
    {
      "bufferView": 2,
      "byteOffset": 564504,
      "componentType": 5126,
      "count": 38162,
      "max": [
        0.9962661862373352,
        0.999916672706604,
        0.9992528557777405
      ],
      "min": [
        -0.9971850514411926,
        -0.9999563097953796,
        -0.9992546439170837
      ],
      "type": "VEC3"
    },
    {
      "bufferView": 3,
      "byteOffset": 70976,
      "componentType": 5126,
      "count": 38162,
      "max": [
        0.9998896718025208,
        0.9999701976776123,
        0.9997422099113464,
        1.0
      ],
      "min": [
        -0.999945342540741,
        -0.9998708963394165,
        -0.9998071193695068,
        -1.0
      ],
      "type": "VEC4"
    },
    {
      "bufferView": 1,
      "byteOffset": 177568,
      "componentType": 5126,
      "count": 38162,
      "max": [
        0.9988771677017212,
        0.8315815329551697
      ],
      "min": [
        0.001114063197746873,
        0.0011183834867551923
      ],
      "type": "VEC2"
    },
    {
      "bufferView": 1,
      "byteOffset": 482864,
      "componentType": 5126,
      "count": 38162,
      "max": [
        0.9988771677017212,
        0.8315815329551697
      ],
      "min": [
        0.001114063197746873,
        0.0011183834867551923
      ],
      "type": "VEC2"
    },
    {
      "bufferView": 1,
      "byteOffset": 788160,
      "componentType": 5126,
      "count": 38162,
      "max": [
        0.9988771677017212,
        0.8315815329551697
      ],
      "min": [
        0.001114063197746873,
        0.0011183834867551923
      ],
      "type": "VEC2"
    },
    {
      "bufferView": 1,
      "byteOffset": 1093456,
      "componentType": 5126,
      "count": 38162,
      "max": [
        0.9988771677017212,
        0.8315815329551697
      ],
      "min": [
        0.001114063197746873,
        0.0011183834867551923
      ],
      "type": "VEC2"
    },
    {
      "bufferView": 1,
      "byteOffset": 1398752,
      "componentType": 5126,
      "count": 38162,
      "max": [
        0.9988771677017212,
        0.8315815329551697
      ],
      "min": [
        0.001114063197746873,
        0.0011183834867551923
      ],
      "type": "VEC2"
    },
    {
      "bufferView": 0,
      "byteOffset": 69192,
      "componentType": 5125,
      "count": 105402,
      "type": "SCALAR"
    },
    {
      "bufferView": 2,
      "byteOffset": 1022448,
      "componentType": 5126,
      "count": 15467,
      "max": [
        0.09358161687850952,
        0.1610381007194519,
        0.4576830565929413
      ],
      "min": [
        -0.12588325142860413,
        -0.04972714185714722,
        0.013488352298736572
      ],
      "type": "VEC3"
    },
    {
      "bufferView": 2,
      "byteOffset": 1208052,
      "componentType": 5126,
      "count": 15467,
      "max": [
        1.0,
        1.0,
        1.0
      ],
      "min": [
        -1.0,
        -1.0,
        -1.0
      ],
      "type": "VEC3"
    },
    {
      "bufferView": 3,
      "byteOffset": 681568,
      "componentType": 5126,
      "count": 15467,
      "max": [
        1.0,
        1.0,
        1.0,
        1.0
      ],
      "min": [
        -1.0,
        -1.0,
        -1.0,
        -1.0
      ],
      "type": "VEC4"
    },
    {
      "bufferView": 1,
      "byteOffset": 1704048,
      "componentType": 5126,
      "count": 15467,
      "max": [
        0.9992883205413818,
        0.998836100101471
      ],
      "min": [
        0.0006084798369556665,
        0.0006200105999596417
      ],
      "type": "VEC2"
    },
    {
      "bufferView": 1,
      "byteOffset": 1827784,
      "componentType": 5126,
      "count": 15467,
      "max": [
        0.9992883205413818,
        0.998836100101471
      ],
      "min": [
        0.0006084798369556665,
        0.0006200105999596417
      ],
      "type": "VEC2"
    },
    {
      "bufferView": 1,
      "byteOffset": 1951520,
      "componentType": 5126,
      "count": 15467,
      "max": [
        0.9992883205413818,
        0.998836100101471
      ],
      "min": [
        0.0006084798369556665,
        0.0006200105999596417
      ],
      "type": "VEC2"
    },
    {
      "bufferView": 1,
      "byteOffset": 2075256,
      "componentType": 5126,
      "count": 15467,
      "max": [
        0.9992883205413818,
        0.998836100101471
      ],
      "min": [
        0.0006084798369556665,
        0.0006200105999596417
      ],
      "type": "VEC2"
    },
    {
      "bufferView": 1,
      "byteOffset": 2198992,
      "componentType": 5126,
      "count": 15467,
      "max": [
        0.9992883205413818,
        0.998836100101471
      ],
      "min": [
        0.0006084798369556665,
        0.0006200105999596417
      ],
      "type": "VEC2"
    },
    {
      "bufferView": 0,
      "byteOffset": 490800,
      "componentType": 5125,
      "count": 63264,
      "type": "SCALAR"
    },
    {
      "bufferView": 2,
      "byteOffset": 1393656,
      "componentType": 5126,
      "count": 2146,
      "max": [
        0.12093668431043625,
        0.2162134349346161,
        0.5054879188537598
      ],
      "min": [
        -0.1411277800798416,
        0.08380136638879776,
        0.1520746946334839
      ],
      "type": "VEC3"
    },
    {
      "bufferView": 2,
      "byteOffset": 1419408,
      "componentType": 5126,
      "count": 2146,
      "max": [
        0.9971729516983032,
        0.9900110363960266,
        0.9912862181663513
      ],
      "min": [
        -0.9926705360412598,
        -0.9953259825706482,
        -0.9888164401054382
      ],
      "type": "VEC3"
    },
    {
      "bufferView": 3,
      "byteOffset": 929040,
      "componentType": 5126,
      "count": 2146,
      "max": [
        0.9988455772399902,
        0.9977615475654602,
        0.9977923035621643,
        1.0
      ],
      "min": [
        -0.9978967308998108,
        -0.9989111423492432,
        -0.9965360760688782,
        -1.0
      ],
      "type": "VEC4"
    },
    {
      "bufferView": 1,
      "byteOffset": 2322728,
      "componentType": 5126,
      "count": 2146,
      "max": [
        0.9982002377510071,
        0.996625542640686
      ],
      "min": [
        0.00179281213786453,
        0.001792229595594108
      ],
      "type": "VEC2"
    },
    {
      "bufferView": 1,
      "byteOffset": 2339896,
      "componentType": 5126,
      "count": 2146,
      "max": [
        0.9982002377510071,
        0.996625542640686
      ],
      "min": [
        0.00179281213786453,
        0.001792229595594108
      ],
      "type": "VEC2"
    },
    {
      "bufferView": 1,
      "byteOffset": 2357064,
      "componentType": 5126,
      "count": 2146,
      "max": [
        0.9982002377510071,
        0.996625542640686
      ],
      "min": [
        0.00179281213786453,
        0.001792229595594108
      ],
      "type": "VEC2"
    },
    {
      "bufferView": 1,
      "byteOffset": 2374232,
      "componentType": 5126,
      "count": 2146,
      "max": [
        0.9982002377510071,
        0.996625542640686
      ],
      "min": [
        0.00179281213786453,
        0.001792229595594108
      ],
      "type": "VEC2"
    },
    {
      "bufferView": 1,
      "byteOffset": 2391400,
      "componentType": 5126,
      "count": 2146,
      "max": [
        0.9982002377510071,
        0.996625542640686
      ],
      "min": [
        0.00179281213786453,
        0.001792229595594108
      ],
      "type": "VEC2"
    },
    {
      "bufferView": 0,
      "byteOffset": 743856,
      "componentType": 5125,
      "count": 6732,
      "type": "SCALAR"
    },
    {
      "bufferView": 2,
      "byteOffset": 1445160,
      "componentType": 5126,
      "count": 3033,
      "max": [
        0.056719351559877396,
        0.06077992171049118,
        0.3685985207557678
      ],
      "min": [
        -0.0567193366587162,
        -0.060779914259910583,
        -0.0
      ],
      "type": "VEC3"
    },
    {
      "bufferView": 2,
      "byteOffset": 1481556,
      "componentType": 5126,
      "count": 3033,
      "max": [
        0.9999998807907104,
        1.0,
        0.9999995231628418
      ],
      "min": [
        -0.9999998807907104,
        -1.0,
        -0.9999945163726807
      ],
      "type": "VEC3"
    },
    {
      "bufferView": 3,
      "byteOffset": 963376,
      "componentType": 5126,
      "count": 3033,
      "max": [
        1.0,
        0.999999463558197,
        1.0,
        1.0
      ],
      "min": [
        -1.0,
        -1.0,
        -1.0,
        -1.0
      ],
      "type": "VEC4"
    },
    {
      "bufferView": 1,
      "byteOffset": 2408568,
      "componentType": 5126,
      "count": 3033,
      "max": [
        0.9980484843254089,
        0.9980970621109009
      ],
      "min": [
        0.001531362533569336,
        0.0015281554078683257
      ],
      "type": "VEC2"
    },
    {
      "bufferView": 1,
      "byteOffset": 2432832,
      "componentType": 5126,
      "count": 3033,
      "max": [
        0.9980484843254089,
        0.9980970621109009
      ],
      "min": [
        0.001531362533569336,
        0.0015281554078683257
      ],
      "type": "VEC2"
    },
    {
      "bufferView": 1,
      "byteOffset": 2457096,
      "componentType": 5126,
      "count": 3033,
      "max": [
        0.9980484843254089,
        0.9980970621109009
      ],
      "min": [
        0.001531362533569336,
        0.0015281554078683257
      ],
      "type": "VEC2"
    },
    {
      "bufferView": 1,
      "byteOffset": 2481360,
      "componentType": 5126,
      "count": 3033,
      "max": [
        0.9980484843254089,
        0.9980970621109009
      ],
      "min": [
        0.001531362533569336,
        0.0015281554078683257
      ],
      "type": "VEC2"
    },
    {
      "bufferView": 1,
      "byteOffset": 2505624,
      "componentType": 5126,
      "count": 3033,
      "max": [
        0.9980484843254089,
        0.9980970621109009
      ],
      "min": [
        0.001531362533569336,
        0.0015281554078683257
      ],
      "type": "VEC2"
    },
    {
      "bufferView": 0,
      "byteOffset": 770784,
      "componentType": 5125,
      "count": 10380,
      "type": "SCALAR"
    },
    {
      "bufferView": 2,
      "byteOffset": 1517952,
      "componentType": 5126,
      "count": 16693,
      "max": [
        -0.06366530060768127,
        0.11290422081947327,
        0.1731935441493988
      ],
      "min": [
        -0.13102222979068756,
        0.03274718299508095,
        0.1152837872505188
      ],
      "type": "VEC3"
    },
    {
      "bufferView": 2,
      "byteOffset": 1718268,
      "componentType": 5126,
      "count": 16693,
      "max": [
        0.9999919533729553,
        0.9999367594718933,
        0.999976634979248
      ],
      "min": [
        -0.9999915361404419,
        -0.9998383522033691,
        -0.99993896484375
      ],
      "type": "VEC3"
    },
    {
      "bufferView": 3,
      "byteOffset": 1011904,
      "componentType": 5126,
      "count": 16693,
      "max": [
        0.9998393654823303,
        0.9999598264694214,
        0.9998672008514404,
        1.0
      ],
      "min": [
        -0.999888002872467,
        -0.9999974966049194,
        -0.9936094880104065,
        -1.0
      ],
      "type": "VEC4"
    },
    {
      "bufferView": 1,
      "byteOffset": 2529888,
      "componentType": 5126,
      "count": 16693,
      "max": [
        0.998483419418335,
        0.9861564636230469
      ],
      "min": [
        0.0016074180603027344,
        0.0015247378032654524
      ],
      "type": "VEC2"
    },
    {
      "bufferView": 1,
      "byteOffset": 2663432,
      "componentType": 5126,
      "count": 16693,
      "max": [
        0.998483419418335,
        0.9861564636230469
      ],
      "min": [
        0.0016074180603027344,
        0.0015247378032654524
      ],
      "type": "VEC2"
    },
    {
      "bufferView": 1,
      "byteOffset": 2796976,
      "componentType": 5126,
      "count": 16693,
      "max": [
        0.998483419418335,
        0.9861564636230469
      ],
      "min": [
        0.0016074180603027344,
        0.0015247378032654524
      ],
      "type": "VEC2"
    },
    {
      "bufferView": 1,
      "byteOffset": 2930520,
      "componentType": 5126,
      "count": 16693,
      "max": [
        0.998483419418335,
        0.9861564636230469
      ],
      "min": [
        0.0016074180603027344,
        0.0015247378032654524
      ],
      "type": "VEC2"
    },
    {
      "bufferView": 1,
      "byteOffset": 3064064,
      "componentType": 5126,
      "count": 16693,
      "max": [
        0.998483419418335,
        0.9861564636230469
      ],
      "min": [
        0.0016074180603027344,
        0.0015247378032654524
      ],
      "type": "VEC2"
    },
    {
      "bufferView": 0,
      "byteOffset": 812304,
      "componentType": 5125,
      "count": 90000,
      "type": "SCALAR"
    },
    {
      "bufferView": 2,
      "byteOffset": 1918584,
      "componentType": 5126,
      "count": 9669,
      "max": [
        0.06639610230922699,
        0.0678100660443306,
        0.16046121716499329
      ],
      "min": [
        -0.06634227931499481,
        -0.029099777340888977,
        0.027767419815063477
      ],
      "type": "VEC3"
    },
    {
      "bufferView": 2,
      "byteOffset": 2034612,
      "componentType": 5126,
      "count": 9669,
      "max": [
        0.9999995827674866,
        1.0,
        0.9999939799308777
      ],
      "min": [
        -1.0,
        -1.0,
        -0.9999940991401672
      ],
      "type": "VEC3"
    },
    {
      "bufferView": 3,
      "byteOffset": 1278992,
      "componentType": 5126,
      "count": 9669,
      "max": [
        1.0,
        0.9998563528060913,
        1.0,
        1.0
      ],
      "min": [
        -1.0,
        -1.0,
        -1.0,
        -1.0
      ],
      "type": "VEC4"
    },
    {
      "bufferView": 1,
      "byteOffset": 3197608,
      "componentType": 5126,
      "count": 9669,
      "max": [
        0.9992667436599731,
        0.9983891844749451
      ],
      "min": [
        0.0006948408554308116,
        0.0007159048109315336
      ],
      "type": "VEC2"
    },
    {
      "bufferView": 1,
      "byteOffset": 3274960,
      "componentType": 5126,
      "count": 9669,
      "max": [
        0.9992667436599731,
        0.9983891844749451
      ],
      "min": [
        0.0006948408554308116,
        0.0007159048109315336
      ],
      "type": "VEC2"
    },
    {
      "bufferView": 1,
      "byteOffset": 3352312,
      "componentType": 5126,
      "count": 9669,
      "max": [
        0.9992667436599731,
        0.9983891844749451
      ],
      "min": [
        0.0006948408554308116,
        0.0007159048109315336
      ],
      "type": "VEC2"
    },
    {
      "bufferView": 1,
      "byteOffset": 3429664,
      "componentType": 5126,
      "count": 9669,
      "max": [
        0.9992667436599731,
        0.9983891844749451
      ],
      "min": [
        0.0006948408554308116,
        0.0007159048109315336
      ],
      "type": "VEC2"
    },
    {
      "bufferView": 1,
      "byteOffset": 3507016,
      "componentType": 5126,
      "count": 9669,
      "max": [
        0.9992667436599731,
        0.9983891844749451
      ],
      "min": [
        0.0006948408554308116,
        0.0007159048109315336
      ],
      "type": "VEC2"
    },
    {
      "bufferView": 0,
      "byteOffset": 1172304,
      "componentType": 5125,
      "count": 52443,
      "type": "SCALAR"
    },
    {
      "bufferView": 2,
      "byteOffset": 2150640,
      "componentType": 5126,
      "count": 120,
      "max": [
        0.1249999925494194,
        0.125,
        0.001985471462830901
      ],
      "min": [
        -0.1249999925494194,
        -0.125,
        -0.01801452785730362
      ],
      "type": "VEC3"
    },
    {
      "bufferView": 2,
      "byteOffset": 2152080,
      "componentType": 5126,
      "count": 120,
      "max": [
        0.9998771548271179,
        0.9998771548271179,
        0.9999987483024597
      ],
      "min": [
        -0.9998771548271179,
        -0.9998771548271179,
        -0.9999986886978149
      ],
      "type": "VEC3"
    },
    {
      "bufferView": 3,
      "byteOffset": 1433696,
      "componentType": 5126,
      "count": 120,
      "max": [
        0.707059383392334,
        0.7070631980895996,
        0.7070915102958679,
        1.0
      ],
      "min": [
        -0.9999997019767761,
        -0.9999997019767761,
        -0.7070915102958679,
        -1.0
      ],
      "type": "VEC4"
    },
    {
      "bufferView": 1,
      "byteOffset": 3584368,
      "componentType": 5126,
      "count": 120,
      "max": [
        0.9985060691833496,
        0.9955132007598877
      ],
      "min": [
        0.0014920909889042377,
        0.0014961145352572203
      ],
      "type": "VEC2"
    },
    {
      "bufferView": 1,
      "byteOffset": 3585328,
      "componentType": 5126,
      "count": 120,
      "max": [
        0.9985060691833496,
        0.9955132007598877
      ],
      "min": [
        0.0014920909889042377,
        0.0014961145352572203
      ],
      "type": "VEC2"
    },
    {
      "bufferView": 1,
      "byteOffset": 3586288,
      "componentType": 5126,
      "count": 120,
      "max": [
        0.9985060691833496,
        0.9955132007598877
      ],
      "min": [
        0.0014920909889042377,
        0.0014961145352572203
      ],
      "type": "VEC2"
    },
    {
      "bufferView": 1,
      "byteOffset": 3587248,
      "componentType": 5126,
      "count": 120,
      "max": [
        0.9985060691833496,
        0.9955132007598877
      ],
      "min": [
        0.0014920909889042377,
        0.0014961145352572203
      ],
      "type": "VEC2"
    },
    {
      "bufferView": 1,
      "byteOffset": 3588208,
      "componentType": 5126,
      "count": 120,
      "max": [
        0.9985060691833496,
        0.9955132007598877
      ],
      "min": [
        0.0014920909889042377,
        0.0014961145352572203
      ],
      "type": "VEC2"
    },
    {
      "bufferView": 0,
      "byteOffset": 1382076,
      "componentType": 5125,
      "count": 324,
      "type": "SCALAR"
    }
  ],
  "asset": {
    "extras": {
      "author": "cyberreno (https://sketchfab.com/cyberreno)",
      "license": "CC-BY-4.0 (http://creativecommons.org/licenses/by/4.0/)",
      "source": "https://sketchfab.com/3d-models/surveillance-camera-79a1d5f870cc42e9817fffc42ea6f30b",
      "title": "Surveillance Camera"
    },
    "generator": "Sketchfab-15.30.0",
    "version": "2.0"
  },
  "bufferViews": [
    {
      "buffer": 0,
      "byteLength": 1383372,
      "name": "floatBufferViews",
      "target": 34963
    },
    {
      "buffer": 0,
      "byteLength": 3589168,
      "byteOffset": 1383372,
      "byteStride": 8,
      "name": "floatBufferViews",
      "target": 34962
    },
    {
      "buffer": 0,
      "byteLength": 2153520,
      "byteOffset": 4972540,
      "byteStride": 12,
      "name": "floatBufferViews",
      "target": 34962
    },
    {
      "buffer": 0,
      "byteLength": 1435616,
      "byteOffset": 7126060,
      "byteStride": 16,
      "name": "floatBufferViews",
      "target": 34962
    }
  ],
  "buffers": [
    {
      "byteLength": 8561676,
      "uri": "scene.bin"
    }
  ],
  "images": [
    {
      "uri": "Cam_Body_baseColor.png"
    },
    {
      "uri": "Cam_Body_metallicRoughness.png"
    },
    {
      "uri": "Cam_Body_emissive.png"
    },
    {
      "uri": "Cam_Body_normal.png"
    },
    {
      "uri": "Cam_FrontBack_baseColor.png"
    },
    {
      "uri": "Cam_FrontBack_metallicRoughness.png"
    },
    {
      "uri": "Cam_FrontBack_emissive.png"
    },
    {
      "uri": "Cam_FrontBack_normal.png"
    },
    {
      "uri": "Glass_baseColor.png"
    },
    {
      "uri": "Glass_metallicRoughness.png"
    },
    {
      "uri": "Glass_emissive.png"
    },
    {
      "uri": "Cam_Attachments_baseColor.png"
    },
    {
      "uri": "Cam_Attachments_metallicRoughness.png"
    },
    {
      "uri": "Cam_Attachments_emissive.png"
    },
    {
      "uri": "Cam_Attachments_normal.png"
    },
    {
      "uri": "Bolts_baseColor.png"
    },
    {
      "uri": "Bolts_metallicRoughness.png"
    },
    {
      "uri": "Bolts_emissive.png"
    },
    {
      "uri": "Bolts_normal.png"
    },
    {
      "uri": "Cam_Cover_baseColor.png"
    },
    {
      "uri": "Cam_Cover_metallicRoughness.png"
    },
    {
      "uri": "Cam_Cover_emissive.png"
    },
    {
      "uri": "Cam_Cover_normal.png"
    },
    {
      "uri": "WallAttach_baseColor.png"
    },
    {
      "uri": "WallAttach_metallicRoughness.png"
    },
    {
      "uri": "WallAttach_emissive.png"
    },
    {
      "uri": "WallAttach_normal.png"
    },
    {
      "uri": "Cord_baseColor.png"
    },
    {
      "uri": "Cord_metallicRoughness.png"
    },
    {
      "uri": "Cord_emissive.png"
    },
    {
      "uri": "Cord_normal.png"
    },
    {
      "uri": "material_baseColor.png"
    },
    {
      "uri": "material_metallicRoughness.png"
    },
    {
      "uri": "material_emissive.png"
    },
    {
      "uri": "material_normal.png"
    },
    {
      "uri": "Wall_baseColor.png"
    },
    {
      "uri": "Wall_metallicRoughness.png"
    },
    {
      "uri": "Wall_emissive.png"
    },
    {
      "uri": "Wall_normal.png"
    }
  ],
  "materials": [
    {
      "doubleSided": true,
      "emissiveFactor": [
        1.0,
        1.0,
        1.0
      ],
      "emissiveTexture": {
        "index": 2
      },
      "name": "Cam_Body",
      "normalTexture": {
        "index": 3
      },
      "pbrMetallicRoughness": {
        "baseColorTexture": {
          "index": 0
        },
        "metallicRoughnessTexture": {
          "index": 1
        }
      }
    },
    {
      "doubleSided": true,
      "emissiveFactor": [
        1.0,
        1.0,
        1.0
      ],
      "emissiveTexture": {
        "index": 6
      },
      "name": "Cam_FrontBack",
      "normalTexture": {
        "index": 7
      },
      "pbrMetallicRoughness": {
        "baseColorTexture": {
          "index": 4
        },
        "metallicRoughnessTexture": {
          "index": 5
        }
      }
    },
    {
      "doubleSided": true,
      "emissiveFactor": [
        1.0,
        1.0,
        1.0
      ],
      "emissiveTexture": {
        "index": 10
      },
      "name": "Glass",
      "pbrMetallicRoughness": {
        "baseColorTexture": {
          "index": 8
        },
        "metallicRoughnessTexture": {
          "index": 9
        }
      }
    },
    {
      "doubleSided": true,
      "emissiveFactor": [
        1.0,
        1.0,
        1.0
      ],
      "emissiveTexture": {
        "index": 13
      },
      "name": "Cam_Attachments",
      "normalTexture": {
        "index": 14
      },
      "pbrMetallicRoughness": {
        "baseColorTexture": {
          "index": 11
        },
        "metallicRoughnessTexture": {
          "index": 12
        }
      }
    },
    {
      "doubleSided": true,
      "emissiveFactor": [
        1.0,
        1.0,
        1.0
      ],
      "emissiveTexture": {
        "index": 17,
        "texCoord": 2
      },
      "name": "Bolts",
      "normalTexture": {
        "index": 18,
        "texCoord": 3
      },
      "pbrMetallicRoughness": {
        "baseColorTexture": {
          "index": 15
        },
        "metallicRoughnessTexture": {
          "index": 16,
          "texCoord": 1
        }
      }
    },
    {
      "doubleSided": true,
      "emissiveFactor": [
        1.0,
        1.0,
        1.0
      ],
      "emissiveTexture": {
        "index": 21
      },
      "name": "Cam_Cover",
      "normalTexture": {
        "index": 22
      },
      "pbrMetallicRoughness": {
        "baseColorTexture": {
          "index": 19
        },
        "metallicRoughnessTexture": {
          "index": 20
        }
      }
    },
    {
      "doubleSided": true,
      "emissiveFactor": [
        1.0,
        1.0,
        1.0
      ],
      "emissiveTexture": {
        "index": 25
      },
      "name": "WallAttach",
      "normalTexture": {
        "index": 26
      },
      "pbrMetallicRoughness": {
        "baseColorTexture": {
          "index": 23
        },
        "metallicRoughnessTexture": {
          "index": 24
        }
      }
    },
    {
      "doubleSided": true,
      "emissiveFactor": [
        1.0,
        1.0,
        1.0
      ],
      "emissiveTexture": {
        "index": 29
      },
      "name": "Cord",
      "normalTexture": {
        "index": 30
      },
      "pbrMetallicRoughness": {
        "baseColorTexture": {
          "index": 27
        },
        "metallicRoughnessTexture": {
          "index": 28
        }
      }
    },
    {
      "doubleSided": true,
      "emissiveFactor": [
        1.0,
        1.0,
        1.0
      ],
      "emissiveTexture": {
        "index": 33
      },
      "name": "material",
      "normalTexture": {
        "index": 34
      },
      "pbrMetallicRoughness": {
        "baseColorTexture": {
          "index": 31
        },
        "metallicRoughnessTexture": {
          "index": 32
        }
      }
    },
    {
      "doubleSided": true,
      "emissiveFactor": [
        1.0,
        1.0,
        1.0
      ],
      "emissiveTexture": {
        "index": 37
      },
      "name": "Wall",
      "normalTexture": {
        "index": 38
      },
      "pbrMetallicRoughness": {
        "baseColorTexture": {
          "index": 35
        },
        "metallicRoughnessTexture": {
          "index": 36
        }
      }
    }
  ],
  "meshes": [
    {
      "name": "Object_0",
      "primitives": [
        {
          "attributes": {
            "NORMAL": 1,
            "POSITION": 0,
            "TANGENT": 2,
            "TEXCOORD_0": 3,
            "TEXCOORD_1": 4,
            "TEXCOORD_2": 5,
            "TEXCOORD_3": 6,
            "TEXCOORD_4": 7
          },
          "indices": 8,
          "material": 0,
          "mode": 4
        }
      ]
    },
    {
      "name": "Object_1",
      "primitives": [
        {
          "attributes": {
            "NORMAL": 10,
            "POSITION": 9,
            "TANGENT": 11,
            "TEXCOORD_0": 12,
            "TEXCOORD_1": 13,
            "TEXCOORD_2": 14,
            "TEXCOORD_3": 15,
            "TEXCOORD_4": 16
          },
          "indices": 17,
          "material": 1,
          "mode": 4
        }
      ]
    },
    {
      "name": "Object_2",
      "primitives": [
        {
          "attributes": {
            "NORMAL": 19,
            "POSITION": 18,
            "TEXCOORD_0": 20,
            "TEXCOORD_1": 21,
            "TEXCOORD_2": 22,
            "TEXCOORD_3": 23
          },
          "indices": 24,
          "material": 2,
          "mode": 4
        }
      ]
    },
    {
      "name": "Object_3",
      "primitives": [
        {
          "attributes": {
            "NORMAL": 26,
            "POSITION": 25,
            "TANGENT": 27,
            "TEXCOORD_0": 28,
            "TEXCOORD_1": 29,
            "TEXCOORD_2": 30,
            "TEXCOORD_3": 31,
            "TEXCOORD_4": 32
          },
          "indices": 33,
          "material": 3,
          "mode": 4
        }
      ]
    },
    {
      "name": "Object_4",
      "primitives": [
        {
          "attributes": {
            "NORMAL": 35,
            "POSITION": 34,
            "TANGENT": 36,
            "TEXCOORD_0": 37,
            "TEXCOORD_1": 38,
            "TEXCOORD_2": 39,
            "TEXCOORD_3": 40,
            "TEXCOORD_4": 41
          },
          "indices": 42,
          "material": 4,
          "mode": 4
        }
      ]
    },
    {
      "name": "Object_5",
      "primitives": [
        {
          "attributes": {
            "NORMAL": 44,
            "POSITION": 43,
            "TANGENT": 45,
            "TEXCOORD_0": 46,
            "TEXCOORD_1": 47,
            "TEXCOORD_2": 48,
            "TEXCOORD_3": 49,
            "TEXCOORD_4": 50
          },
          "indices": 51,
          "material": 5,
          "mode": 4
        }
      ]
    },
    {
      "name": "Object_6",
      "primitives": [
        {
          "attributes": {
            "NORMAL": 53,
            "POSITION": 52,
            "TANGENT": 54,
            "TEXCOORD_0": 55,
            "TEXCOORD_1": 56,
            "TEXCOORD_2": 57,
            "TEXCOORD_3": 58,
            "TEXCOORD_4": 59
          },
          "indices": 60,
          "material": 6,
          "mode": 4
        }
      ]
    },
    {
      "name": "Object_7",
      "primitives": [
        {
          "attributes": {
            "NORMAL": 62,
            "POSITION": 61,
            "TANGENT": 63,
            "TEXCOORD_0": 64,
            "TEXCOORD_1": 65,
            "TEXCOORD_2": 66,
            "TEXCOORD_3": 67,
            "TEXCOORD_4": 68
          },
          "indices": 69,
          "material": 7,
          "mode": 4
        }
      ]
    },
    {
      "name": "Object_8",
      "primitives": [
        {
          "attributes": {
            "NORMAL": 71,
            "POSITION": 70,
            "TANGENT": 72,
            "TEXCOORD_0": 73,
            "TEXCOORD_1": 74,
            "TEXCOORD_2": 75,
            "TEXCOORD_3": 76,
            "TEXCOORD_4": 77
          },
          "indices": 78,
          "material": 8,
          "mode": 4
        }
      ]
    },
    {
      "name": "Object_9",
      "primitives": [
        {
          "attributes": {
            "NORMAL": 80,
            "POSITION": 79,
            "TANGENT": 81,
            "TEXCOORD_0": 82,
            "TEXCOORD_1": 83,
            "TEXCOORD_2": 84,
            "TEXCOORD_3": 85,
            "TEXCOORD_4": 86
          },
          "indices": 87,
          "material": 9,
          "mode": 4
        }
      ]
    }
  ],
  "nodes": [
    {
      "children": [
        1
      ],
      "matrix": [
        1.0,
        0.0,
        0.0,
        0.0,
        0.0,
        2.220446049250313e-16,
        -1.0,
        0.0,
        0.0,
        1.0,
        2.220446049250313e-16,
        0.0,
        0.0,
        0.0,
        0.0,
        1.0
      ],
      "name": "Sketchfab_model"
    },
    {
      "children": [
        2
      ],
      "name": "root"
    },
    {
      "children": [
        3,
        13
      ],
      "matrix": [
        1.0,
        0.0,
        0.0,
        0.0,
        0.0,
        2.220446049250313e-16,
        1.0,
        0.0,
        0.0,
        -1.0,
        2.220446049250313e-16,
        0.0,
        0.0,
        0.0,
        0.0,
        1.0
      ],
      "name": "GLTF_SceneRootNode"
    },
    {
      "children": [
        4,
        5,
        6,
        7,
        8,
        9,
        10,
        11,
        12
      ],
      "matrix": [
        1.0,
        0.0,
        0.0,
        0.0,
        0.0,
        1.0,
        0.0,
        0.0,
        0.0,
        0.0,
        1.0,
        0.0,
        0.0,
        0.1251658946275711,
        -0.2938632369041443,
        1.0
      ],
      "name": "SurveillanceCamera_0"
    },
    {
      "mesh": 0,
      "name": "Object_4"
    },
    {
      "mesh": 1,
      "name": "Object_5"
    },
    {
      "mesh": 2,
      "name": "Object_6"
    },
    {
      "mesh": 3,
      "name": "Object_7"
    },
    {
      "mesh": 4,
      "name": "Object_8"
    },
    {
      "mesh": 5,
      "name": "Object_9"
    },
    {
      "mesh": 6,
      "name": "Object_10"
    },
    {
      "mesh": 7,
      "name": "Object_11"
    },
    {
      "mesh": 8,
      "name": "Object_12"
    },
    {
      "children": [
        14
      ],
      "matrix": [
        1.0,
        0.0,
        0.0,
        0.0,
        0.0,
        1.0,
        0.0,
        0.0,
        0.0,
        0.0,
        1.0,
        0.0,
        0.0,
        0.1251659095287323,
        -0.29480022192001343,
        1.0
      ],
      "name": "Wall_1"
    },
    {
      "mesh": 9,
      "name": "Object_14"
    }
  ],
  "samplers": [
    {
      "magFilter": 9729,
      "minFilter": 9987,
      "wrapS": 10497,
      "wrapT": 10497
    }
  ],
  "scene": 0,
  "scenes": [
    {
      "name": "Sketchfab_Scene",
      "nodes": [
        0
      ]
    }
  ],
  "textures": [
    {
      "sampler": 0,
      "source": 0
    },
    {
      "sampler": 0,
      "source": 1
    },
    {
      "sampler": 0,
      "source": 2
    },
    {
      "sampler": 0,
      "source": 3
    },
    {
      "sampler": 0,
      "source": 4
    },
    {
      "sampler": 0,
      "source": 5
    },
    {
      "sampler": 0,
      "source": 6
    },
    {
      "sampler": 0,
      "source": 7
    },
    {
      "sampler": 0,
      "source": 8
    },
    {
      "sampler": 0,
      "source": 9
    },
    {
      "sampler": 0,
      "source": 10
    },
    {
      "sampler": 0,
      "source": 11
    },
    {
      "sampler": 0,
      "source": 12
    },
    {
      "sampler": 0,
      "source": 13
    },
    {
      "sampler": 0,
      "source": 14
    },
    {
      "sampler": 0,
      "source": 15
    },
    {
      "sampler": 0,
      "source": 16
    },
    {
      "sampler": 0,
      "source": 17
    },
    {
      "sampler": 0,
      "source": 18
    },
    {
      "sampler": 0,
      "source": 19
    },
    {
      "sampler": 0,
      "source": 20
    },
    {
      "sampler": 0,
      "source": 21
    },
    {
      "sampler": 0,
      "source": 22
    },
    {
      "sampler": 0,
      "source": 23
    },
    {
      "sampler": 0,
      "source": 24
    },
    {
      "sampler": 0,
      "source": 25
    },
    {
      "sampler": 0,
      "source": 26
    },
    {
      "sampler": 0,
      "source": 27
    },
    {
      "sampler": 0,
      "source": 28
    },
    {
      "sampler": 0,
      "source": 29
    },
    {
      "sampler": 0,
      "source": 30
    },
    {
      "sampler": 0,
      "source": 31
    },
    {
      "sampler": 0,
      "source": 32
    },
    {
      "sampler": 0,
      "source": 33
    },
    {
      "sampler": 0,
      "source": 34
    },
    {
      "sampler": 0,
      "source": 35
    },
    {
      "sampler": 0,
      "source": 36
    },
    {
      "sampler": 0,
      "source": 37
    },
    {
      "sampler": 0,
      "source": 38
    }
  ]
}
