{
  "accessors": [
    {
      "bufferView": 2,
      "componentType": 5126,
      "count": 4,
      "max": [
        1.0,
        0.0,
        1.0
      ],
      "min": [
        -1.0,
        0.0,
        -1.0
      ],
      "type": "VEC3"
    },
    {
      "bufferView": 2,
      "byteOffset": 48,
      "componentType": 5126,
      "count": 4,
      "max": [
        0.0,
        1.0,
        -0.0
      ],
      "min": [
        0.0,
        1.0,
        -0.0
      ],
      "type": "VEC3"
    },
    {
      "bufferView": 3,
      "componentType": 5126,
      "count": 4,
      "max": [
        1.0,
        0.0,
        0.0,
        -1.0
      ],
      "min": [
        1.0,
        0.0,
        0.0,
        -1.0
      ],
      "type": "VEC4"
    },
    {
      "bufferView": 1,
      "componentType": 5126,
      "count": 4,
      "max": [
        33.849365234375,
        33.849365234375
      ],
      "min": [
        -32.849365234375,
        -32.849365234375
      ],
      "type": "VEC2"
    },
    {
      "bufferView": 1,
      "byteOffset": 32,
      "componentType": 5126,
      "count": 4,
      "max": [
        33.849365234375,
        33.849365234375
      ],
      "min": [
        -32.849365234375,
        -32.849365234375
      ],
      "type": "VEC2"
    },
    {
      "bufferView": 0,
      "componentType": 5125,
      "count": 6,
      "type": "SCALAR"
    },
    {
      "bufferView": 2,
      "byteOffset": 96,
      "componentType": 5126,
      "count": 4,
      "max": [
        1.0,
        0.0,
        1.0
      ],
      "min": [
        -1.0,
        0.0,
        -1.0
      ],
      "type": "VEC3"
    },
    {
      "bufferView": 2,
      "byteOffset": 144,
      "componentType": 5126,
      "count": 4,
      "max": [
        0.0,
        1.0,
        -0.0
      ],
      "min": [
        0.0,
        1.0,
        -0.0
      ],
      "type": "VEC3"
    },
    {
      "bufferView": 3,
      "byteOffset": 64,
      "componentType": 5126,
      "count": 4,
      "max": [
        1.0,
        0.0,
        0.0,
        -1.0
      ],
      "min": [
        1.0,
        0.0,
        0.0,
        -1.0
      ],
      "type": "VEC4"
    },
    {
      "bufferView": 1,
      "byteOffset": 64,
      "componentType": 5126,
      "count": 4,
      "max": [
        33.849365234375,
        33.849365234375
      ],
      "min": [
        -32.849365234375,
        -32.849365234375
      ],
      "type": "VEC2"
    },
    {
      "bufferView": 1,
      "byteOffset": 96,
      "componentType": 5126,
      "count": 4,
      "max": [
        33.849365234375,
        33.849365234375
      ],
      "min": [
        -32.849365234375,
        -32.849365234375
      ],
      "type": "VEC2"
    },
    {
      "bufferView": 1,
      "byteOffset": 128,
      "componentType": 5126,
      "count": 4,
      "max": [
        33.849365234375,
        33.849365234375
      ],
      "min": [
        -32.849365234375,
        -32.849365234375
      ],
      "type": "VEC2"
    },
    {
      "bufferView": 0,
      "byteOffset": 24,
      "componentType": 5125,
      "count": 6,
      "type": "SCALAR"
    },
    {
      "bufferView": 2,
      "byteOffset": 192,
      "componentType": 5126,
      "count": 5376,
      "max": [
        4.173495292663574,
        0.944717288017273,
        171.33592224121094
      ],
      "min": [
        -5.408767223358154,
        -0.9999999403953552,
        -582.9779052734375
      ],
      "type": "VEC3"
    },
    {
      "bufferView": 2,
      "byteOffset": 64704,
      "componentType": 5126,
      "count": 5376,
      "max": [
        1.0,
        0.0,
        1.0
      ],
      "min": [
        -1.0,
        -1.0,
        -1.0
      ],
      "type": "VEC3"
    },
    {
      "bufferView": 3,
      "byteOffset": 128,
      "componentType": 5126,
      "count": 5376,
      "max": [
        1.0,
        0.7079518437385559,
        1.0,
        1.0
      ],
      "min": [
        -1.0,
        -0.7079527974128723,
        -1.0,
        -1.0
      ],
      "type": "VEC4"
    },
    {
      "bufferView": 1,
      "byteOffset": 160,
      "componentType": 5126,
      "count": 5376,
      "max": [
        4.0776143074035645,
        1.8976885080337524
      ],
      "min": [
        -3.07761287689209,
        -0.8976885080337524
      ],
      "type": "VEC2"
    },
    {
      "bufferView": 1,
      "byteOffset": 43168,
      "componentType": 5126,
      "count": 5376,
      "max": [
        4.0776143074035645,
        1.8976885080337524
      ],
      "min": [
        -3.07761287689209,
        -0.8976885080337524
      ],
      "type": "VEC2"
    },
    {
      "bufferView": 0,
      "byteOffset": 48,
      "componentType": 5125,
      "count": 7560,
      "type": "SCALAR"
    },
    {
      "bufferView": 2,
      "byteOffset": 129216,
      "componentType": 5126,
      "count": 5376,
      "max": [
        4.211832523345947,
        0.970203697681427,
        171.7456817626953
      ],
      "min": [
        -5.447104454040527,
        0.944403350353241,
        -583.3876342773438
      ],
      "type": "VEC3"
    },
    {
      "bufferView": 2,
      "byteOffset": 193728,
      "componentType": 5126,
      "count": 5376,
      "max": [
        0.9999904036521912,
        1.0,
        0.999549925327301
      ],
      "min": [
        -0.9999904036521912,
        -0.9999997615814209,
        -0.9995837807655334
      ],
      "type": "VEC3"
    },
    {
      "bufferView": 1,
      "byteOffset": 86176,
      "componentType": 5126,
      "count": 5376,
      "max": [
        4.0776143074035645,
        1.8976885080337524
      ],
      "min": [
        -3.07761287689209,
        -0.8976885080337524
      ],
      "type": "VEC2"
    },
    {
      "bufferView": 0,
      "byteOffset": 30288,
      "componentType": 5125,
      "count": 7560,
      "type": "SCALAR"
    },
    {
      "bufferView": 2,
      "byteOffset": 258240,
      "componentType": 5126,
      "count": 5376,
      "max": [
        4.173495292663574,
        0.944717288017273,
        171.33592224121094
      ],
      "min": [
        -5.408767223358154,
        -0.9999999403953552,
        -582.9779052734375
      ],
      "type": "VEC3"
    },
    {
      "bufferView": 2,
      "byteOffset": 322752,
      "componentType": 5126,
      "count": 5376,
      "max": [
        1.0,
        0.0,
        1.0
      ],
      "min": [
        -1.0,
        -1.0,
        -1.0
      ],
      "type": "VEC3"
    },
    {
      "bufferView": 3,
      "byteOffset": 86144,
      "componentType": 5126,
      "count": 5376,
      "max": [
        1.0,
        0.7079518437385559,
        1.0,
        1.0
      ],
      "min": [
        -1.0,
        -0.7079527974128723,
        -1.0,
        -1.0
      ],
      "type": "VEC4"
    },
    {
      "bufferView": 1,
      "byteOffset": 129184,
      "componentType": 5126,
      "count": 5376,
      "max": [
        4.0776143074035645,
        1.8976885080337524
      ],
      "min": [
        -3.07761287689209,
        -0.8976885080337524
      ],
      "type": "VEC2"
    },
    {
      "bufferView": 1,
      "byteOffset": 172192,
      "componentType": 5126,
      "count": 5376,
      "max": [
        4.0776143074035645,
        1.8976885080337524
      ],
      "min": [
        -3.07761287689209,
        -0.8976885080337524
      ],
      "type": "VEC2"
    },
    {
      "bufferView": 0,
      "byteOffset": 60528,
      "componentType": 5125,
      "count": 7560,
      "type": "SCALAR"
    },
    {
      "bufferView": 2,
      "byteOffset": 387264,
      "componentType": 5126,
      "count": 5376,
      "max": [
        4.211832523345947,
        0.970203697681427,
        171.7456817626953
      ],
      "min": [
        -5.447104454040527,
        0.944403350353241,
        -583.3876342773438
      ],
      "type": "VEC3"
    },
    {
      "bufferView": 2,
      "byteOffset": 451776,
      "componentType": 5126,
      "count": 5376,
      "max": [
        0.9999904036521912,
        1.0,
        0.999549925327301
      ],
      "min": [
        -0.9999904036521912,
        -0.9999997615814209,
        -0.9995837807655334
      ],
      "type": "VEC3"
    },
    {
      "bufferView": 1,
      "byteOffset": 215200,
      "componentType": 5126,
      "count": 5376,
      "max": [
        4.0776143074035645,
        1.8976885080337524
      ],
      "min": [
        -3.07761287689209,
        -0.8976885080337524
      ],
      "type": "VEC2"
    },
    {
      "bufferView": 0,
      "byteOffset": 90768,
      "componentType": 5125,
      "count": 7560,
      "type": "SCALAR"
    },
    {
      "bufferView": 2,
      "byteOffset": 516288,
      "componentType": 5126,
      "count": 5376,
      "max": [
        4.173495292663574,
        0.944717288017273,
        171.33592224121094
      ],
      "min": [
        -5.408767223358154,
        -0.9999999403953552,
        -582.9779052734375
      ],
      "type": "VEC3"
    },
    {
      "bufferView": 2,
      "byteOffset": 580800,
      "componentType": 5126,
      "count": 5376,
      "max": [
        1.0,
        0.0,
        1.0
      ],
      "min": [
        -1.0,
        -1.0,
        -1.0
      ],
      "type": "VEC3"
    },
    {
      "bufferView": 3,
      "byteOffset": 172160,
      "componentType": 5126,
      "count": 5376,
      "max": [
        1.0,
        0.7079518437385559,
        1.0,
        1.0
      ],
      "min": [
        -1.0,
        -0.7079527974128723,
        -1.0,
        -1.0
      ],
      "type": "VEC4"
    },
    {
      "bufferView": 1,
      "byteOffset": 258208,
      "componentType": 5126,
      "count": 5376,
      "max": [
        4.0776143074035645,
        1.8976885080337524
      ],
      "min": [
        -3.07761287689209,
        -0.8976885080337524
      ],
      "type": "VEC2"
    },
    {
      "bufferView": 1,
      "byteOffset": 301216,
      "componentType": 5126,
      "count": 5376,
      "max": [
        4.0776143074035645,
        1.8976885080337524
      ],
      "min": [
        -3.07761287689209,
        -0.8976885080337524
      ],
      "type": "VEC2"
    },
    {
      "bufferView": 0,
      "byteOffset": 121008,
      "componentType": 5125,
      "count": 7560,
      "type": "SCALAR"
    },
    {
      "bufferView": 2,
      "byteOffset": 645312,
      "componentType": 5126,
      "count": 5376,
      "max": [
        4.211832523345947,
        0.970203697681427,
        171.7456817626953
      ],
      "min": [
        -5.447104454040527,
        0.944403350353241,
        -583.3876342773438
      ],
      "type": "VEC3"
    },
    {
      "bufferView": 2,
      "byteOffset": 709824,
      "componentType": 5126,
      "count": 5376,
      "max": [
        0.9999904036521912,
        1.0,
        0.999549925327301
      ],
      "min": [
        -0.9999904036521912,
        -0.9999997615814209,
        -0.9995837807655334
      ],
      "type": "VEC3"
    },
    {
      "bufferView": 1,
      "byteOffset": 344224,
      "componentType": 5126,
      "count": 5376,
      "max": [
        4.0776143074035645,
        1.8976885080337524
      ],
      "min": [
        -3.07761287689209,
        -0.8976885080337524
      ],
      "type": "VEC2"
    },
    {
      "bufferView": 0,
      "byteOffset": 151248,
      "componentType": 5125,
      "count": 7560,
      "type": "SCALAR"
    },
    {
      "bufferView": 2,
      "byteOffset": 774336,
      "componentType": 5126,
      "count": 5376,
      "max": [
        4.173495292663574,
        0.944717288017273,
        171.33592224121094
      ],
      "min": [
        -5.408767223358154,
        -0.9999999403953552,
        -582.9779052734375
      ],
      "type": "VEC3"
    },
    {
      "bufferView": 2,
      "byteOffset": 838848,
      "componentType": 5126,
      "count": 5376,
      "max": [
        1.0,
        0.0,
        1.0
      ],
      "min": [
        -1.0,
        -1.0,
        -1.0
      ],
      "type": "VEC3"
    },
    {
      "bufferView": 3,
      "byteOffset": 258176,
      "componentType": 5126,
      "count": 5376,
      "max": [
        1.0,
        0.7079518437385559,
        1.0,
        1.0
      ],
      "min": [
        -1.0,
        -0.7079527974128723,
        -1.0,
        -1.0
      ],
      "type": "VEC4"
    },
    {
      "bufferView": 1,
      "byteOffset": 387232,
      "componentType": 5126,
      "count": 5376,
      "max": [
        4.0776143074035645,
        1.8976885080337524
      ],
      "min": [
        -3.07761287689209,
        -0.8976885080337524
      ],
      "type": "VEC2"
    },
    {
      "bufferView": 1,
      "byteOffset": 430240,
      "componentType": 5126,
      "count": 5376,
      "max": [
        4.0776143074035645,
        1.8976885080337524
      ],
      "min": [
        -3.07761287689209,
        -0.8976885080337524
      ],
      "type": "VEC2"
    },
    {
      "bufferView": 0,
      "byteOffset": 181488,
      "componentType": 5125,
      "count": 7560,
      "type": "SCALAR"
    },
    {
      "bufferView": 2,
      "byteOffset": 903360,
      "componentType": 5126,
      "count": 5376,
      "max": [
        4.211832523345947,
        0.970203697681427,
        171.7456817626953
      ],
      "min": [
        -5.447104454040527,
        0.944403350353241,
        -583.3876342773438
      ],
      "type": "VEC3"
    },
    {
      "bufferView": 2,
      "byteOffset": 967872,
      "componentType": 5126,
      "count": 5376,
      "max": [
        0.9999904036521912,
        1.0,
        0.999549925327301
      ],
      "min": [
        -0.9999904036521912,
        -0.9999997615814209,
        -0.9995837807655334
      ],
      "type": "VEC3"
    },
    {
      "bufferView": 1,
      "byteOffset": 473248,
      "componentType": 5126,
      "count": 5376,
      "max": [
        4.0776143074035645,
        1.8976885080337524
      ],
      "min": [
        -3.07761287689209,
        -0.8976885080337524
      ],
      "type": "VEC2"
    },
    {
      "bufferView": 0,
      "byteOffset": 211728,
      "componentType": 5125,
      "count": 7560,
      "type": "SCALAR"
    },
    {
      "bufferView": 2,
      "byteOffset": 1032384,
      "componentType": 5126,
      "count": 5376,
      "max": [
        4.173495292663574,
        0.944717288017273,
        171.33592224121094
      ],
      "min": [
        -5.408767223358154,
        -0.9999999403953552,
        -582.9779052734375
      ],
      "type": "VEC3"
    },
    {
      "bufferView": 2,
      "byteOffset": 1096896,
      "componentType": 5126,
      "count": 5376,
      "max": [
        1.0,
        0.0,
        1.0
      ],
      "min": [
        -1.0,
        -1.0,
        -1.0
      ],
      "type": "VEC3"
    },
    {
      "bufferView": 3,
      "byteOffset": 344192,
      "componentType": 5126,
      "count": 5376,
      "max": [
        1.0,
        0.7079518437385559,
        1.0,
        1.0
      ],
      "min": [
        -1.0,
        -0.7079527974128723,
        -1.0,
        -1.0
      ],
      "type": "VEC4"
    },
    {
      "bufferView": 1,
      "byteOffset": 516256,
      "componentType": 5126,
      "count": 5376,
      "max": [
        4.0776143074035645,
        1.8976885080337524
      ],
      "min": [
        -3.07761287689209,
        -0.8976885080337524
      ],
      "type": "VEC2"
    },
    {
      "bufferView": 1,
      "byteOffset": 559264,
      "componentType": 5126,
      "count": 5376,
      "max": [
        4.0776143074035645,
        1.8976885080337524
      ],
      "min": [
        -3.07761287689209,
        -0.8976885080337524
      ],
      "type": "VEC2"
    },
    {
      "bufferView": 0,
      "byteOffset": 241968,
      "componentType": 5125,
      "count": 7560,
      "type": "SCALAR"
    },
    {
      "bufferView": 2,
      "byteOffset": 1161408,
      "componentType": 5126,
      "count": 5376,
      "max": [
        4.211832523345947,
        0.970203697681427,
        171.7456817626953
      ],
      "min": [
        -5.447104454040527,
        0.944403350353241,
        -583.3876342773438
      ],
      "type": "VEC3"
    },
    {
      "bufferView": 2,
      "byteOffset": 1225920,
      "componentType": 5126,
      "count": 5376,
      "max": [
        0.9999904036521912,
        1.0,
        0.999549925327301
      ],
      "min": [
        -0.9999904036521912,
        -0.9999997615814209,
        -0.9995837807655334
      ],
      "type": "VEC3"
    },
    {
      "bufferView": 1,
      "byteOffset": 602272,
      "componentType": 5126,
      "count": 5376,
      "max": [
        4.0776143074035645,
        1.8976885080337524
      ],
      "min": [
        -3.07761287689209,
        -0.8976885080337524
      ],
      "type": "VEC2"
    },
    {
      "bufferView": 0,
      "byteOffset": 272208,
      "componentType": 5125,
      "count": 7560,
      "type": "SCALAR"
    },
    {
      "bufferView": 2,
      "byteOffset": 1290432,
      "componentType": 5126,
      "count": 5376,
      "max": [
        4.173495292663574,
        0.944717288017273,
        171.33592224121094
      ],
      "min": [
        -5.408767223358154,
        -0.9999999403953552,
        -582.9779052734375
      ],
      "type": "VEC3"
    },
    {
      "bufferView": 2,
      "byteOffset": 1354944,
      "componentType": 5126,
      "count": 5376,
      "max": [
        1.0,
        0.0,
        1.0
      ],
      "min": [
        -1.0,
        -1.0,
        -1.0
      ],
      "type": "VEC3"
    },
    {
      "bufferView": 3,
      "byteOffset": 430208,
      "componentType": 5126,
      "count": 5376,
      "max": [
        1.0,
        0.7079518437385559,
        1.0,
        1.0
      ],
      "min": [
        -1.0,
        -0.7079527974128723,
        -1.0,
        -1.0
      ],
      "type": "VEC4"
    },
    {
      "bufferView": 1,
      "byteOffset": 645280,
      "componentType": 5126,
      "count": 5376,
      "max": [
        4.0776143074035645,
        1.8976885080337524
      ],
      "min": [
        -3.07761287689209,
        -0.8976885080337524
      ],
      "type": "VEC2"
    },
    {
      "bufferView": 1,
      "byteOffset": 688288,
      "componentType": 5126,
      "count": 5376,
      "max": [
        4.0776143074035645,
        1.8976885080337524
      ],
      "min": [
        -3.07761287689209,
        -0.8976885080337524
      ],
      "type": "VEC2"
    },
    {
      "bufferView": 0,
      "byteOffset": 302448,
      "componentType": 5125,
      "count": 7560,
      "type": "SCALAR"
    },
    {
      "bufferView": 2,
      "byteOffset": 1419456,
      "componentType": 5126,
      "count": 5376,
      "max": [
        4.211832523345947,
        0.970203697681427,
        171.7456817626953
      ],
      "min": [
        -5.447104454040527,
        0.944403350353241,
        -583.3876342773438
      ],
      "type": "VEC3"
    },
    {
      "bufferView": 2,
      "byteOffset": 1483968,
      "componentType": 5126,
      "count": 5376,
      "max": [
        0.9999904036521912,
        1.0,
        0.999549925327301
      ],
      "min": [
        -0.9999904036521912,
        -0.9999997615814209,
        -0.9995837807655334
      ],
      "type": "VEC3"
    },
    {
      "bufferView": 1,
      "byteOffset": 731296,
      "componentType": 5126,
      "count": 5376,
      "max": [
        4.0776143074035645,
        1.8976885080337524
      ],
      "min": [
        -3.07761287689209,
        -0.8976885080337524
      ],
      "type": "VEC2"
    },
    {
      "bufferView": 0,
      "byteOffset": 332688,
      "componentType": 5125,
      "count": 7560,
      "type": "SCALAR"
    },
    {
      "bufferView": 2,
      "byteOffset": 1548480,
      "componentType": 5126,
      "count": 5376,
      "max": [
        4.173495292663574,
        0.944717288017273,
        171.33592224121094
      ],
      "min": [
        -5.408767223358154,
        -0.9999999403953552,
        -582.9779052734375
      ],
      "type": "VEC3"
    },
    {
      "bufferView": 2,
      "byteOffset": 1612992,
      "componentType": 5126,
      "count": 5376,
      "max": [
        1.0,
        0.0,
        1.0
      ],
      "min": [
        -1.0,
        -1.0,
        -1.0
      ],
      "type": "VEC3"
    },
    {
      "bufferView": 3,
      "byteOffset": 516224,
      "componentType": 5126,
      "count": 5376,
      "max": [
        1.0,
        0.7079518437385559,
        1.0,
        1.0
      ],
      "min": [
        -1.0,
        -0.7079527974128723,
        -1.0,
        -1.0
      ],
      "type": "VEC4"
    },
    {
      "bufferView": 1,
      "byteOffset": 774304,
      "componentType": 5126,
      "count": 5376,
      "max": [
        4.0776143074035645,
        1.8976885080337524
      ],
      "min": [
        -3.07761287689209,
        -0.8976885080337524
      ],
      "type": "VEC2"
    },
    {
      "bufferView": 1,
      "byteOffset": 817312,
      "componentType": 5126,
      "count": 5376,
      "max": [
        4.0776143074035645,
        1.8976885080337524
      ],
      "min": [
        -3.07761287689209,
        -0.8976885080337524
      ],
      "type": "VEC2"
    },
    {
      "bufferView": 0,
      "byteOffset": 362928,
      "componentType": 5125,
      "count": 7560,
      "type": "SCALAR"
    },
    {
      "bufferView": 2,
      "byteOffset": 1677504,
      "componentType": 5126,
      "count": 5376,
      "max": [
        4.211832523345947,
        0.970203697681427,
        171.7456817626953
      ],
      "min": [
        -5.447104454040527,
        0.944403350353241,
        -583.3876342773438
      ],
      "type": "VEC3"
    },
    {
      "bufferView": 2,
      "byteOffset": 1742016,
      "componentType": 5126,
      "count": 5376,
      "max": [
        0.9999904036521912,
        1.0,
        0.999549925327301
      ],
      "min": [
        -0.9999904036521912,
        -0.9999997615814209,
        -0.9995837807655334
      ],
      "type": "VEC3"
    },
    {
      "bufferView": 1,
      "byteOffset": 860320,
      "componentType": 5126,
      "count": 5376,
      "max": [
        4.0776143074035645,
        1.8976885080337524
      ],
      "min": [
        -3.07761287689209,
        -0.8976885080337524
      ],
      "type": "VEC2"
    },
    {
      "bufferView": 0,
      "byteOffset": 393168,
      "componentType": 5125,
      "count": 7560,
      "type": "SCALAR"
    },
    {
      "bufferView": 2,
      "byteOffset": 1806528,
      "componentType": 5126,
      "count": 16,
      "max": [
        1.0,
        1.0,
        1.0
      ],
      "min": [
        -1.0,
        -1.0,
        -1.0
      ],
      "type": "VEC3"
    },
    {
      "bufferView": 2,
      "byteOffset": 1806720,
      "componentType": 5126,
      "count": 16,
      "max": [
        1.0,
        0.0,
        1.0
      ],
      "min": [
        -1.0,
        0.0,
        -1.0
      ],
      "type": "VEC3"
    },
    {
      "bufferView": 3,
      "byteOffset": 602240,
      "componentType": 5126,
      "count": 16,
      "max": [
        1.0,
        0.0,
        0.0,
        1.0
      ],
      "min": [
        0.0,
        0.0,
        -1.0,
        -1.0
      ],
      "type": "VEC4"
    },
    {
      "bufferView": 1,
      "byteOffset": 903328,
      "componentType": 5126,
      "count": 16,
      "max": [
        28.466413497924805,
        6.461839199066162
      ],
      "min": [
        -27.466413497924805,
        -5.461839199066162
      ],
      "type": "VEC2"
    },
    {
      "bufferView": 1,
      "byteOffset": 903456,
      "componentType": 5126,
      "count": 16,
      "max": [
        28.466413497924805,
        6.461839199066162
      ],
      "min": [
        -27.466413497924805,
        -5.461839199066162
      ],
      "type": "VEC2"
    },
    {
      "bufferView": 0,
      "byteOffset": 423408,
      "componentType": 5125,
      "count": 24,
      "type": "SCALAR"
    },
    {
      "bufferView": 2,
      "byteOffset": 1806912,
      "componentType": 5126,
      "count": 5376,
      "max": [
        4.173495292663574,
        0.944717288017273,
        171.33592224121094
      ],
      "min": [
        -5.408767223358154,
        -0.9999999403953552,
        -582.9779052734375
      ],
      "type": "VEC3"
    },
    {
      "bufferView": 2,
      "byteOffset": 1871424,
      "componentType": 5126,
      "count": 5376,
      "max": [
        1.0,
        0.0,
        1.0
      ],
      "min": [
        -1.0,
        -1.0,
        -1.0
      ],
      "type": "VEC3"
    },
    {
      "bufferView": 3,
      "byteOffset": 602496,
      "componentType": 5126,
      "count": 5376,
      "max": [
        1.0,
        0.7079518437385559,
        1.0,
        1.0
      ],
      "min": [
        -1.0,
        -0.7079527974128723,
        -1.0,
        -1.0
      ],
      "type": "VEC4"
    },
    {
      "bufferView": 1,
      "byteOffset": 903584,
      "componentType": 5126,
      "count": 5376,
      "max": [
        4.0776143074035645,
        1.8976885080337524
      ],
      "min": [
        -3.07761287689209,
        -0.8976885080337524
      ],
      "type": "VEC2"
    },
    {
      "bufferView": 1,
      "byteOffset": 946592,
      "componentType": 5126,
      "count": 5376,
      "max": [
        4.0776143074035645,
        1.8976885080337524
      ],
      "min": [
        -3.07761287689209,
        -0.8976885080337524
      ],
      "type": "VEC2"
    },
    {
      "bufferView": 0,
      "byteOffset": 423504,
      "componentType": 5125,
      "count": 7560,
      "type": "SCALAR"
    },
    {
      "bufferView": 2,
      "byteOffset": 1935936,
      "componentType": 5126,
      "count": 5376,
      "max": [
        4.211832523345947,
        0.970203697681427,
        171.7456817626953
      ],
      "min": [
        -5.447104454040527,
        0.944403350353241,
        -583.3876342773438
      ],
      "type": "VEC3"
    },
    {
      "bufferView": 2,
      "byteOffset": 2000448,
      "componentType": 5126,
      "count": 5376,
      "max": [
        0.9999904036521912,
        1.0,
        0.999549925327301
      ],
      "min": [
        -0.9999904036521912,
        -0.9999997615814209,
        -0.9995837807655334
      ],
      "type": "VEC3"
    },
    {
      "bufferView": 1,
      "byteOffset": 989600,
      "componentType": 5126,
      "count": 5376,
      "max": [
        4.0776143074035645,
        1.8976885080337524
      ],
      "min": [
        -3.07761287689209,
        -0.8976885080337524
      ],
      "type": "VEC2"
    },
    {
      "bufferView": 0,
      "byteOffset": 453744,
      "componentType": 5125,
      "count": 7560,
      "type": "SCALAR"
    },
    {
      "bufferView": 2,
      "byteOffset": 2064960,
      "componentType": 5126,
      "count": 5376,
      "max": [
        4.173495292663574,
        0.944717288017273,
        171.33592224121094
      ],
      "min": [
        -5.408767223358154,
        -0.9999999403953552,
        -582.9779052734375
      ],
      "type": "VEC3"
    },
    {
      "bufferView": 2,
      "byteOffset": 2129472,
      "componentType": 5126,
      "count": 5376,
      "max": [
        1.0,
        0.0,
        1.0
      ],
      "min": [
        -1.0,
        -1.0,
        -1.0
      ],
      "type": "VEC3"
    },
    {
      "bufferView": 3,
      "byteOffset": 688512,
      "componentType": 5126,
      "count": 5376,
      "max": [
        1.0,
        0.7079518437385559,
        1.0,
        1.0
      ],
      "min": [
        -1.0,
        -0.7079527974128723,
        -1.0,
        -1.0
      ],
      "type": "VEC4"
    },
    {
      "bufferView": 1,
      "byteOffset": 1032608,
      "componentType": 5126,
      "count": 5376,
      "max": [
        4.0776143074035645,
        1.8976885080337524
      ],
      "min": [
        -3.07761287689209,
        -0.8976885080337524
      ],
      "type": "VEC2"
    },
    {
      "bufferView": 1,
      "byteOffset": 1075616,
      "componentType": 5126,
      "count": 5376,
      "max": [
        4.0776143074035645,
        1.8976885080337524
      ],
      "min": [
        -3.07761287689209,
        -0.8976885080337524
      ],
      "type": "VEC2"
    },
    {
      "bufferView": 0,
      "byteOffset": 483984,
      "componentType": 5125,
      "count": 7560,
      "type": "SCALAR"
    },
    {
      "bufferView": 2,
      "byteOffset": 2193984,
      "componentType": 5126,
      "count": 5376,
      "max": [
        4.211832523345947,
        0.970203697681427,
        171.7456817626953
      ],
      "min": [
        -5.447104454040527,
        0.944403350353241,
        -583.3876342773438
      ],
      "type": "VEC3"
    },
    {
      "bufferView": 2,
      "byteOffset": 2258496,
      "componentType": 5126,
      "count": 5376,
      "max": [
        0.9999904036521912,
        1.0,
        0.999549925327301
      ],
      "min": [
        -0.9999904036521912,
        -0.9999997615814209,
        -0.9995837807655334
      ],
      "type": "VEC3"
    },
    {
      "bufferView": 1,
      "byteOffset": 1118624,
      "componentType": 5126,
      "count": 5376,
      "max": [
        4.0776143074035645,
        1.8976885080337524
      ],
      "min": [
        -3.07761287689209,
        -0.8976885080337524
      ],
      "type": "VEC2"
    },
    {
      "bufferView": 0,
      "byteOffset": 514224,
      "componentType": 5125,
      "count": 7560,
      "type": "SCALAR"
    },
    {
      "bufferView": 2,
      "byteOffset": 2323008,
      "componentType": 5126,
      "count": 5376,
      "max": [
        4.173495292663574,
        0.944717288017273,
        171.33592224121094
      ],
      "min": [
        -5.408767223358154,
        -0.9999999403953552,
        -582.9779052734375
      ],
      "type": "VEC3"
    },
    {
      "bufferView": 2,
      "byteOffset": 2387520,
      "componentType": 5126,
      "count": 5376,
      "max": [
        1.0,
        0.0,
        1.0
      ],
      "min": [
        -1.0,
        -1.0,
        -1.0
      ],
      "type": "VEC3"
    },
    {
      "bufferView": 3,
      "byteOffset": 774528,
      "componentType": 5126,
      "count": 5376,
      "max": [
        1.0,
        0.7079518437385559,
        1.0,
        1.0
      ],
      "min": [
        -1.0,
        -0.7079527974128723,
        -1.0,
        -1.0
      ],
      "type": "VEC4"
    },
    {
      "bufferView": 1,
      "byteOffset": 1161632,
      "componentType": 5126,
      "count": 5376,
      "max": [
        4.0776143074035645,
        1.8976885080337524
      ],
      "min": [
        -3.07761287689209,
        -0.8976885080337524
      ],
      "type": "VEC2"
    },
    {
      "bufferView": 1,
      "byteOffset": 1204640,
      "componentType": 5126,
      "count": 5376,
      "max": [
        4.0776143074035645,
        1.8976885080337524
      ],
      "min": [
        -3.07761287689209,
        -0.8976885080337524
      ],
      "type": "VEC2"
    },
    {
      "bufferView": 0,
      "byteOffset": 544464,
      "componentType": 5125,
      "count": 7560,
      "type": "SCALAR"
    },
    {
      "bufferView": 2,
      "byteOffset": 2452032,
      "componentType": 5126,
      "count": 5376,
      "max": [
        4.211832523345947,
        0.970203697681427,
        171.7456817626953
      ],
      "min": [
        -5.447104454040527,
        0.944403350353241,
        -583.3876342773438
      ],
      "type": "VEC3"
    },
    {
      "bufferView": 2,
      "byteOffset": 2516544,
      "componentType": 5126,
      "count": 5376,
      "max": [
        0.9999904036521912,
        1.0,
        0.999549925327301
      ],
      "min": [
        -0.9999904036521912,
        -0.9999997615814209,
        -0.9995837807655334
      ],
      "type": "VEC3"
    },
    {
      "bufferView": 1,
      "byteOffset": 1247648,
      "componentType": 5126,
      "count": 5376,
      "max": [
        4.0776143074035645,
        1.8976885080337524
      ],
      "min": [
        -3.07761287689209,
        -0.8976885080337524
      ],
      "type": "VEC2"
    },
    {
      "bufferView": 0,
      "byteOffset": 574704,
      "componentType": 5125,
      "count": 7560,
      "type": "SCALAR"
    },
    {
      "bufferView": 2,
      "byteOffset": 2581056,
      "componentType": 5126,
      "count": 5376,
      "max": [
        4.173495292663574,
        0.944717288017273,
        171.33592224121094
      ],
      "min": [
        -5.408767223358154,
        -0.9999999403953552,
        -582.9779052734375
      ],
      "type": "VEC3"
    },
    {
      "bufferView": 2,
      "byteOffset": 2645568,
      "componentType": 5126,
      "count": 5376,
      "max": [
        1.0,
        0.0,
        1.0
      ],
      "min": [
        -1.0,
        -1.0,
        -1.0
      ],
      "type": "VEC3"
    },
    {
      "bufferView": 3,
      "byteOffset": 860544,
      "componentType": 5126,
      "count": 5376,
      "max": [
        1.0,
        0.7079518437385559,
        1.0,
        1.0
      ],
      "min": [
        -1.0,
        -0.7079527974128723,
        -1.0,
        -1.0
      ],
      "type": "VEC4"
    },
    {
      "bufferView": 1,
      "byteOffset": 1290656,
      "componentType": 5126,
      "count": 5376,
      "max": [
        4.0776143074035645,
        1.8976885080337524
      ],
      "min": [
        -3.07761287689209,
        -0.8976885080337524
      ],
      "type": "VEC2"
    },
    {
      "bufferView": 1,
      "byteOffset": 1333664,
      "componentType": 5126,
      "count": 5376,
      "max": [
        4.0776143074035645,
        1.8976885080337524
      ],
      "min": [
        -3.07761287689209,
        -0.8976885080337524
      ],
      "type": "VEC2"
    },
    {
      "bufferView": 0,
      "byteOffset": 604944,
      "componentType": 5125,
      "count": 7560,
      "type": "SCALAR"
    },
    {
      "bufferView": 2,
      "byteOffset": 2710080,
      "componentType": 5126,
      "count": 5376,
      "max": [
        4.211832523345947,
        0.970203697681427,
        171.7456817626953
      ],
      "min": [
        -5.447104454040527,
        0.944403350353241,
        -583.3876342773438
      ],
      "type": "VEC3"
    },
    {
      "bufferView": 2,
      "byteOffset": 2774592,
      "componentType": 5126,
      "count": 5376,
      "max": [
        0.9999904036521912,
        1.0,
        0.999549925327301
      ],
      "min": [
        -0.9999904036521912,
        -0.9999997615814209,
        -0.9995837807655334
      ],
      "type": "VEC3"
    },
    {
      "bufferView": 1,
      "byteOffset": 1376672,
      "componentType": 5126,
      "count": 5376,
      "max": [
        4.0776143074035645,
        1.8976885080337524
      ],
      "min": [
        -3.07761287689209,
        -0.8976885080337524
      ],
      "type": "VEC2"
    },
    {
      "bufferView": 0,
      "byteOffset": 635184,
      "componentType": 5125,
      "count": 7560,
      "type": "SCALAR"
    },
    {
      "bufferView": 2,
      "byteOffset": 2839104,
      "componentType": 5126,
      "count": 5376,
      "max": [
        4.173495292663574,
        0.944717288017273,
        171.33592224121094
      ],
      "min": [
        -5.408767223358154,
        -0.9999999403953552,
        -582.9779052734375
      ],
      "type": "VEC3"
    },
    {
      "bufferView": 2,
      "byteOffset": 2903616,
      "componentType": 5126,
      "count": 5376,
      "max": [
        1.0,
        0.0,
        1.0
      ],
      "min": [
        -1.0,
        -1.0,
        -1.0
      ],
      "type": "VEC3"
    },
    {
      "bufferView": 3,
      "byteOffset": 946560,
      "componentType": 5126,
      "count": 5376,
      "max": [
        1.0,
        0.7079518437385559,
        1.0,
        1.0
      ],
      "min": [
        -1.0,
        -0.7079527974128723,
        -1.0,
        -1.0
      ],
      "type": "VEC4"
    },
    {
      "bufferView": 1,
      "byteOffset": 1419680,
      "componentType": 5126,
      "count": 5376,
      "max": [
        4.0776143074035645,
        1.8976885080337524
      ],
      "min": [
        -3.07761287689209,
        -0.8976885080337524
      ],
      "type": "VEC2"
    },
    {
      "bufferView": 1,
      "byteOffset": 1462688,
      "componentType": 5126,
      "count": 5376,
      "max": [
        4.0776143074035645,
        1.8976885080337524
      ],
      "min": [
        -3.07761287689209,
        -0.8976885080337524
      ],
      "type": "VEC2"
    },
    {
      "bufferView": 0,
      "byteOffset": 665424,
      "componentType": 5125,
      "count": 7560,
      "type": "SCALAR"
    },
    {
      "bufferView": 2,
      "byteOffset": 2968128,
      "componentType": 5126,
      "count": 5376,
      "max": [
        4.211832523345947,
        0.970203697681427,
        171.7456817626953
      ],
      "min": [
        -5.447104454040527,
        0.944403350353241,
        -583.3876342773438
      ],
      "type": "VEC3"
    },
    {
      "bufferView": 2,
      "byteOffset": 3032640,
      "componentType": 5126,
      "count": 5376,
      "max": [
        0.9999904036521912,
        1.0,
        0.999549925327301
      ],
      "min": [
        -0.9999904036521912,
        -0.9999997615814209,
        -0.9995837807655334
      ],
      "type": "VEC3"
    },
    {
      "bufferView": 1,
      "byteOffset": 1505696,
      "componentType": 5126,
      "count": 5376,
      "max": [
        4.0776143074035645,
        1.8976885080337524
      ],
      "min": [
        -3.07761287689209,
        -0.8976885080337524
      ],
      "type": "VEC2"
    },
    {
      "bufferView": 0,
      "byteOffset": 695664,
      "componentType": 5125,
      "count": 7560,
      "type": "SCALAR"
    }
  ],
  "asset": {
    "extras": {
      "author": "bro (https://sketchfab.com/speakerscientist74_Legit)",
      "license": "CC-BY-4.0 (http://creativecommons.org/licenses/by/4.0/)",
      "source": "https://sketchfab.com/3d-models/backrooms-level-0-f2c4a5ba14754c9eb09a3daeab0b3c0f",
      "title": "Backrooms level 0"
    },
    "generator": "Sketchfab-17.8.0",
    "version": "2.0"
  },
  "bufferViews": [
    {
      "buffer": 0,
      "byteLength": 725904,
      "name": "floatBufferViews",
      "target": 34963
    },
    {
      "buffer": 0,
      "byteLength": 1548704,
      "byteOffset": 725904,
      "byteStride": 8,
      "name": "floatBufferViews",
      "target": 34962
    },
    {
      "buffer": 0,
      "byteLength": 3097152,
      "byteOffset": 2274608,
      "byteStride": 12,
      "name": "floatBufferViews",
      "target": 34962
    },
    {
      "buffer": 0,
      "byteLength": 1032576,
      "byteOffset": 5371760,
      "byteStride": 16,
      "name": "floatBufferViews",
      "target": 34962
    }
  ],
  "buffers": [
    {
      "byteLength": 6404336,
      "uri": "scene.bin"
    }
  ],
  "extensionsUsed": [
    "KHR_materials_emissive_strength",
    "KHR_materials_specular"
  ],
  "images": [
    {
      "uri": "textures/Material.001_baseColor.png"
    },
    {
      "uri": "textures/Material.001_normal.jpeg"
    },
    {
      "uri": "textures/Material.005_baseColor.png"
    },
    {
      "uri": "textures/Material.005_emissive.png"
    },
    {
      "uri": "textures/Material.005_normal.png"
    },
    {
      "uri": "textures/Material_baseColor.jpeg"
    },
    {
      "uri": "textures/Material_normal.png"
    }
  ],
  "materials": [
    {
      "doubleSided": true,
      "name": "Material.001",
      "normalTexture": {
        "index": 1,
        "scale": 0.7
      },
      "pbrMetallicRoughness": {
        "baseColorTexture": {
          "index": 0
        },
        "metallicFactor": 0.0,
        "roughnessFactor": 0.5
      }
    },
    {
      "doubleSided": true,
      "emissiveFactor": [
        1.0,
        1.0,
        1.0
      ],
      "emissiveTexture": {
        "index": 3
      },
      "extensions": {
        "KHR_materials_emissive_strength": {
          "emissiveStrength": 10.0
        },
        "KHR_materials_specular": {
          "specularColorFactor": [
            1.0,
            1.0,
            1.0
          ],
          "specularFactor": 1.0
        }
      },
      "name": "Material.005",
      "normalTexture": {
        "index": 4,
        "scale": 0.7
      },
      "pbrMetallicRoughness": {
        "baseColorTexture": {
          "index": 2
        },
        "metallicFactor": 0.0,
        "roughnessFactor": 0.445455
      }
    },
    {
      "doubleSided": true,
      "extensions": {
        "KHR_materials_specular": {
          "specularColorFactor": [
            1.0,
            1.0,
            1.0
          ],
          "specularFactor": 0.8134796338475685
        }
      },
      "name": "Material",
      "normalTexture": {
        "index": 6,
        "scale": 0.3
      },
      "pbrMetallicRoughness": {
        "baseColorTexture": {
          "index": 5
        },
        "metallicFactor": 0.0,
        "roughnessFactor": 0.5
      }
    },
    {
      "doubleSided": true,
      "name": "wood",
      "pbrMetallicRoughness": {
        "baseColorFactor": [
          0.0514062,
          0.0297388,
          0.0161488,
          1.0
        ],
        "metallicFactor": 0.0,
        "roughnessFactor": 0.5
      }
    }
  ],
  "meshes": [
    {
      "name": "Object_0",
      "primitives": [
        {
          "attributes": {
            "NORMAL": 1,
            "POSITION": 0,
            "TANGENT": 2,
            "TEXCOORD_0": 3,
            "TEXCOORD_1": 4
          },
          "indices": 5,
          "material": 0,
          "mode": 4
        }
      ]
    },
    {
      "name": "Object_1",
      "primitives": [
        {
          "attributes": {
            "NORMAL": 7,
            "POSITION": 6,
            "TANGENT": 8,
            "TEXCOORD_0": 9,
            "TEXCOORD_1": 10,
            "TEXCOORD_2": 11
          },
          "indices": 12,
          "material": 1,
          "mode": 4
        }
      ]
    },
    {
      "name": "Object_2",
      "primitives": [
        {
          "attributes": {
            "NORMAL": 14,
            "POSITION": 13,
            "TANGENT": 15,
            "TEXCOORD_0": 16,
            "TEXCOORD_1": 17
          },
          "indices": 18,
          "material": 2,
          "mode": 4
        }
      ]
    },
    {
      "name": "Object_3",
      "primitives": [
        {
          "attributes": {
            "NORMAL": 20,
            "POSITION": 19,
            "TEXCOORD_0": 21
          },
          "indices": 22,
          "material": 3,
          "mode": 4
        }
      ]
    },
    {
      "name": "Object_4",
      "primitives": [
        {
          "attributes": {
            "NORMAL": 24,
            "POSITION": 23,
            "TANGENT": 25,
            "TEXCOORD_0": 26,
            "TEXCOORD_1": 27
          },
          "indices": 28,
          "material": 2,
          "mode": 4
        }
      ]
    },
    {
      "name": "Object_5",
      "primitives": [
        {
          "attributes": {
            "NORMAL": 30,
            "POSITION": 29,
            "TEXCOORD_0": 31
          },
          "indices": 32,
          "material": 3,
          "mode": 4
        }
      ]
    },
    {
      "name": "Object_6",
      "primitives": [
        {
          "attributes": {
            "NORMAL": 34,
            "POSITION": 33,
            "TANGENT": 35,
            "TEXCOORD_0": 36,
            "TEXCOORD_1": 37
          },
          "indices": 38,
          "material": 2,
          "mode": 4
        }
      ]
    },
    {
      "name": "Object_7",
      "primitives": [
        {
          "attributes": {
            "NORMAL": 40,
            "POSITION": 39,
            "TEXCOORD_0": 41
          },
          "indices": 42,
          "material": 3,
          "mode": 4
        }
      ]
    },
    {
      "name": "Object_8",
      "primitives": [
        {
          "attributes": {
            "NORMAL": 44,
            "POSITION": 43,
            "TANGENT": 45,
            "TEXCOORD_0": 46,
            "TEXCOORD_1": 47
          },
          "indices": 48,
          "material": 2,
          "mode": 4
        }
      ]
    },
    {
      "name": "Object_9",
      "primitives": [
        {
          "attributes": {
            "NORMAL": 50,
            "POSITION": 49,
            "TEXCOORD_0": 51
          },
          "indices": 52,
          "material": 3,
          "mode": 4
        }
      ]
    },
    {
      "name": "Object_10",
      "primitives": [
        {
          "attributes": {
            "NORMAL": 54,
            "POSITION": 53,
            "TANGENT": 55,
            "TEXCOORD_0": 56,
            "TEXCOORD_1": 57
          },
          "indices": 58,
          "material": 2,
          "mode": 4
        }
      ]
    },
    {
      "name": "Object_11",
      "primitives": [
        {
          "attributes": {
            "NORMAL": 60,
            "POSITION": 59,
            "TEXCOORD_0": 61
          },
          "indices": 62,
          "material": 3,
          "mode": 4
        }
      ]
    },
    {
      "name": "Object_12",
      "primitives": [
        {
          "attributes": {
            "NORMAL": 64,
            "POSITION": 63,
            "TANGENT": 65,
            "TEXCOORD_0": 66,
            "TEXCOORD_1": 67
          },
          "indices": 68,
          "material": 2,
          "mode": 4
        }
      ]
    },
    {
      "name": "Object_13",
      "primitives": [
        {
          "attributes": {
            "NORMAL": 70,
            "POSITION": 69,
            "TEXCOORD_0": 71
          },
          "indices": 72,
          "material": 3,
          "mode": 4
        }
      ]
    },
    {
      "name": "Object_14",
      "primitives": [
        {
          "attributes": {
            "NORMAL": 74,
            "POSITION": 73,
            "TANGENT": 75,
            "TEXCOORD_0": 76,
            "TEXCOORD_1": 77
          },
          "indices": 78,
          "material": 2,
          "mode": 4
        }
      ]
    },
    {
      "name": "Object_15",
      "primitives": [
        {
          "attributes": {
            "NORMAL": 80,
            "POSITION": 79,
            "TEXCOORD_0": 81
          },
          "indices": 82,
          "material": 3,
          "mode": 4
        }
      ]
    },
    {
      "name": "Object_16",
      "primitives": [
        {
          "attributes": {
            "NORMAL": 84,
            "POSITION": 83,
            "TANGENT": 85,
            "TEXCOORD_0": 86,
            "TEXCOORD_1": 87
          },
          "indices": 88,
          "material": 2,
          "mode": 4
        }
      ]
    },
    {
      "name": "Object_17",
      "primitives": [
        {
          "attributes": {
            "NORMAL": 90,
            "POSITION": 89,
            "TANGENT": 91,
            "TEXCOORD_0": 92,
            "TEXCOORD_1": 93
          },
          "indices": 94,
          "material": 2,
          "mode": 4
        }
      ]
    },
    {
      "name": "Object_18",
      "primitives": [
        {
          "attributes": {
            "NORMAL": 96,
            "POSITION": 95,
            "TEXCOORD_0": 97
          },
          "indices": 98,
          "material": 3,
          "mode": 4
        }
      ]
    },
    {
      "name": "Object_19",
      "primitives": [
        {
          "attributes": {
            "NORMAL": 100,
            "POSITION": 99,
            "TANGENT": 101,
            "TEXCOORD_0": 102,
            "TEXCOORD_1": 103
          },
          "indices": 104,
          "material": 2,
          "mode": 4
        }
      ]
    },
    {
      "name": "Object_20",
      "primitives": [
        {
          "attributes": {
            "NORMAL": 106,
            "POSITION": 105,
            "TEXCOORD_0": 107
          },
          "indices": 108,
          "material": 3,
          "mode": 4
        }
      ]
    },
    {
      "name": "Object_21",
      "primitives": [
        {
          "attributes": {
            "NORMAL": 110,
            "POSITION": 109,
            "TANGENT": 111,
            "TEXCOORD_0": 112,
            "TEXCOORD_1": 113
          },
          "indices": 114,
          "material": 2,
          "mode": 4
        }
      ]
    },
    {
      "name": "Object_22",
      "primitives": [
        {
          "attributes": {
            "NORMAL": 116,
            "POSITION": 115,
            "TEXCOORD_0": 117
          },
          "indices": 118,
          "material": 3,
          "mode": 4
        }
      ]
    },
    {
      "name": "Object_23",
      "primitives": [
        {
          "attributes": {
            "NORMAL": 120,
            "POSITION": 119,
            "TANGENT": 121,
            "TEXCOORD_0": 122,
            "TEXCOORD_1": 123
          },
          "indices": 124,
          "material": 2,
          "mode": 4
        }
      ]
    },
    {
      "name": "Object_24",
      "primitives": [
        {
          "attributes": {
            "NORMAL": 126,
            "POSITION": 125,
            "TEXCOORD_0": 127
          },
          "indices": 128,
          "material": 3,
          "mode": 4
        }
      ]
    },
    {
      "name": "Object_25",
      "primitives": [
        {
          "attributes": {
            "NORMAL": 130,
            "POSITION": 129,
            "TANGENT": 131,
            "TEXCOORD_0": 132,
            "TEXCOORD_1": 133
          },
          "indices": 134,
          "material": 2,
          "mode": 4
        }
      ]
    },
    {
      "name": "Object_26",
      "primitives": [
        {
          "attributes": {
            "NORMAL": 136,
            "POSITION": 135,
            "TEXCOORD_0": 137
          },
          "indices": 138,
          "material": 3,
          "mode": 4
        }
      ]
    }
  ],
  "nodes": [
    {
      "children": [
        1
      ],
      "matrix": [
        1.0,
        0.0,
        0.0,
        0.0,
        0.0,
        2.220446049250313e-16,
        -1.0,
        0.0,
        0.0,
        1.0,
        2.220446049250313e-16,
        0.0,
        0.0,
        0.0,
        0.0,
        1.0
      ],
      "name": "Sketchfab_model"
    },
    {
      "children": [
        2
      ],
      "name": "root"
    },
    {
      "children": [
        3,
        5,
        7,
        10,
        13,
        16,
        19,
        22,
        25,
        28,
        30,
        33,
        36,
        39,
        42
      ],
      "matrix": [
        1.0,
        0.0,
        0.0,
        0.0,
        0.0,
        2.220446049250313e-16,
        1.0,
        0.0,
        0.0,
        -1.0,
        2.220446049250313e-16,
        0.0,
        0.0,
        0.0,
        0.0,
        1.0
      ],
      "name": "GLTF_SceneRootNode"
    },
    {
      "children": [
        4
      ],
      "matrix": [
        188.60586547851563,
        0.0,
        0.0,
        0.0,
        0.0,
        188.60586547851563,
        0.0,
        0.0,
        0.0,
        0.0,
        188.60586547851563,
        0.0,
        0.0,
        0.0,
        0.0,
        1.0
      ],
      "name": "Plane_0"
    },
    {
      "mesh": 0,
      "name": "Object_4"
    },
    {
      "children": [
        6
      ],
      "matrix": [
        188.60586547851563,
        0.0,
        0.0,
        0.0,
        0.0,
        188.60586547851563,
        0.0,
        0.0,
        0.0,
        0.0,
        188.60586547851563,
        0.0,
        6.1925764083862305,
        8.565579414367676,
        2.891826868057251,
        1.0
      ],
      "name": "Plane.002_1"
    },
    {
      "mesh": 1,
      "name": "Object_6"
    },
    {
      "children": [
        8,
        9
      ],
      "matrix": [
        -0.18420615366381965,
        -0.0,
        5.210745763555432,
        -0.0,
        0.0,
        -4.491353511810303,
        0.0,
        -0.0,
        -0.48752878193629906,
        -0.0,
        -0.017234731033896347,
        -0.0,
        -105.19252014160156,
        4.357073783874512,
        -5.279843330383301,
        1.0
      ],
      "name": "Cube.010_2"
    },
    {
      "mesh": 2,
      "name": "Object_8"
    },
    {
      "mesh": 3,
      "name": "Object_9"
    },
    {
      "children": [
        11,
        12
      ],
      "matrix": [
        -0.18420615366381965,
        -0.0,
        5.210745763555432,
        -0.0,
        0.0,
        -4.491353511810303,
        -0.0,
        -0.0,
        -0.48752878193629906,
        -0.0,
        -0.017234731033896347,
        -0.0,
        -107.07783508300781,
        4.357073783874512,
        175.1505126953125,
        1.0
      ],
      "name": "Cube.001_3"
    },
    {
      "mesh": 4,
      "name": "Object_11"
    },
    {
      "mesh": 5,
      "name": "Object_12"
    },
    {
      "children": [
        14,
        15
      ],
      "matrix": [
        -0.1842057067392911,
        0.0,
        -5.210745779354735,
        0.0,
        0.0,
        -4.491353511810303,
        0.0,
        0.0,
        -0.48752881319823416,
        0.0,
        0.017234690271546848,
        0.0,
        -107.07783508300781,
        4.357073783874512,
        139.5191650390625,
        1.0
      ],
      "name": "Cube.002_4"
    },
    {
      "mesh": 6,
      "name": "Object_14"
    },
    {
      "mesh": 7,
      "name": "Object_15"
    },
    {
      "children": [
        17,
        18
      ],
      "matrix": [
        -0.1842057067392911,
        0.0,
        -5.210745779354735,
        0.0,
        0.0,
        -4.491353511810303,
        0.0,
        0.0,
        -0.48752881319823416,
        0.0,
        0.017234690271546848,
        0.0,
        -105.19252014160156,
        4.357073783874512,
        106.36117553710938,
        1.0
      ],
      "name": "Cube.003_5"
    },
    {
      "mesh": 8,
      "name": "Object_17"
    },
    {
      "mesh": 9,
      "name": "Object_18"
    },
    {
      "children": [
        20,
        21
      ],
      "matrix": [
        -0.1842057067392911,
        0.0,
        -5.210745779354735,
        0.0,
        0.0,
        -4.491353511810303,
        0.0,
        0.0,
        -0.48752881319823416,
        0.0,
        0.017234690271546848,
        0.0,
        -107.07783508300781,
        4.357073783874512,
        100.38291931152344,
        1.0
      ],
      "name": "Cube.004_6"
    },
    {
      "mesh": 10,
      "name": "Object_20"
    },
    {
      "mesh": 11,
      "name": "Object_21"
    },
    {
      "children": [
        23,
        24
      ],
      "matrix": [
        -0.1842057067392911,
        0.0,
        -5.210745779354735,
        0.0,
        0.0,
        -4.491353511810303,
        0.0,
        0.0,
        -0.48752881319823416,
        0.0,
        0.017234690271546848,
        0.0,
        -107.07783508300781,
        4.357073783874512,
        66.03672790527344,
        1.0
      ],
      "name": "Cube.005_7"
    },
    {
      "mesh": 12,
      "name": "Object_23"
    },
    {
      "mesh": 13,
      "name": "Object_24"
    },
    {
      "children": [
        26,
        27
      ],
      "matrix": [
        -0.18420615366381965,
        -0.0,
        5.210745763555432,
        -0.0,
        0.0,
        -4.491353511810303,
        -0.0,
        -0.0,
        -0.48752878193629906,
        -0.0,
        -0.017234731033896347,
        -0.0,
        -107.07783508300781,
        4.357073783874512,
        35.77095031738281,
        1.0
      ],
      "name": "Cube.006_8"
    },
    {
      "mesh": 14,
      "name": "Object_26"
    },
    {
      "mesh": 15,
      "name": "Object_27"
    },
    {
      "children": [
        29
      ],
      "matrix": [
        203.05780029296875,
        0.0,
        0.0,
        0.0,
        0.0,
        30.679113388061523,
        0.0,
        0.0,
        0.0,
        0.0,
        203.05780029296875,
        0.0,
        12.576980590820313,
        -7.265201568603516,
        8.566040992736816,
        1.0
      ],
      "name": "Cube_9"
    },
    {
      "mesh": 16,
      "name": "Object_29"
    },
    {
      "children": [
        31,
        32
      ],
      "matrix": [
        0.1842057067392911,
        -0.0,
        -5.210745779354735,
        -0.0,
        0.0,
        -4.491353511810303,
        0.0,
        -0.0,
        0.48752878341451633,
        0.0,
        0.017234689218658967,
        -0.0,
        104.20211029052734,
        4.357073783874512,
        -180.24432373046875,
        1.0
      ],
      "name": "Cube.007_10"
    },
    {
      "mesh": 17,
      "name": "Object_31"
    },
    {
      "mesh": 18,
      "name": "Object_32"
    },
    {
      "children": [
        34,
        35
      ],
      "matrix": [
        0.18420570673929168,
        0.0,
        5.210745779354735,
        0.0,
        0.0,
        -4.491353511810303,
        0.0,
        0.0,
        0.48752881319823416,
        0.0,
        -0.017234690271546792,
        0.0,
        104.20211029052734,
        4.357073783874512,
        -144.61297607421875,
        1.0
      ],
      "name": "Cube.008_11"
    },
    {
      "mesh": 19,
      "name": "Object_34"
    },
    {
      "mesh": 20,
      "name": "Object_35"
    },
    {
      "children": [
        37,
        38
      ],
      "matrix": [
        0.18420570673929168,
        0.0,
        5.210745779354735,
        0.0,
        0.0,
        -4.491353511810303,
        0.0,
        0.0,
        0.48752881319823416,
        0.0,
        -0.017234690271546792,
        0.0,
        104.20211029052734,
        4.357073783874512,
        -105.47673034667969,
        1.0
      ],
      "name": "Cube.009_12"
    },
    {
      "mesh": 21,
      "name": "Object_37"
    },
    {
      "mesh": 22,
      "name": "Object_38"
    },
    {
      "children": [
        40,
        41
      ],
      "matrix": [
        0.18420570673929168,
        0.0,
        5.210745779354735,
        0.0,
        0.0,
        -4.491353511810303,
        0.0,
        0.0,
        0.48752881319823416,
        0.0,
        -0.017234690271546792,
        0.0,
        104.20211029052734,
        4.357073783874512,
        -71.13053894042969,
        1.0
      ],
      "name": "Cube.011_13"
    },
    {
      "mesh": 23,
      "name": "Object_40"
    },
    {
      "mesh": 24,
      "name": "Object_41"
    },
    {
      "children": [
        43,
        44
      ],
      "matrix": [
        0.1842057067392911,
        -0.0,
        -5.210745779354735,
        -0.0,
        0.0,
        -4.491353511810303,
        0.0,
        -0.0,
        0.48752878341451633,
        0.0,
        0.017234689218658967,
        -0.0,
        104.20211029052734,
        4.357073783874512,
        -40.8647575378418,
        1.0
      ],
      "name": "Cube.012_14"
    },
    {
      "mesh": 25,
      "name": "Object_43"
    },
    {
      "mesh": 26,
      "name": "Object_44"
    }
  ],
  "samplers": [
    {
      "magFilter": 9729,
      "minFilter": 9987,
      "wrapS": 10497,
      "wrapT": 10497
    }
  ],
  "scene": 0,
  "scenes": [
    {
      "name": "Sketchfab_Scene",
      "nodes": [
        0
      ]
    }
  ],
  "textures": [
    {
      "sampler": 0,
      "source": 0
    },
    {
      "sampler": 0,
      "source": 1
    },
    {
      "sampler": 0,
      "source": 2
    },
    {
      "sampler": 0,
      "source": 3
    },
    {
      "sampler": 0,
      "source": 4
    },
    {
      "sampler": 0,
      "source": 5
    },
    {
      "sampler": 0,
      "source": 6
    }
  ]
}
