{
  "accessors": [
    {
      "bufferView": 2,
      "componentType": 5126,
      "count": 24,
      "max": [
        0.21452300250530243,
        -0.9478409886360168,
        0.0087084099650383
      ],
      "min": [
        -0.2134380042552948,
        -1.0,
        -0.3472070097923279
      ],
      "type": "VEC3"
    },
    {
      "bufferView": 2,
      "byteOffset": 288,
      "componentType": 5126,
      "count": 24,
      "max": [
        0.9999832510948181,
        0.999971866607666,
        0.9999884963035583
      ],
      "min": [
        -0.9999832510948181,
        1.4907304546341038e-07,
        -0.9999884963035583
      ],
      "type": "VEC3"
    },
    {
      "bufferView": 3,
      "componentType": 5126,
      "count": 24,
      "max": [
        0.8313552737236023,
        0.9999983906745911,
        0.9999825358390808,
        1.0
      ],
      "min": [
        -0.01620958186686039,
        -0.9999984502792358,
        -7.141262813092908e-06,
        1.0
      ],
      "type": "VEC4"
    },
    {
      "bufferView": 1,
      "componentType": 5126,
      "count": 24,
      "max": [
        0.4021500051021576,
        0.4195280075073242
      ],
      "min": [
        0.04509120061993599,
        0.006054120138287544
      ],
      "type": "VEC2"
    },
    {
      "bufferView": 0,
      "componentType": 5125,
      "count": 90,
      "type": "SCALAR"
    },
    {
      "bufferView": 2,
      "byteOffset": 576,
      "componentType": 5126,
      "count": 19,
      "max": [
        0.19867399334907532,
        -0.939208984375,
        -0.31100401282310486
      ],
      "min": [
        0.1751520037651062,
        -0.9478409886360168,
        -0.33137598633766174
      ],
      "type": "VEC3"
    },
    {
      "bufferView": 2,
      "byteOffset": 804,
      "componentType": 5126,
      "count": 19,
      "max": [
        1.0,
        1.0,
        0.86602383852005
      ],
      "min": [
        -1.0,
        0.0,
        -0.8660248517990112
      ],
      "type": "VEC3"
    },
    {
      "bufferView": 3,
      "byteOffset": 384,
      "componentType": 5126,
      "count": 19,
      "max": [
        0.47289812564849854,
        0.9929310083389282,
        -0.059347134083509445,
        1.0
      ],
      "min": [
        -0.44775500893592834,
        -0.9927316308021545,
        -0.9999892115592957,
        1.0
      ],
      "type": "VEC4"
    },
    {
      "bufferView": 1,
      "byteOffset": 192,
      "componentType": 5126,
      "count": 19,
      "max": [
        0.9792299866676331,
        0.4159129858016968
      ],
      "min": [
        0.9280049800872803,
        0.3567720055580139
      ],
      "type": "VEC2"
    },
    {
      "bufferView": 0,
      "byteOffset": 360,
      "componentType": 5125,
      "count": 90,
      "type": "SCALAR"
    },
    {
      "bufferView": 2,
      "byteOffset": 1032,
      "componentType": 5126,
      "count": 19,
      "max": [
        0.19867399334907532,
        -0.939208984375,
        -0.010888599790632725
      ],
      "min": [
        0.1751520037651062,
        -0.9478409886360168,
        -0.03125999867916107
      ],
      "type": "VEC3"
    },
    {
      "bufferView": 2,
      "byteOffset": 1260,
      "componentType": 5126,
      "count": 19,
      "max": [
        1.0,
        1.0,
        0.8660241961479187
      ],
      "min": [
        -1.0,
        0.0,
        -0.8660248517990112
      ],
      "type": "VEC3"
    },
    {
      "bufferView": 3,
      "byteOffset": 688,
      "componentType": 5126,
      "count": 19,
      "max": [
        0.4728533625602722,
        0.9929322600364685,
        -0.05934155359864235,
        1.0
      ],
      "min": [
        -0.4477100074291229,
        -0.9927353262901306,
        -0.9999892115592957,
        1.0
      ],
      "type": "VEC4"
    },
    {
      "bufferView": 1,
      "byteOffset": 344,
      "componentType": 5126,
      "count": 19,
      "max": [
        0.07289359718561172,
        0.4217050075531006
      ],
      "min": [
        0.04541980102658272,
        0.38998499512672424
      ],
      "type": "VEC2"
    },
    {
      "bufferView": 0,
      "byteOffset": 720,
      "componentType": 5125,
      "count": 90,
      "type": "SCALAR"
    },
    {
      "bufferView": 2,
      "byteOffset": 1488,
      "componentType": 5126,
      "count": 19,
      "max": [
        -0.17196600139141083,
        -0.939208984375,
        -0.010888599790632725
      ],
      "min": [
        -0.19548800587654114,
        -0.9478409886360168,
        -0.03125999867916107
      ],
      "type": "VEC3"
    },
    {
      "bufferView": 2,
      "byteOffset": 1716,
      "componentType": 5126,
      "count": 19,
      "max": [
        1.0,
        1.0,
        0.8660241961479187
      ],
      "min": [
        -1.0,
        0.0,
        -0.8660248517990112
      ],
      "type": "VEC3"
    },
    {
      "bufferView": 3,
      "byteOffset": 992,
      "componentType": 5126,
      "count": 19,
      "max": [
        0.47287940979003906,
        0.9929288029670715,
        -0.05935605242848396,
        1.0
      ],
      "min": [
        -0.4477624297142029,
        -0.9927383661270142,
        -0.9999891519546509,
        1.0
      ],
      "type": "VEC4"
    },
    {
      "bufferView": 1,
      "byteOffset": 496,
      "componentType": 5126,
      "count": 19,
      "max": [
        0.39930999279022217,
        0.03880000114440918
      ],
      "min": [
        0.37183600664138794,
        0.007079000119119883
      ],
      "type": "VEC2"
    },
    {
      "bufferView": 0,
      "byteOffset": 1080,
      "componentType": 5125,
      "count": 90,
      "type": "SCALAR"
    },
    {
      "bufferView": 2,
      "byteOffset": 1944,
      "componentType": 5126,
      "count": 19,
      "max": [
        -0.17196600139141083,
        -0.939208984375,
        -0.31100401282310486
      ],
      "min": [
        -0.19548800587654114,
        -0.9478409886360168,
        -0.33137598633766174
      ],
      "type": "VEC3"
    },
    {
      "bufferView": 2,
      "byteOffset": 2172,
      "componentType": 5126,
      "count": 19,
      "max": [
        1.0,
        1.0,
        0.86602383852005
      ],
      "min": [
        -1.0,
        0.0,
        -0.8660248517990112
      ],
      "type": "VEC3"
    },
    {
      "bufferView": 3,
      "byteOffset": 1296,
      "componentType": 5126,
      "count": 19,
      "max": [
        0.47286394238471985,
        0.9929315447807312,
        -0.059344515204429626,
        1.0
      ],
      "min": [
        -0.44776201248168945,
        -0.9927332401275635,
        -0.9999892711639404,
        1.0
      ],
      "type": "VEC4"
    },
    {
      "bufferView": 1,
      "byteOffset": 648,
      "componentType": 5126,
      "count": 19,
      "max": [
        0.0810680016875267,
        0.03852109983563423
      ],
      "min": [
        0.05358630046248436,
        0.006791760213673115
      ],
      "type": "VEC2"
    },
    {
      "bufferView": 0,
      "byteOffset": 1440,
      "componentType": 5125,
      "count": 90,
      "type": "SCALAR"
    },
    {
      "bufferView": 2,
      "byteOffset": 2400,
      "componentType": 5126,
      "count": 209,
      "max": [
        0.056416600942611694,
        -0.113646000623703,
        -0.01247090008109808
      ],
      "min": [
        -0.07059690356254578,
        -0.11992800235748291,
        -0.1168380007147789
      ],
      "type": "VEC3"
    },
    {
      "bufferView": 2,
      "byteOffset": 4908,
      "componentType": 5126,
      "count": 209,
      "max": [
        1.0,
        0.0,
        0.9999958872795105
      ],
      "min": [
        -1.0,
        -1.0,
        -1.0
      ],
      "type": "VEC3"
    },
    {
      "bufferView": 3,
      "byteOffset": 1600,
      "componentType": 5126,
      "count": 209,
      "max": [
        0.9936500191688538,
        1.0,
        1.0,
        1.0
      ],
      "min": [
        -0.9957704544067383,
        -0.9999998807907104,
        -0.9944707751274109,
        1.0
      ],
      "type": "VEC4"
    },
    {
      "bufferView": 1,
      "byteOffset": 800,
      "componentType": 5126,
      "count": 209,
      "max": [
        0.9885050058364868,
        0.9980360269546509
      ],
      "min": [
        0.14435499906539917,
        0.32751500606536865
      ],
      "type": "VEC2"
    },
    {
      "bufferView": 0,
      "byteOffset": 1800,
      "componentType": 5125,
      "count": 1011,
      "type": "SCALAR"
    },
    {
      "bufferView": 2,
      "byteOffset": 7416,
      "componentType": 5126,
      "count": 116,
      "max": [
        0.12752600014209747,
        -0.10345800220966339,
        0.010242899879813194
      ],
      "min": [
        -0.12752600014209747,
        -0.11365500092506409,
        -0.3039900064468384
      ],
      "type": "VEC3"
    },
    {
      "bufferView": 2,
      "byteOffset": 8808,
      "componentType": 5126,
      "count": 116,
      "max": [
        0.9999980926513672,
        0.0,
        0.9999969005584717
      ],
      "min": [
        -0.9999980926513672,
        -1.0,
        -0.9999969005584717
      ],
      "type": "VEC3"
    },
    {
      "bufferView": 3,
      "byteOffset": 4944,
      "componentType": 5126,
      "count": 116,
      "max": [
        -5.772039003204554e-06,
        0.9999958276748657,
        0.46673378348350525,
        1.0
      ],
      "min": [
        -0.9999236464500427,
        -0.9990023374557495,
        -0.46485504508018494,
        1.0
      ],
      "type": "VEC4"
    },
    {
      "bufferView": 1,
      "byteOffset": 2472,
      "componentType": 5126,
      "count": 116,
      "max": [
        0.9046229720115662,
        0.5820900201797485
      ],
      "min": [
        0.6700699925422668,
        0.2969389855861664
      ],
      "type": "VEC2"
    },
    {
      "bufferView": 0,
      "byteOffset": 5844,
      "componentType": 5125,
      "count": 606,
      "type": "SCALAR"
    },
    {
      "bufferView": 2,
      "byteOffset": 10200,
      "componentType": 5126,
      "count": 164,
      "max": [
        0.0026850600261241198,
        -0.11849500238895416,
        -0.08553169667720795
      ],
      "min": [
        -0.01539519988000393,
        -0.1472250074148178,
        -0.10335999727249146
      ],
      "type": "VEC3"
    },
    {
      "bufferView": 2,
      "byteOffset": 12168,
      "componentType": 5126,
      "count": 164,
      "max": [
        1.0,
        7.388639642158523e-05,
        1.0
      ],
      "min": [
        -1.0,
        -1.0,
        -1.0
      ],
      "type": "VEC3"
    },
    {
      "bufferView": 3,
      "byteOffset": 6800,
      "componentType": 5126,
      "count": 164,
      "max": [
        0.9846178293228149,
        1.0,
        0.9841958284378052,
        1.0
      ],
      "min": [
        -0.9848365187644958,
        -0.999390721321106,
        -0.9884694218635559,
        1.0
      ],
      "type": "VEC4"
    },
    {
      "bufferView": 1,
      "byteOffset": 3400,
      "componentType": 5126,
      "count": 164,
      "max": [
        0.9635289907455444,
        0.6567130088806152
      ],
      "min": [
        0.9170479774475098,
        0.4273189902305603
      ],
      "type": "VEC2"
    },
    {
      "bufferView": 0,
      "byteOffset": 8268,
      "componentType": 5125,
      "count": 660,
      "type": "SCALAR"
    },
    {
      "bufferView": 2,
      "byteOffset": 14136,
      "componentType": 5126,
      "count": 204,
      "max": [
        -0.07666350156068802,
        -0.15584999322891235,
        0.16027499735355377
      ],
      "min": [
        -0.15901699662208557,
        -0.16811099648475647,
        0.11309400200843811
      ],
      "type": "VEC3"
    },
    {
      "bufferView": 2,
      "byteOffset": 16584,
      "componentType": 5126,
      "count": 204,
      "max": [
        0.9525642395019531,
        0.9913352131843567,
        0.9686725735664368
      ],
      "min": [
        -0.9529498815536499,
        -0.9913382530212402,
        -0.9683879017829895
      ],
      "type": "VEC3"
    },
    {
      "bufferView": 3,
      "byteOffset": 9424,
      "componentType": 5126,
      "count": 204,
      "max": [
        0.9969391822814941,
        0.9913349747657776,
        0.8957977294921875,
        1.0
      ],
      "min": [
        -0.9819836616516113,
        -0.9997235536575317,
        -0.8958807587623596,
        1.0
      ],
      "type": "VEC4"
    },
    {
      "bufferView": 1,
      "byteOffset": 4712,
      "componentType": 5126,
      "count": 204,
      "max": [
        0.9929580092430115,
        0.829675018787384
      ],
      "min": [
        0.9143790006637573,
        0.4129030108451843
      ],
      "type": "VEC2"
    },
    {
      "bufferView": 0,
      "byteOffset": 10908,
      "componentType": 5125,
      "count": 960,
      "type": "SCALAR"
    },
    {
      "bufferView": 2,
      "byteOffset": 19032,
      "componentType": 5126,
      "count": 323,
      "max": [
        -0.07065670192241669,
        -0.14871199429035187,
        0.16552500426769257
      ],
      "min": [
        -0.15952999889850616,
        -0.20402300357818604,
        0.09623280167579651
      ],
      "type": "VEC3"
    },
    {
      "bufferView": 2,
      "byteOffset": 22908,
      "componentType": 5126,
      "count": 323,
      "max": [
        0.9704176187515259,
        0.993549108505249,
        0.9707698822021484
      ],
      "min": [
        -0.9991388916969299,
        -0.982649028301239,
        -0.9836488962173462
      ],
      "type": "VEC3"
    },
    {
      "bufferView": 3,
      "byteOffset": 12688,
      "componentType": 5126,
      "count": 323,
      "max": [
        0.9540454745292664,
        0.9902851581573486,
        0.9985929727554321,
        1.0
      ],
      "min": [
        -0.9538698196411133,
        -0.9977998733520508,
        -0.9974987506866455,
        1.0
      ],
      "type": "VEC4"
    },
    {
      "bufferView": 1,
      "byteOffset": 6344,
      "componentType": 5126,
      "count": 323,
      "max": [
        0.9959710240364075,
        0.7864279747009277
      ],
      "min": [
        0.04461809992790222,
        0.00898095965385437
      ],
      "type": "VEC2"
    },
    {
      "bufferView": 0,
      "byteOffset": 14748,
      "componentType": 5125,
      "count": 1512,
      "type": "SCALAR"
    },
    {
      "bufferView": 2,
      "byteOffset": 26784,
      "componentType": 5126,
      "count": 312,
      "max": [
        0.029749799519777298,
        -0.13730600476264954,
        0.17293499410152435
      ],
      "min": [
        -0.16004200279712677,
        -0.1802310049533844,
        -0.12131600081920624
      ],
      "type": "VEC3"
    },
    {
      "bufferView": 2,
      "byteOffset": 30528,
      "componentType": 5126,
      "count": 312,
      "max": [
        0.9846486449241638,
        0.9997684955596924,
        0.9753371477127075
      ],
      "min": [
        -0.9842356443405151,
        -0.9999462366104126,
        -0.9823647737503052
      ],
      "type": "VEC3"
    },
    {
      "bufferView": 3,
      "byteOffset": 17856,
      "componentType": 5126,
      "count": 312,
      "max": [
        0.9358328580856323,
        0.9998224973678589,
        0.5070011019706726,
        1.0
      ],
      "min": [
        -0.9998441338539124,
        -0.9998748898506165,
        -0.8417231440544128,
        1.0
      ],
      "type": "VEC4"
    },
    {
      "bufferView": 1,
      "byteOffset": 8928,
      "componentType": 5126,
      "count": 312,
      "max": [
        0.6401169896125793,
        0.9877480268478394
      ],
      "min": [
        0.3985469937324524,
        0.7344390153884888
      ],
      "type": "VEC2"
    },
    {
      "bufferView": 0,
      "byteOffset": 20796,
      "componentType": 5125,
      "count": 1620,
      "type": "SCALAR"
    },
    {
      "bufferView": 2,
      "byteOffset": 34272,
      "componentType": 5126,
      "count": 260,
      "max": [
        -0.03263790160417557,
        -0.18455499410629272,
        0.33552101254463196
      ],
      "min": [
        -0.25161999464035034,
        -0.2333880066871643,
        0.0275276992470026
      ],
      "type": "VEC3"
    },
    {
      "bufferView": 2,
      "byteOffset": 37392,
      "componentType": 5126,
      "count": 260,
      "max": [
        0.9050561189651489,
        0.9914632439613342,
        0.9984035491943359
      ],
      "min": [
        -0.9050636887550354,
        -0.8021536469459534,
        -0.9977544546127319
      ],
      "type": "VEC3"
    },
    {
      "bufferView": 3,
      "byteOffset": 22848,
      "componentType": 5126,
      "count": 260,
      "max": [
        0.9983811974525452,
        0.9975876212120056,
        0.9126295447349548,
        1.0
      ],
      "min": [
        -0.9977157115936279,
        -0.9997773766517639,
        -0.9255408644676208,
        1.0
      ],
      "type": "VEC4"
    },
    {
      "bufferView": 1,
      "byteOffset": 11424,
      "componentType": 5126,
      "count": 260,
      "max": [
        0.998324990272522,
        0.863120973110199
      ],
      "min": [
        0.046393800526857376,
        0.20349200069904327
      ],
      "type": "VEC2"
    },
    {
      "bufferView": 0,
      "byteOffset": 27276,
      "componentType": 5125,
      "count": 1008,
      "type": "SCALAR"
    },
    {
      "bufferView": 2,
      "byteOffset": 40512,
      "componentType": 5126,
      "count": 282,
      "max": [
        -0.01579280011355877,
        -0.19450800120830536,
        0.33680498600006104
      ],
      "min": [
        -0.1940319985151291,
        -0.5397670269012451,
        0.02012999914586544
      ],
      "type": "VEC3"
    },
    {
      "bufferView": 2,
      "byteOffset": 43896,
      "componentType": 5126,
      "count": 282,
      "max": [
        0.9974523782730103,
        0.9998220205307007,
        0.9918116331100464
      ],
      "min": [
        -0.994915246963501,
        -0.999957263469696,
        -0.9901797771453857
      ],
      "type": "VEC3"
    },
    {
      "bufferView": 3,
      "byteOffset": 27008,
      "componentType": 5126,
      "count": 282,
      "max": [
        0.9935328960418701,
        0.9963493347167969,
        0.9934183955192566,
        1.0
      ],
      "min": [
        -0.9977505803108215,
        -0.7102506160736084,
        -0.9590889811515808,
        1.0
      ],
      "type": "VEC4"
    },
    {
      "bufferView": 1,
      "byteOffset": 13504,
      "componentType": 5126,
      "count": 282,
      "max": [
        0.9346550107002258,
        0.9993849992752075
      ],
      "min": [
        0.06994500011205673,
        0.0
      ],
      "type": "VEC2"
    },
    {
      "bufferView": 0,
      "byteOffset": 31308,
      "componentType": 5125,
      "count": 1116,
      "type": "SCALAR"
    },
    {
      "bufferView": 2,
      "byteOffset": 47280,
      "componentType": 5126,
      "count": 404,
      "max": [
        -0.026546500623226166,
        -0.18947799503803253,
        0.3472079932689667
      ],
      "min": [
        -0.2521669864654541,
        -0.2710939943790436,
        0.016979200765490532
      ],
      "type": "VEC3"
    },
    {
      "bufferView": 2,
      "byteOffset": 52128,
      "componentType": 5126,
      "count": 404,
      "max": [
        0.9645918607711792,
        0.9915057420730591,
        0.9406087398529053
      ],
      "min": [
        -0.9745272397994995,
        -0.9998391270637512,
        -0.9387353658676147
      ],
      "type": "VEC3"
    },
    {
      "bufferView": 3,
      "byteOffset": 31520,
      "componentType": 5126,
      "count": 404,
      "max": [
        0.9965412616729736,
        0.9952844977378845,
        0.9397406578063965,
        1.0
      ],
      "min": [
        -0.9447833299636841,
        -0.9449493288993835,
        -0.9686939716339111,
        -1.0
      ],
      "type": "VEC4"
    },
    {
      "bufferView": 1,
      "byteOffset": 15760,
      "componentType": 5126,
      "count": 404,
      "max": [
        0.998652994632721,
        0.9993249773979187
      ],
      "min": [
        0.6650390028953552,
        0.5805060267448425
      ],
      "type": "VEC2"
    },
    {
      "bufferView": 0,
      "byteOffset": 35772,
      "componentType": 5125,
      "count": 1812,
      "type": "SCALAR"
    },
    {
      "bufferView": 2,
      "byteOffset": 56976,
      "componentType": 5126,
      "count": 1064,
      "max": [
        0.010592799633741379,
        0.3857879936695099,
        0.027727000415325165
      ],
      "min": [
        -0.15342199802398682,
        -0.07100509852170944,
        -0.08339639753103256
      ],
      "type": "VEC3"
    },
    {
      "bufferView": 2,
      "byteOffset": 69744,
      "componentType": 5126,
      "count": 1064,
      "max": [
        0.9953939914703369,
        0.991306483745575,
        0.9996933341026306
      ],
      "min": [
        -0.9985398650169373,
        -0.9914901256561279,
        -0.980048656463623
      ],
      "type": "VEC3"
    },
    {
      "bufferView": 3,
      "byteOffset": 37984,
      "componentType": 5126,
      "count": 1064,
      "max": [
        0.9987021684646606,
        0.9843057990074158,
        0.9957326054573059,
        1.0
      ],
      "min": [
        -0.9996821284294128,
        -0.9996289014816284,
        -0.9911754727363586,
        1.0
      ],
      "type": "VEC4"
    },
    {
      "bufferView": 1,
      "byteOffset": 18992,
      "componentType": 5126,
      "count": 1064,
      "max": [
        0.040218401700258255,
        0.9956859946250916
      ],
      "min": [
        0.0026397700421512127,
        0.0043143900111317635
      ],
      "type": "VEC2"
    },
    {
      "bufferView": 0,
      "byteOffset": 43020,
      "componentType": 5125,
      "count": 5850,
      "type": "SCALAR"
    },
    {
      "bufferView": 2,
      "byteOffset": 82512,
      "componentType": 5126,
      "count": 282,
      "max": [
        -0.04694470018148422,
        -0.19350099563598633,
        0.32675400376319885
      ],
      "min": [
        -0.25110599398612976,
        -0.5405840277671814,
        -0.011904600076377392
      ],
      "type": "VEC3"
    },
    {
      "bufferView": 2,
      "byteOffset": 85896,
      "componentType": 5126,
      "count": 282,
      "max": [
        0.994915246963501,
        0.9999774694442749,
        0.9901831150054932
      ],
      "min": [
        -0.9974522590637207,
        -0.9999319911003113,
        -0.9918122291564941
      ],
      "type": "VEC3"
    },
    {
      "bufferView": 3,
      "byteOffset": 55008,
      "componentType": 5126,
      "count": 282,
      "max": [
        0.9956871271133423,
        0.995090126991272,
        0.9821651577949524,
        1.0
      ],
      "min": [
        -0.9931632876396179,
        -0.7084320187568665,
        -0.9811957478523254,
        1.0
      ],
      "type": "VEC4"
    },
    {
      "bufferView": 1,
      "byteOffset": 27504,
      "componentType": 5126,
      "count": 282,
      "max": [
        0.995468020439148,
        0.9948599934577942
      ],
      "min": [
        0.3929370045661926,
        5.551119755337213e-17
      ],
      "type": "VEC2"
    },
    {
      "bufferView": 0,
      "byteOffset": 66420,
      "componentType": 5125,
      "count": 1116,
      "type": "SCALAR"
    },
    {
      "bufferView": 2,
      "byteOffset": 89280,
      "componentType": 5126,
      "count": 342,
      "max": [
        -0.17962999641895294,
        0.10827600210905075,
        -0.08254849910736084
      ],
      "min": [
        -0.2360920011997223,
        0.0023651299998164177,
        -0.13901099562644958
      ],
      "type": "VEC3"
    },
    {
      "bufferView": 2,
      "byteOffset": 93384,
      "componentType": 5126,
      "count": 342,
      "max": [
        1.0,
        1.0,
        1.0
      ],
      "min": [
        -1.0,
        -0.651764988899231,
        -1.0
      ],
      "type": "VEC3"
    },
    {
      "bufferView": 3,
      "byteOffset": 59520,
      "componentType": 5126,
      "count": 342,
      "max": [
        0.994175136089325,
        0.9987266659736633,
        0.7530571222305298,
        1.0
      ],
      "min": [
        -0.7524208426475525,
        -0.9999998807907104,
        -0.7469107508659363,
        1.0
      ],
      "type": "VEC4"
    },
    {
      "bufferView": 1,
      "byteOffset": 29760,
      "componentType": 5126,
      "count": 342,
      "max": [
        0.9945859909057617,
        0.9967319965362549
      ],
      "min": [
        0.041559599339962006,
        0.4892129898071289
      ],
      "type": "VEC2"
    },
    {
      "bufferView": 0,
      "byteOffset": 70884,
      "componentType": 5125,
      "count": 1500,
      "type": "SCALAR"
    },
    {
      "bufferView": 2,
      "byteOffset": 97488,
      "componentType": 5126,
      "count": 396,
      "max": [
        0.03196749836206436,
        0.5344589948654175,
        -0.05192619934678078
      ],
      "min": [
        -0.030115999281406403,
        0.44517800211906433,
        -0.06633280217647552
      ],
      "type": "VEC3"
    },
    {
      "bufferView": 2,
      "byteOffset": 102240,
      "componentType": 5126,
      "count": 396,
      "max": [
        0.9913073778152466,
        0.9992709755897522,
        0.9841246008872986
      ],
      "min": [
        -0.9943816065788269,
        -0.9538201093673706,
        -0.08347225189208984
      ],
      "type": "VEC3"
    },
    {
      "bufferView": 3,
      "byteOffset": 64992,
      "componentType": 5126,
      "count": 396,
      "max": [
        0.9999998807907104,
        0.4967052638530731,
        0.9881470203399658,
        1.0
      ],
      "min": [
        0.0801728144288063,
        -0.48654481768608093,
        -0.9850334525108337,
        1.0
      ],
      "type": "VEC4"
    },
    {
      "bufferView": 1,
      "byteOffset": 32496,
      "componentType": 5126,
      "count": 396,
      "max": [
        0.23458999395370483,
        0.9006990194320679
      ],
      "min": [
        0.13503199815750122,
        0.7690219879150391
      ],
      "type": "VEC2"
    },
    {
      "bufferView": 0,
      "byteOffset": 76884,
      "componentType": 5125,
      "count": 1872,
      "type": "SCALAR"
    },
    {
      "bufferView": 2,
      "byteOffset": 106992,
      "componentType": 5126,
      "count": 1345,
      "max": [
        0.04439140111207962,
        0.6447380185127258,
        0.026986299082636833
      ],
      "min": [
        -0.03746980056166649,
        0.3405190110206604,
        -0.07171829789876938
      ],
      "type": "VEC3"
    },
    {
      "bufferView": 2,
      "byteOffset": 123132,
      "componentType": 5126,
      "count": 1345,
      "max": [
        0.9999997615814209,
        0.9999648928642273,
        0.9994715452194214
      ],
      "min": [
        -0.9999997615814209,
        -0.999851644039154,
        -0.9999962449073792
      ],
      "type": "VEC3"
    },
    {
      "bufferView": 3,
      "byteOffset": 71328,
      "componentType": 5126,
      "count": 1345,
      "max": [
        1.0,
        0.9982789158821106,
        0.9996849298477173,
        1.0
      ],
      "min": [
        -1.0,
        -0.9999091029167175,
        -0.9999076724052429,
        1.0
      ],
      "type": "VEC4"
    },
    {
      "bufferView": 1,
      "byteOffset": 35664,
      "componentType": 5126,
      "count": 1345,
      "max": [
        0.9995399713516235,
        0.9984650015830994
      ],
      "min": [
        0.0011102600255981088,
        0.0019819699227809906
      ],
      "type": "VEC2"
    },
    {
      "bufferView": 0,
      "byteOffset": 84372,
      "componentType": 5125,
      "count": 6204,
      "type": "SCALAR"
    },
    {
      "bufferView": 2,
      "byteOffset": 139272,
      "componentType": 5126,
      "count": 328,
      "max": [
        0.17856399714946747,
        0.8896250128746033,
        -0.07413370162248611
      ],
      "min": [
        -0.17601700127124786,
        0.002881469903513789,
        -0.14587800204753876
      ],
      "type": "VEC3"
    },
    {
      "bufferView": 2,
      "byteOffset": 143208,
      "componentType": 5126,
      "count": 328,
      "max": [
        1.0,
        0.999993622303009,
        1.0
      ],
      "min": [
        -1.0,
        -0.999993622303009,
        -0.05236970633268356
      ],
      "type": "VEC3"
    },
    {
      "bufferView": 3,
      "byteOffset": 92848,
      "componentType": 5126,
      "count": 328,
      "max": [
        1.0,
        0.9992452263832092,
        0.9999995827674866,
        1.0
      ],
      "min": [
        -0.7296878695487976,
        -0.9999223947525024,
        -0.9999995827674866,
        1.0
      ],
      "type": "VEC4"
    },
    {
      "bufferView": 1,
      "byteOffset": 46424,
      "componentType": 5126,
      "count": 328,
      "max": [
        0.9954569935798645,
        0.6272720098495483
      ],
      "min": [
        0.5005789995193481,
        0.013817399740219116
      ],
      "type": "VEC2"
    },
    {
      "bufferView": 0,
      "byteOffset": 109188,
      "componentType": 5125,
      "count": 1422,
      "type": "SCALAR"
    },
    {
      "bufferView": 2,
      "byteOffset": 147144,
      "componentType": 5126,
      "count": 68,
      "max": [
        0.24153199791908264,
        0.9873819947242737,
        -0.14587800204753876
      ],
      "min": [
        -0.24298900365829468,
        -0.09415540099143982,
        -0.2986850142478943
      ],
      "type": "VEC3"
    },
    {
      "bufferView": 2,
      "byteOffset": 147960,
      "componentType": 5126,
      "count": 68,
      "max": [
        0.0,
        0.0,
        1.0
      ],
      "min": [
        0.0,
        0.0,
        -1.0
      ],
      "type": "VEC3"
    },
    {
      "bufferView": 3,
      "byteOffset": 98096,
      "componentType": 5126,
      "count": 68,
      "max": [
        1.0,
        0.0,
        0.0,
        1.0
      ],
      "min": [
        1.0,
        0.0,
        0.0,
        -1.0
      ],
      "type": "VEC4"
    },
    {
      "bufferView": 1,
      "byteOffset": 49048,
      "componentType": 5126,
      "count": 68,
      "max": [
        0.7271509766578674,
        0.9994999766349792
      ],
      "min": [
        0.0,
        0.0
      ],
      "type": "VEC2"
    },
    {
      "bufferView": 0,
      "byteOffset": 114876,
      "componentType": 5125,
      "count": 180,
      "type": "SCALAR"
    },
    {
      "bufferView": 2,
      "byteOffset": 148776,
      "componentType": 5126,
      "count": 34,
      "max": [
        0.11789199709892273,
        -0.10694299638271332,
        -0.1266860067844391
      ],
      "min": [
        -0.11789199709892273,
        -0.9890599846839905,
        -0.27689000964164734
      ],
      "type": "VEC3"
    },
    {
      "bufferView": 2,
      "byteOffset": 149184,
      "componentType": 5126,
      "count": 34,
      "max": [
        0.9999637603759766,
        0.0,
        0.9999862313270569
      ],
      "min": [
        -0.9999637603759766,
        0.0,
        -0.9999862313270569
      ],
      "type": "VEC3"
    },
    {
      "bufferView": 3,
      "byteOffset": 99184,
      "componentType": 5126,
      "count": 34,
      "max": [
        0.9999862909317017,
        1.7305376030706256e-25,
        0.9999637603759766,
        1.0
      ],
      "min": [
        -0.9999862313270569,
        0.0,
        -0.9999637007713318,
        1.0
      ],
      "type": "VEC4"
    },
    {
      "bufferView": 1,
      "byteOffset": 49592,
      "componentType": 5126,
      "count": 34,
      "max": [
        0.321927011013031,
        0.5660849809646606
      ],
      "min": [
        0.0032615400850772858,
        0.1969909965991974
      ],
      "type": "VEC2"
    },
    {
      "bufferView": 0,
      "byteOffset": 115596,
      "componentType": 5125,
      "count": 96,
      "type": "SCALAR"
    },
    {
      "bufferView": 2,
      "byteOffset": 149592,
      "componentType": 5126,
      "count": 516,
      "max": [
        0.06054279953241348,
        0.6126009821891785,
        0.025962000712752342
      ],
      "min": [
        -0.05465250089764595,
        0.5445410013198853,
        -0.06639380007982254
      ],
      "type": "VEC3"
    },
    {
      "bufferView": 2,
      "byteOffset": 155784,
      "componentType": 5126,
      "count": 516,
      "max": [
        0.999980628490448,
        0.9999682307243347,
        0.9999963641166687
      ],
      "min": [
        -0.999980628490448,
        -0.9999323487281799,
        -0.2134879231452942
      ],
      "type": "VEC3"
    },
    {
      "bufferView": 3,
      "byteOffset": 99728,
      "componentType": 5126,
      "count": 516,
      "max": [
        0.9749820232391357,
        0.9999867677688599,
        0.9999285936355591,
        1.0
      ],
      "min": [
        -0.9807333946228027,
        -0.7013604044914246,
        -0.999366819858551,
        1.0
      ],
      "type": "VEC4"
    },
    {
      "bufferView": 1,
      "byteOffset": 49864,
      "componentType": 5126,
      "count": 516,
      "max": [
        0.2989700138568878,
        0.9942950010299683
      ],
      "min": [
        0.15658700466156006,
        0.7166190147399902
      ],
      "type": "VEC2"
    },
    {
      "bufferView": 0,
      "byteOffset": 115980,
      "componentType": 5125,
      "count": 2376,
      "type": "SCALAR"
    },
    {
      "bufferView": 2,
      "byteOffset": 161976,
      "componentType": 5126,
      "count": 40,
      "max": [
        0.24285000562667847,
        0.002881469903513789,
        -0.03908180072903633
      ],
      "min": [
        -0.24085499346256256,
        -0.09415540099143982,
        -0.14587800204753876
      ],
      "type": "VEC3"
    },
    {
      "bufferView": 2,
      "byteOffset": 162456,
      "componentType": 5126,
      "count": 40,
      "max": [
        1.2702406820608303e-05,
        1.0,
        1.0
      ],
      "min": [
        -3.2238210678769974e-07,
        0.0,
        0.0
      ],
      "type": "VEC3"
    },
    {
      "bufferView": 3,
      "byteOffset": 107984,
      "componentType": 5126,
      "count": 40,
      "max": [
        -0.9999998807907104,
        0.0,
        0.00042737016337923706,
        1.0
      ],
      "min": [
        -1.0,
        -0.00043499385355971754,
        -2.8000700424968272e-08,
        1.0
      ],
      "type": "VEC4"
    },
    {
      "bufferView": 1,
      "byteOffset": 53992,
      "componentType": 5126,
      "count": 40,
      "max": [
        0.9981809854507446,
        0.09341970086097717
      ],
      "min": [
        0.793658971786499,
        0.012447699904441833
      ],
      "type": "VEC2"
    },
    {
      "bufferView": 0,
      "byteOffset": 125484,
      "componentType": 5125,
      "count": 156,
      "type": "SCALAR"
    },
    {
      "bufferView": 2,
      "byteOffset": 162936,
      "componentType": 5126,
      "count": 64,
      "max": [
        0.05032540112733841,
        0.2345529943704605,
        -0.074058897793293
      ],
      "min": [
        -0.1068279966711998,
        0.036646101623773575,
        -0.08765509724617004
      ],
      "type": "VEC3"
    },
    {
      "bufferView": 2,
      "byteOffset": 163704,
      "componentType": 5126,
      "count": 64,
      "max": [
        0.999971866607666,
        0.9999534487724304,
        0.9999228715896606
      ],
      "min": [
        -0.999971866607666,
        -0.9999534487724304,
        0.0
      ],
      "type": "VEC3"
    },
    {
      "bufferView": 3,
      "byteOffset": 108624,
      "componentType": 5126,
      "count": 64,
      "max": [
        0.4209374487400055,
        -0.00032761841430328786,
        0.9994240403175354,
        1.0
      ],
      "min": [
        -0.38271164894104004,
        -0.9999703168869019,
        -0.9994173049926758,
        1.0
      ],
      "type": "VEC4"
    },
    {
      "bufferView": 1,
      "byteOffset": 54312,
      "componentType": 5126,
      "count": 64,
      "max": [
        0.5042790174484253,
        0.19474300742149353
      ],
      "min": [
        0.265855997800827,
        0.0013416999718174338
      ],
      "type": "VEC2"
    },
    {
      "bufferView": 0,
      "byteOffset": 126108,
      "componentType": 5125,
      "count": 330,
      "type": "SCALAR"
    },
    {
      "bufferView": 2,
      "byteOffset": 164472,
      "componentType": 5126,
      "count": 48,
      "max": [
        0.01647450029850006,
        0.565201997756958,
        -0.01416029967367649
      ],
      "min": [
        -0.010910900309681892,
        0.5566139817237854,
        -0.04479900002479553
      ],
      "type": "VEC3"
    },
    {
      "bufferView": 2,
      "byteOffset": 165048,
      "componentType": 5126,
      "count": 48,
      "max": [
        0.9930237531661987,
        0.9841607809066772,
        0.998605489730835
      ],
      "min": [
        -0.9931498765945435,
        -0.9940487742424011,
        -0.11145596951246262
      ],
      "type": "VEC3"
    },
    {
      "bufferView": 3,
      "byteOffset": 109648,
      "componentType": 5126,
      "count": 48,
      "max": [
        0.9999619722366333,
        0.9733809232711792,
        0.6751371026039124,
        1.0
      ],
      "min": [
        -0.9999504685401917,
        -0.972991943359375,
        -0.6944591403007507,
        1.0
      ],
      "type": "VEC4"
    },
    {
      "bufferView": 1,
      "byteOffset": 54824,
      "componentType": 5126,
      "count": 48,
      "max": [
        0.2604219913482666,
        0.1951729953289032
      ],
      "min": [
        0.15356899797916412,
        0.14132699370384216
      ],
      "type": "VEC2"
    },
    {
      "bufferView": 0,
      "byteOffset": 127428,
      "componentType": 5125,
      "count": 198,
      "type": "SCALAR"
    },
    {
      "bufferView": 2,
      "byteOffset": 165624,
      "componentType": 5126,
      "count": 48,
      "max": [
        -0.04136170074343681,
        0.7524639964103699,
        -0.06096630170941353
      ],
      "min": [
        -0.11191599816083908,
        0.6977409720420837,
        -0.06580880284309387
      ],
      "type": "VEC3"
    },
    {
      "bufferView": 2,
      "byteOffset": 166200,
      "componentType": 5126,
      "count": 48,
      "max": [
        0.9900171160697937,
        0.990676999092102,
        0.9999052286148071
      ],
      "min": [
        -0.9900169968605042,
        -0.9906702637672424,
        0.1359100043773651
      ],
      "type": "VEC3"
    },
    {
      "bufferView": 3,
      "byteOffset": 110416,
      "componentType": 5126,
      "count": 48,
      "max": [
        0.6960636377334595,
        0.9999496340751648,
        0.9885824918746948,
        1.0
      ],
      "min": [
        -0.6960692405700684,
        0.13079878687858582,
        -0.9885841012001038,
        1.0
      ],
      "type": "VEC4"
    },
    {
      "bufferView": 1,
      "byteOffset": 55208,
      "componentType": 5126,
      "count": 48,
      "max": [
        0.6364669799804688,
        0.2990039885044098
      ],
      "min": [
        0.5667210221290588,
        0.2117539942264557
      ],
      "type": "VEC2"
    },
    {
      "bufferView": 0,
      "byteOffset": 128220,
      "componentType": 5125,
      "count": 198,
      "type": "SCALAR"
    },
    {
      "bufferView": 2,
      "byteOffset": 166776,
      "componentType": 5126,
      "count": 286,
      "max": [
        0.10312700271606445,
        0.7442389726638794,
        -0.05144229903817177
      ],
      "min": [
        0.04296150058507919,
        0.7155359983444214,
        -0.06569089740514755
      ],
      "type": "VEC3"
    },
    {
      "bufferView": 2,
      "byteOffset": 170208,
      "componentType": 5126,
      "count": 286,
      "max": [
        0.9999958872795105,
        0.9916611313819885,
        0.9999958872795105
      ],
      "min": [
        -0.9807488918304443,
        -0.9802970290184021,
        -0.9131709933280945
      ],
      "type": "VEC3"
    },
    {
      "bufferView": 3,
      "byteOffset": 111184,
      "componentType": 5126,
      "count": 286,
      "max": [
        0.6318693161010742,
        0.9999449849128723,
        0.9916627407073975,
        1.0
      ],
      "min": [
        -0.6119712591171265,
        -0.9999905228614807,
        -0.983330249786377,
        1.0
      ],
      "type": "VEC4"
    },
    {
      "bufferView": 1,
      "byteOffset": 55592,
      "componentType": 5126,
      "count": 286,
      "max": [
        0.2067590057849884,
        0.7702950239181519
      ],
      "min": [
        0.1382099986076355,
        0.6689299941062927
      ],
      "type": "VEC2"
    },
    {
      "bufferView": 0,
      "byteOffset": 129012,
      "componentType": 5125,
      "count": 1242,
      "type": "SCALAR"
    },
    {
      "bufferView": 2,
      "byteOffset": 173640,
      "componentType": 5126,
      "count": 237,
      "max": [
        0.12876400351524353,
        0.7598119974136353,
        -0.06580880284309387
      ],
      "min": [
        -0.11898399889469147,
        0.283609002828598,
        -0.09795519709587097
      ],
      "type": "VEC3"
    },
    {
      "bufferView": 2,
      "byteOffset": 176484,
      "componentType": 5126,
      "count": 237,
      "max": [
        1.0,
        1.0,
        1.0
      ],
      "min": [
        -1.0,
        -1.0,
        -0.08293992280960083
      ],
      "type": "VEC3"
    },
    {
      "bufferView": 3,
      "byteOffset": 115760,
      "componentType": 5126,
      "count": 237,
      "max": [
        1.0,
        0.8126797080039978,
        1.0,
        1.0
      ],
      "min": [
        -0.9999985694885254,
        -0.7600431442260742,
        -1.0,
        1.0
      ],
      "type": "VEC4"
    },
    {
      "bufferView": 1,
      "byteOffset": 57880,
      "componentType": 5126,
      "count": 237,
      "max": [
        0.49493199586868286,
        0.5580790042877197
      ],
      "min": [
        0.32420000433921814,
        0.25947898626327515
      ],
      "type": "VEC2"
    },
    {
      "bufferView": 0,
      "byteOffset": 133980,
      "componentType": 5125,
      "count": 993,
      "type": "SCALAR"
    },
    {
      "bufferView": 2,
      "byteOffset": 179328,
      "componentType": 5126,
      "count": 78,
      "max": [
        0.01784300059080124,
        0.35008299350738525,
        -0.00595716992393136
      ],
      "min": [
        -0.009856060147285461,
        0.31668901443481445,
        -0.034605901688337326
      ],
      "type": "VEC3"
    },
    {
      "bufferView": 2,
      "byteOffset": 180264,
      "componentType": 5126,
      "count": 78,
      "max": [
        0.9885764718055725,
        0.17840400338172913,
        0.9719821214675903
      ],
      "min": [
        -0.960574746131897,
        -0.9991061091423035,
        -0.8933317065238953
      ],
      "type": "VEC3"
    },
    {
      "bufferView": 3,
      "byteOffset": 119552,
      "componentType": 5126,
      "count": 78,
      "max": [
        0.9930123090744019,
        0.8984543085098267,
        0.9297771453857422,
        1.0
      ],
      "min": [
        -0.9924286007881165,
        -0.816974937915802,
        -1.0,
        -1.0
      ],
      "type": "VEC4"
    },
    {
      "bufferView": 1,
      "byteOffset": 59776,
      "componentType": 5126,
      "count": 78,
      "max": [
        0.2291789948940277,
        0.9574329853057861
      ],
      "min": [
        0.0,
        0.0
      ],
      "type": "VEC2"
    },
    {
      "bufferView": 0,
      "byteOffset": 137952,
      "componentType": 5125,
      "count": 345,
      "type": "SCALAR"
    },
    {
      "bufferView": 2,
      "byteOffset": 181200,
      "componentType": 5126,
      "count": 41,
      "max": [
        0.027399400249123573,
        0.8832070231437683,
        0.0107787000015378
      ],
      "min": [
        -0.030903099104762077,
        0.8800719976425171,
        -0.04752359911799431
      ],
      "type": "VEC3"
    },
    {
      "bufferView": 2,
      "byteOffset": 181692,
      "componentType": 5126,
      "count": 41,
      "max": [
        0.16711798310279846,
        -0.9859359860420227,
        0.16711507737636566
      ],
      "min": [
        -0.16711798310279846,
        -1.0,
        -0.16711798310279846
      ],
      "type": "VEC3"
    },
    {
      "bufferView": 3,
      "byteOffset": 120800,
      "componentType": 5126,
      "count": 41,
      "max": [
        1.0,
        0.16704991459846497,
        0.1637684553861618,
        1.0
      ],
      "min": [
        0.9794171452522278,
        -0.16705019772052765,
        -0.1576651930809021,
        1.0
      ],
      "type": "VEC4"
    },
    {
      "bufferView": 1,
      "byteOffset": 60400,
      "componentType": 5126,
      "count": 41,
      "max": [
        0.28059300780296326,
        0.6967960000038147
      ],
      "min": [
        0.21418100595474243,
        0.6303840279579163
      ],
      "type": "VEC2"
    },
    {
      "bufferView": 0,
      "byteOffset": 139332,
      "componentType": 5125,
      "count": 180,
      "type": "SCALAR"
    },
    {
      "bufferView": 2,
      "byteOffset": 182184,
      "componentType": 5126,
      "count": 200,
      "max": [
        0.03673269972205162,
        0.8842819929122925,
        0.02011209912598133
      ],
      "min": [
        -0.040236398577690125,
        0.8815339803695679,
        -0.05685700103640556
      ],
      "type": "VEC3"
    },
    {
      "bufferView": 2,
      "byteOffset": 184584,
      "componentType": 5126,
      "count": 200,
      "max": [
        0.8696792721748352,
        -0.4935758709907532,
        0.8696731328964233
      ],
      "min": [
        -0.8696799874305725,
        -0.9822638630867004,
        -0.8696901798248291
      ],
      "type": "VEC3"
    },
    {
      "bufferView": 3,
      "byteOffset": 121456,
      "componentType": 5126,
      "count": 200,
      "max": [
        0.25281456112861633,
        0.8696190118789673,
        0.9999992847442627,
        1.0
      ],
      "min": [
        -0.23572464287281036,
        -0.8696293830871582,
        0.49356359243392944,
        1.0
      ],
      "type": "VEC4"
    },
    {
      "bufferView": 1,
      "byteOffset": 60728,
      "componentType": 5126,
      "count": 200,
      "max": [
        0.2995019853115082,
        0.7143070101737976
      ],
      "min": [
        0.19674000144004822,
        0.6115360260009766
      ],
      "type": "VEC2"
    },
    {
      "bufferView": 0,
      "byteOffset": 140052,
      "componentType": 5125,
      "count": 960,
      "type": "SCALAR"
    },
    {
      "bufferView": 2,
      "byteOffset": 186984,
      "componentType": 5126,
      "count": 113,
      "max": [
        0.24285200238227844,
        0.9877039790153503,
        0.08746860176324844
      ],
      "min": [
        -0.24229399859905243,
        0.8829079866409302,
        -0.16020500659942627
      ],
      "type": "VEC3"
    },
    {
      "bufferView": 2,
      "byteOffset": 188340,
      "componentType": 5126,
      "count": 113,
      "max": [
        0.9987172484397888,
        1.0,
        1.0
      ],
      "min": [
        -0.9996746182441711,
        -0.9999971389770508,
        -0.008915262296795845
      ],
      "type": "VEC3"
    },
    {
      "bufferView": 3,
      "byteOffset": 124656,
      "componentType": 5126,
      "count": 113,
      "max": [
        0.9999994039535522,
        0.9999803304672241,
        0.9999856948852539,
        1.0
      ],
      "min": [
        -0.5028267502784729,
        -0.0019807738717645407,
        -0.9999688863754272,
        1.0
      ],
      "type": "VEC4"
    },
    {
      "bufferView": 1,
      "byteOffset": 62328,
      "componentType": 5126,
      "count": 113,
      "max": [
        0.23430700600147247,
        0.602063000202179
      ],
      "min": [
        0.0035992900375276804,
        0.00157989002764225
      ],
      "type": "VEC2"
    },
    {
      "bufferView": 0,
      "byteOffset": 143892,
      "componentType": 5125,
      "count": 462,
      "type": "SCALAR"
    },
    {
      "bufferView": 2,
      "byteOffset": 189696,
      "componentType": 5126,
      "count": 462,
      "max": [
        0.25488999485969543,
        1.0,
        0.10857799649238586
      ],
      "min": [
        -0.25488999485969543,
        -0.10694299638271332,
        -0.33010101318359375
      ],
      "type": "VEC3"
    },
    {
      "bufferView": 2,
      "byteOffset": 195240,
      "componentType": 5126,
      "count": 462,
      "max": [
        0.9999890923500061,
        0.9999605417251587,
        0.989433228969574
      ],
      "min": [
        -0.9999890923500061,
        -0.9999605417251587,
        -0.9894327521324158
      ],
      "type": "VEC3"
    },
    {
      "bufferView": 3,
      "byteOffset": 126464,
      "componentType": 5126,
      "count": 462,
      "max": [
        0.9864827990531921,
        0.9865278601646423,
        0.9999910593032837,
        1.0
      ],
      "min": [
        -0.9864833950996399,
        -0.9875385165214539,
        -0.9999938607215881,
        1.0
      ],
      "type": "VEC4"
    },
    {
      "bufferView": 1,
      "byteOffset": 63232,
      "componentType": 5126,
      "count": 462,
      "max": [
        0.997776985168457,
        0.995415985584259
      ],
      "min": [
        0.7484650015830994,
        0.15128600597381592
      ],
      "type": "VEC2"
    },
    {
      "bufferView": 0,
      "byteOffset": 145740,
      "componentType": 5125,
      "count": 2304,
      "type": "SCALAR"
    }
  ],
  "asset": {
    "extras": {
      "author": "BlayneIgnasiak (https://sketchfab.com/BlayneIgnasiak)",
      "license": "CC-BY-4.0 (http://creativecommons.org/licenses/by/4.0/)",
      "source": "https://sketchfab.com/3d-models/public-phone-booth-3b50fb746d834312bce22c9fe3472726",
      "title": "Public Phone Booth"
    },
    "generator": "Sketchfab-12.66.0",
    "version": "2.0"
  },
  "bufferViews": [
    {
      "buffer": 0,
      "byteLength": 154956,
      "name": "floatBufferViews",
      "target": 34963
    },
    {
      "buffer": 0,
      "byteLength": 66928,
      "byteOffset": 154956,
      "byteStride": 8,
      "name": "floatBufferViews",
      "target": 34962
    },
    {
      "buffer": 0,
      "byteLength": 200784,
      "byteOffset": 221884,
      "byteStride": 12,
      "name": "floatBufferViews",
      "target": 34962
    },
    {
      "buffer": 0,
      "byteLength": 133856,
      "byteOffset": 422668,
      "byteStride": 16,
      "name": "floatBufferViews",
      "target": 34962
    }
  ],
  "buffers": [
    {
      "byteLength": 556524,
      "uri": "scene.bin"
    }
  ],
  "images": [
    {
      "uri": "uvgroup1_baseColor.jpeg"
    },
    {
      "uri": "uvgroup1_metallicRoughness.png"
    },
    {
      "uri": "uvgroup1_emissive.jpeg"
    },
    {
      "uri": "uvgroup1_normal.png"
    },
    {
      "uri": "UVgroup2_baseColor.jpeg"
    },
    {
      "uri": "UVgroup2_metallicRoughness.png"
    },
    {
      "uri": "UVgroup2_normal.png"
    }
  ],
  "materials": [
    {
      "doubleSided": true,
      "emissiveFactor": [
        1.0,
        1.0,
        1.0
      ],
      "emissiveTexture": {
        "index": 2
      },
      "name": "uvgroup1",
      "normalTexture": {
        "index": 3
      },
      "occlusionTexture": {
        "index": 1
      },
      "pbrMetallicRoughness": {
        "baseColorTexture": {
          "index": 0
        },
        "metallicRoughnessTexture": {
          "index": 1
        }
      }
    },
    {
      "doubleSided": true,
      "name": "UVgroup2",
      "normalTexture": {
        "index": 6
      },
      "occlusionTexture": {
        "index": 5
      },
      "pbrMetallicRoughness": {
        "baseColorTexture": {
          "index": 4
        },
        "metallicRoughnessTexture": {
          "index": 5
        }
      }
    }
  ],
  "meshes": [
    {
      "name": "defaultMaterial",
      "primitives": [
        {
          "attributes": {
            "NORMAL": 1,
            "POSITION": 0,
            "TANGENT": 2,
            "TEXCOORD_0": 3
          },
          "indices": 4,
          "material": 1,
          "mode": 4
        }
      ]
    },
    {
      "name": "defaultMaterial",
      "primitives": [
        {
          "attributes": {
            "NORMAL": 6,
            "POSITION": 5,
            "TANGENT": 7,
            "TEXCOORD_0": 8
          },
          "indices": 9,
          "material": 1,
          "mode": 4
        }
      ]
    },
    {
      "name": "defaultMaterial",
      "primitives": [
        {
          "attributes": {
            "NORMAL": 11,
            "POSITION": 10,
            "TANGENT": 12,
            "TEXCOORD_0": 13
          },
          "indices": 14,
          "material": 1,
          "mode": 4
        }
      ]
    },
    {
      "name": "defaultMaterial",
      "primitives": [
        {
          "attributes": {
            "NORMAL": 16,
            "POSITION": 15,
            "TANGENT": 17,
            "TEXCOORD_0": 18
          },
          "indices": 19,
          "material": 1,
          "mode": 4
        }
      ]
    },
    {
      "name": "defaultMaterial",
      "primitives": [
        {
          "attributes": {
            "NORMAL": 21,
            "POSITION": 20,
            "TANGENT": 22,
            "TEXCOORD_0": 23
          },
          "indices": 24,
          "material": 1,
          "mode": 4
        }
      ]
    },
    {
      "name": "defaultMaterial",
      "primitives": [
        {
          "attributes": {
            "NORMAL": 26,
            "POSITION": 25,
            "TANGENT": 27,
            "TEXCOORD_0": 28
          },
          "indices": 29,
          "material": 1,
          "mode": 4
        }
      ]
    },
    {
      "name": "defaultMaterial",
      "primitives": [
        {
          "attributes": {
            "NORMAL": 31,
            "POSITION": 30,
            "TANGENT": 32,
            "TEXCOORD_0": 33
          },
          "indices": 34,
          "material": 1,
          "mode": 4
        }
      ]
    },
    {
      "name": "defaultMaterial",
      "primitives": [
        {
          "attributes": {
            "NORMAL": 36,
            "POSITION": 35,
            "TANGENT": 37,
            "TEXCOORD_0": 38
          },
          "indices": 39,
          "material": 1,
          "mode": 4
        }
      ]
    },
    {
      "name": "defaultMaterial",
      "primitives": [
        {
          "attributes": {
            "NORMAL": 41,
            "POSITION": 40,
            "TANGENT": 42,
            "TEXCOORD_0": 43
          },
          "indices": 44,
          "material": 1,
          "mode": 4
        }
      ]
    },
    {
      "name": "defaultMaterial",
      "primitives": [
        {
          "attributes": {
            "NORMAL": 46,
            "POSITION": 45,
            "TANGENT": 47,
            "TEXCOORD_0": 48
          },
          "indices": 49,
          "material": 1,
          "mode": 4
        }
      ]
    },
    {
      "name": "defaultMaterial",
      "primitives": [
        {
          "attributes": {
            "NORMAL": 51,
            "POSITION": 50,
            "TANGENT": 52,
            "TEXCOORD_0": 53
          },
          "indices": 54,
          "material": 1,
          "mode": 4
        }
      ]
    },
    {
      "name": "defaultMaterial",
      "primitives": [
        {
          "attributes": {
            "NORMAL": 56,
            "POSITION": 55,
            "TANGENT": 57,
            "TEXCOORD_0": 58
          },
          "indices": 59,
          "material": 1,
          "mode": 4
        }
      ]
    },
    {
      "name": "defaultMaterial",
      "primitives": [
        {
          "attributes": {
            "NORMAL": 61,
            "POSITION": 60,
            "TANGENT": 62,
            "TEXCOORD_0": 63
          },
          "indices": 64,
          "material": 1,
          "mode": 4
        }
      ]
    },
    {
      "name": "defaultMaterial",
      "primitives": [
        {
          "attributes": {
            "NORMAL": 66,
            "POSITION": 65,
            "TANGENT": 67,
            "TEXCOORD_0": 68
          },
          "indices": 69,
          "material": 1,
          "mode": 4
        }
      ]
    },
    {
      "name": "defaultMaterial",
      "primitives": [
        {
          "attributes": {
            "NORMAL": 71,
            "POSITION": 70,
            "TANGENT": 72,
            "TEXCOORD_0": 73
          },
          "indices": 74,
          "material": 1,
          "mode": 4
        }
      ]
    },
    {
      "name": "defaultMaterial",
      "primitives": [
        {
          "attributes": {
            "NORMAL": 76,
            "POSITION": 75,
            "TANGENT": 77,
            "TEXCOORD_0": 78
          },
          "indices": 79,
          "material": 1,
          "mode": 4
        }
      ]
    },
    {
      "name": "defaultMaterial",
      "primitives": [
        {
          "attributes": {
            "NORMAL": 81,
            "POSITION": 80,
            "TANGENT": 82,
            "TEXCOORD_0": 83
          },
          "indices": 84,
          "material": 1,
          "mode": 4
        }
      ]
    },
    {
      "name": "defaultMaterial",
      "primitives": [
        {
          "attributes": {
            "NORMAL": 86,
            "POSITION": 85,
            "TANGENT": 87,
            "TEXCOORD_0": 88
          },
          "indices": 89,
          "material": 0,
          "mode": 4
        }
      ]
    },
    {
      "name": "defaultMaterial",
      "primitives": [
        {
          "attributes": {
            "NORMAL": 91,
            "POSITION": 90,
            "TANGENT": 92,
            "TEXCOORD_0": 93
          },
          "indices": 94,
          "material": 0,
          "mode": 4
        }
      ]
    },
    {
      "name": "defaultMaterial",
      "primitives": [
        {
          "attributes": {
            "NORMAL": 96,
            "POSITION": 95,
            "TANGENT": 97,
            "TEXCOORD_0": 98
          },
          "indices": 99,
          "material": 0,
          "mode": 4
        }
      ]
    },
    {
      "name": "defaultMaterial",
      "primitives": [
        {
          "attributes": {
            "NORMAL": 101,
            "POSITION": 100,
            "TANGENT": 102,
            "TEXCOORD_0": 103
          },
          "indices": 104,
          "material": 0,
          "mode": 4
        }
      ]
    },
    {
      "name": "defaultMaterial",
      "primitives": [
        {
          "attributes": {
            "NORMAL": 106,
            "POSITION": 105,
            "TANGENT": 107,
            "TEXCOORD_0": 108
          },
          "indices": 109,
          "material": 0,
          "mode": 4
        }
      ]
    },
    {
      "name": "defaultMaterial",
      "primitives": [
        {
          "attributes": {
            "NORMAL": 111,
            "POSITION": 110,
            "TANGENT": 112,
            "TEXCOORD_0": 113
          },
          "indices": 114,
          "material": 0,
          "mode": 4
        }
      ]
    },
    {
      "name": "defaultMaterial",
      "primitives": [
        {
          "attributes": {
            "NORMAL": 116,
            "POSITION": 115,
            "TANGENT": 117,
            "TEXCOORD_0": 118
          },
          "indices": 119,
          "material": 0,
          "mode": 4
        }
      ]
    },
    {
      "name": "defaultMaterial",
      "primitives": [
        {
          "attributes": {
            "NORMAL": 121,
            "POSITION": 120,
            "TANGENT": 122,
            "TEXCOORD_0": 123
          },
          "indices": 124,
          "material": 0,
          "mode": 4
        }
      ]
    },
    {
      "name": "defaultMaterial",
      "primitives": [
        {
          "attributes": {
            "NORMAL": 126,
            "POSITION": 125,
            "TANGENT": 127,
            "TEXCOORD_0": 128
          },
          "indices": 129,
          "material": 0,
          "mode": 4
        }
      ]
    },
    {
      "name": "defaultMaterial",
      "primitives": [
        {
          "attributes": {
            "NORMAL": 131,
            "POSITION": 130,
            "TANGENT": 132,
            "TEXCOORD_0": 133
          },
          "indices": 134,
          "material": 0,
          "mode": 4
        }
      ]
    },
    {
      "name": "defaultMaterial",
      "primitives": [
        {
          "attributes": {
            "NORMAL": 136,
            "POSITION": 135,
            "TANGENT": 137,
            "TEXCOORD_0": 138
          },
          "indices": 139,
          "material": 0,
          "mode": 4
        }
      ]
    },
    {
      "name": "defaultMaterial",
      "primitives": [
        {
          "attributes": {
            "NORMAL": 141,
            "POSITION": 140,
            "TANGENT": 142,
            "TEXCOORD_0": 143
          },
          "indices": 144,
          "material": 0,
          "mode": 4
        }
      ]
    },
    {
      "name": "defaultMaterial",
      "primitives": [
        {
          "attributes": {
            "NORMAL": 146,
            "POSITION": 145,
            "TANGENT": 147,
            "TEXCOORD_0": 148
          },
          "indices": 149,
          "material": 0,
          "mode": 4
        }
      ]
    },
    {
      "name": "defaultMaterial",
      "primitives": [
        {
          "attributes": {
            "NORMAL": 151,
            "POSITION": 150,
            "TANGENT": 152,
            "TEXCOORD_0": 153
          },
          "indices": 154,
          "material": 0,
          "mode": 4
        }
      ]
    },
    {
      "name": "defaultMaterial",
      "primitives": [
        {
          "attributes": {
            "NORMAL": 156,
            "POSITION": 155,
            "TANGENT": 157,
            "TEXCOORD_0": 158
          },
          "indices": 159,
          "material": 0,
          "mode": 4
        }
      ]
    },
    {
      "name": "defaultMaterial",
      "primitives": [
        {
          "attributes": {
            "NORMAL": 161,
            "POSITION": 160,
            "TANGENT": 162,
            "TEXCOORD_0": 163
          },
          "indices": 164,
          "material": 0,
          "mode": 4
        }
      ]
    },
    {
      "name": "defaultMaterial",
      "primitives": [
        {
          "attributes": {
            "NORMAL": 166,
            "POSITION": 165,
            "TANGENT": 167,
            "TEXCOORD_0": 168
          },
          "indices": 169,
          "material": 0,
          "mode": 4
        }
      ]
    }
  ],
  "nodes": [
    {
      "children": [
        1
      ],
      "matrix": [
        1.0,
        0.0,
        0.0,
        0.0,
        0.0,
        2.220446049250313e-16,
        -1.0,
        0.0,
        0.0,
        1.0,
        2.220446049250313e-16,
        0.0,
        0.0,
        -1.000000013351432e-10,
        -2.2204460788964474e-26,
        1.0
      ],
      "name": "Sketchfab_model"
    },
    {
      "children": [
        2,
        4,
        6,
        8,
        10,
        12,
        14,
        16,
        18,
        20,
        22,
        24,
        26,
        28,
        30,
        32,
        34,
        36,
        38,
        40,
        42,
        44,
        46,
        48,
        50,
        52,
        54,
        56,
        58,
        60,
        62,
        64,
        66,
        68
      ],
      "matrix": [
        1.0,
        0.0,
        0.0,
        0.0,
        0.0,
        -4.371139006309477e-08,
        0.999999999999999,
        0.0,
        0.0,
        -0.999999999999999,
        -4.371139006309477e-08,
        0.0,
        0.0,
        0.0,
        0.0,
        1.0
      ],
      "name": "Collada visual scene group"
    },
    {
      "children": [
        3
      ],
      "name": "Base_low"
    },
    {
      "mesh": 0,
      "name": "defaultMaterial"
    },
    {
      "children": [
        5
      ],
      "name": "BottomBolt4"
    },
    {
      "mesh": 1,
      "name": "defaultMaterial"
    },
    {
      "children": [
        7
      ],
      "name": "BottomBolt3"
    },
    {
      "mesh": 2,
      "name": "defaultMaterial"
    },
    {
      "children": [
        9
      ],
      "name": "BottomBolt2"
    },
    {
      "mesh": 3,
      "name": "defaultMaterial"
    },
    {
      "children": [
        11
      ],
      "name": "BottomBolt1"
    },
    {
      "mesh": 4,
      "name": "defaultMaterial"
    },
    {
      "children": [
        13
      ],
      "name": "Underbasesmall_low"
    },
    {
      "mesh": 5,
      "name": "defaultMaterial"
    },
    {
      "children": [
        15
      ],
      "name": "Underbasebig_low"
    },
    {
      "mesh": 6,
      "name": "defaultMaterial"
    },
    {
      "children": [
        17
      ],
      "name": "Book_connector_low"
    },
    {
      "mesh": 7,
      "name": "defaultMaterial"
    },
    {
      "children": [
        19
      ],
      "name": "Bookcasing_axis_low"
    },
    {
      "mesh": 8,
      "name": "defaultMaterial"
    },
    {
      "children": [
        21
      ],
      "name": "Bookcasing_swing_low"
    },
    {
      "mesh": 9,
      "name": "defaultMaterial"
    },
    {
      "children": [
        23
      ],
      "name": "Bookcasing_arm_low"
    },
    {
      "mesh": 10,
      "name": "defaultMaterial"
    },
    {
      "children": [
        25
      ],
      "name": "Bookcasing_rings_low"
    },
    {
      "mesh": 11,
      "name": "defaultMaterial"
    },
    {
      "children": [
        27
      ],
      "name": "Bookcasing_Small_low"
    },
    {
      "mesh": 12,
      "name": "defaultMaterial"
    },
    {
      "children": [
        29
      ],
      "name": "Bookcasing_middle_low"
    },
    {
      "mesh": 13,
      "name": "defaultMaterial"
    },
    {
      "children": [
        31
      ],
      "name": "Phone_Cord_low"
    },
    {
      "mesh": 14,
      "name": "defaultMaterial"
    },
    {
      "children": [
        33
      ],
      "name": "Bookcasing_large_low"
    },
    {
      "mesh": 15,
      "name": "defaultMaterial"
    },
    {
      "children": [
        35
      ],
      "name": "Can_low"
    },
    {
      "mesh": 16,
      "name": "defaultMaterial"
    },
    {
      "children": [
        37
      ],
      "name": "KeyPad_low"
    },
    {
      "mesh": 17,
      "name": "defaultMaterial"
    },
    {
      "children": [
        39
      ],
      "name": "handphone_low"
    },
    {
      "mesh": 18,
      "name": "defaultMaterial"
    },
    {
      "children": [
        41
      ],
      "name": "Back_component_low"
    },
    {
      "mesh": 19,
      "name": "defaultMaterial"
    },
    {
      "children": [
        43
      ],
      "name": "Casing_Back"
    },
    {
      "mesh": 20,
      "name": "defaultMaterial"
    },
    {
      "children": [
        45
      ],
      "name": "Metal_Stand_low"
    },
    {
      "mesh": 21,
      "name": "defaultMaterial"
    },
    {
      "children": [
        47
      ],
      "name": "Phone_Hanger_low"
    },
    {
      "mesh": 22,
      "name": "defaultMaterial"
    },
    {
      "children": [
        49
      ],
      "name": "Metal_Bottom_low"
    },
    {
      "mesh": 23,
      "name": "defaultMaterial"
    },
    {
      "children": [
        51
      ],
      "name": "Coin_Boxdoor_low"
    },
    {
      "mesh": 24,
      "name": "defaultMaterial"
    },
    {
      "children": [
        53
      ],
      "name": "Phone_Lever_low"
    },
    {
      "mesh": 25,
      "name": "defaultMaterial"
    },
    {
      "children": [
        55
      ],
      "name": "PlasticSticker_low"
    },
    {
      "mesh": 26,
      "name": "defaultMaterial"
    },
    {
      "children": [
        57
      ],
      "name": "Coin_Lever_low"
    },
    {
      "mesh": 27,
      "name": "defaultMaterial"
    },
    {
      "children": [
        59
      ],
      "name": "MetalPhoneBox_low"
    },
    {
      "mesh": 28,
      "name": "defaultMaterial"
    },
    {
      "children": [
        61
      ],
      "name": "Cord_Connector_low"
    },
    {
      "mesh": 29,
      "name": "defaultMaterial"
    },
    {
      "children": [
        63
      ],
      "name": "toplight"
    },
    {
      "mesh": 30,
      "name": "defaultMaterial"
    },
    {
      "children": [
        65
      ],
      "name": "LighCasing_low"
    },
    {
      "mesh": 31,
      "name": "defaultMaterial"
    },
    {
      "children": [
        67
      ],
      "name": "Top_Phone_low"
    },
    {
      "mesh": 32,
      "name": "defaultMaterial"
    },
    {
      "children": [
        69
      ],
      "name": "metal_Casing_low"
    },
    {
      "mesh": 33,
      "name": "defaultMaterial"
    }
  ],
  "samplers": [
    {
      "magFilter": 9729,
      "minFilter": 9987,
      "wrapS": 10497,
      "wrapT": 10497
    }
  ],
  "scene": 0,
  "scenes": [
    {
      "name": "Sketchfab_Scene",
      "nodes": [
        0
      ]
    }
  ],
  "textures": [
    {
      "sampler": 0,
      "source": 0
    },
    {
      "sampler": 0,
      "source": 1
    },
    {
      "sampler": 0,
      "source": 2
    },
    {
      "sampler": 0,
      "source": 3
    },
    {
      "sampler": 0,
      "source": 4
    },
    {
      "sampler": 0,
      "source": 5
    },
    {
      "sampler": 0,
      "source": 6
    }
  ]
}
